P2
64 64
255
26 44 43 42 44 46 36 35 33 36 37 109 51 16 22 79 109 113 113 115 115 111 109 99 105 109 109 108 106 98 92 64 52 104 111 113 112 113 115 120 43 103 121 95 39 37 39 66 40 47 82 106 111 113 113 104 46 56 55 88 91 105 111 109
37 84 91 83 77 85 81 86 82 74 72 103 231 210 141 149 220 230 237 235 232 227 181 213 239 43 51 55 52 58 48 66 219 227 238 233 235 237 234 239 96 219 217 172 219 197 59 54 87 160 206 219 225 227 230 233 189 102 130 173 177 202 220 219
43 108 130 167 183 104 67 77 74 81 82 80 71 197 228 137 219 228 224 158 207 182 218 151 66 52 54 56 58 56 59 54 60 110 241 241 238 236 224 192 148 231 238 224 207 209 221 30 163 194 213 225 224 226 231 232 231 75 117 170 201 218 219 218
98 201 204 206 214 215 99 44 55 55 44 43 48 42 64 81 198 31 33 40 40 44 45 40 48 49 56 51 56 57 61 64 64 64 64 249 236 223 183 99 108 186 220 189 218 219 226 224 168 197 212 218 218 225 228 230 220 24 156 180 195 198 192 194
100 215 222 228 236 225 197 32 160 174 189 182 69 33 91 99 42 33 34 39 42 36 37 46 47 51 48 53 57 55 58 57 60 62 62 62 167 156 126 168 145 183 198 237 241 210 240 235 223 189 194 211 220 222 225 224 189 5 194 190 171 182 185 199
107 220 222 219 222 211 71 92 174 194 204 210 210 51 0 115 36 36 41 37 35 42 42 41 47 52 49 57 46 54 56 57 57 57 64 69 61 59 182 145 87 171 202 184 224 236 240 235 226 193 210 221 227 227 224 213 156 44 196 198 190 181 194 210
105 217 218 218 233 209 29 173 198 206 202 215 204 68 109 84 34 33 37 39 39 37 40 177 59 46 51 51 54 43 41 51 56 58 60 58 54 64 65 85 122 185 210 226 234 244 233 232 232 218 212 223 228 228 210 183 23 112 193 199 193 177 194 210
93 190 202 207 202 47 137 177 206 201 231 250 145 0 169 58 34 36 34 36 34 48 163 236 52 44 44 61 54 46 49 55 48 51 58 57 54 56 57 56 83 167 206 223 227 232 232 231 235 225 221 223 227 224 176 55 0 154 196 184 195 187 195 211
77 182 184 185 70 21 168 196 202 233 249 96 0 141 21 54 34 36 37 29 48 77 193 196 42 47 46 48 48 44 48 52 55 61 62 60 66 61 54 57 53 53 206 217 220 225 227 231 234 228 220 228 228 209 17 0 0 112 199 192 190 200 197 217
92 197 201 206 206 135 182 189 193 176 56 0 100 27 68 40 40 37 35 37 34 143 194 46 49 53 46 56 46 43 51 49 47 51 60 64 62 64 59 64 59 55 58 215 219 224 230 232 232 231 224 233 233 147 0 0 0 34 188 192 171 197 197 218
93 192 204 212 210 134 182 243 177 27 0 8 47 37 75 37 31 35 31 32 126 210 161 39 43 49 49 53 54 51 51 53 55 57 57 65 62 61 60 61 58 53 56 60 215 223 224 231 234 235 234 236 227 43 0 0 65 168 177 190 169 181 195 223
82 192 200 207 201 156 230 166 14 0 0 111 45 34 35 32 40 36 34 31 173 222 58 44 46 48 52 56 49 44 53 60 56 58 61 59 65 62 55 62 61 62 91 57 86 211 222 235 241 179 157 116 159 184 200 173 169 204 201 204 209 180 190 217
91 181 196 206 192 0 112 5 0 0 180 66 37 31 28 34 35 32 32 157 202 222 54 46 43 46 48 52 74 46 51 60 56 56 59 56 61 69 66 62 58 57 64 61 71 54 206 171 103 121 154 153 195 206 209 209 212 204 212 214 214 209 199 197
82 186 198 188 123 0 0 0 0 136 205 35 33 32 32 32 30 36 36 124 225 206 61 44 44 48 52 61 95 102 49 49 54 53 51 54 57 57 61 65 60 60 70 66 54 57 79 13 60 97 116 173 196 209 214 218 219 214 227 237 226 212 208 202
69 177 240 122 0 0 0 1 1 210 179 32 29 30 33 30 32 34 164 194 233 227 65 49 46 52 56 52 54 75 43 51 53 57 57 58 58 64 172 69 90 105 174 60 105 57 54 0 32 69 125 174 197 208 217 218 227 218 224 223 224 235 235 212
111 224 220 218 215 197 104 1 183 201 179 33 35 29 29 32 33 92 130 207 230 235 54 44 44 44 56 55 54 51 138 49 52 57 60 60 59 60 220 231 172 224 181 66 193 91 55 60 5 24 142 171 196 206 213 228 223 214 238 206 195 232 250 219
111 224 223 222 221 190 102 22 204 188 172 52 39 41 32 115 142 136 57 170 217 188 197 48 44 48 48 51 90 71 60 46 51 57 60 56 62 64 193 243 211 234 220 65 142 75 56 69 4 29 147 177 196 205 215 236 234 212 213 231 196 218 156 144
111 228 227 223 211 161 52 5 204 187 161 196 24 30 197 164 199 181 185 130 206 223 212 212 37 49 49 53 82 133 53 52 51 52 65 60 62 85 186 237 155 220 157 85 48 69 52 77 0 34 86 175 197 206 213 241 237 211 217 193 241 110 168 196
113 226 227 225 197 68 0 35 199 180 185 201 36 186 176 166 185 194 193 164 210 209 210 202 213 47 52 55 142 198 67 67 51 55 62 58 59 84 155 183 88 105 80 102 53 54 57 86 1 31 100 171 192 206 225 244 239 209 220 131 116 133 183 200
116 228 230 209 69 0 0 129 195 180 192 194 215 176 164 182 194 201 213 221 218 220 218 223 220 44 49 59 170 244 85 51 48 49 59 64 57 62 92 80 86 72 66 51 51 189 175 129 8 30 90 171 199 204 231 246 236 204 208 104 183 244 174 199
62 139 146 168 180 103 6 180 184 172 190 200 212 171 183 183 198 210 213 219 211 231 240 225 222 48 57 53 147 244 160 52 41 55 55 56 58 61 65 70 62 60 66 55 49 221 223 132 3 24 97 170 189 207 212 241 238 205 201 212 249 124 179 200
85 172 159 174 196 184 3 175 181 169 172 195 198 162 197 187 195 206 222 222 212 228 221 222 222 49 54 60 128 232 218 64 41 51 52 56 56 67 66 64 62 68 47 54 66 236 159 69 0 22 59 145 163 193 208 237 240 220 201 241 104 158 185 204
73 164 195 162 177 112 0 107 170 177 172 168 171 151 200 189 199 209 223 220 206 217 223 224 221 47 54 53 97 166 172 65 48 35 52 46 55 61 62 67 61 57 58 59 180 173 66 53 0 33 48 100 151 167 189 222 230 155 235 226 103 147 182 200
47 107 136 106 95 0 0 107 158 171 156 157 136 171 179 192 197 209 211 219 218 220 225 225 218 45 49 55 73 82 105 80 58 48 79 179 71 58 57 57 60 62 88 148 222 98 53 48 1 15 44 46 66 55 106 49 149 188 241 240 235 224 159 190
11 34 10 0 0 0 0 86 16 124 45 17 2 179 187 187 194 200 206 218 222 225 222 222 211 39 49 53 56 54 65 68 68 134 150 235 230 46 57 61 61 52 74 204 146 66 52 73 14 0 4 19 0 204 220 234 196 234 241 241 238 244 243 176
17 0 0 0 0 124 19 8 39 60 13 11 59 183 185 186 194 201 208 218 226 222 230 225 211 37 53 46 52 59 64 72 66 70 120 202 214 53 49 61 58 68 108 117 91 59 54 193 1 0 3 7 18 208 218 231 226 228 238 240 241 243 243 149
85 168 138 67 104 27 15 7 65 18 7 5 160 188 185 184 187 201 205 222 224 224 228 230 213 37 46 44 55 53 54 60 68 61 86 159 232 240 44 49 56 59 59 56 57 71 49 146 73 0 0 0 108 201 217 233 234 233 241 243 244 243 244 130
93 174 104 117 36 17 15 33 24 10 17 9 188 198 195 177 179 194 206 221 223 223 225 228 213 31 39 42 47 60 60 68 60 66 57 149 230 234 36 54 55 52 51 52 55 47 0 123 156 47 0 0 122 190 208 225 226 231 241 243 245 244 245 86
92 157 124 75 35 18 16 22 14 15 11 11 189 205 196 193 179 189 207 219 224 224 228 225 223 26 34 37 46 51 55 31 113 172 200 195 201 208 82 49 120 124 139 184 194 6 91 194 206 207 174 13 66 187 194 215 222 225 233 244 246 246 246 52
74 98 93 16 10 15 9 14 13 14 6 2 184 204 194 196 190 194 210 223 226 226 230 231 213 10 21 22 16 13 2 91 180 190 212 173 184 226 237 87 142 99 162 194 199 209 181 194 214 207 206 153 9 171 186 201 210 220 224 236 243 243 139 48
46 116 32 13 7 11 15 17 9 14 10 9 205 205 193 193 195 208 211 221 226 222 232 230 128 13 17 81 137 132 70 195 186 204 215 166 168 219 230 88 110 100 163 181 206 221 218 199 212 221 231 190 7 122 173 183 184 199 208 219 222 199 223 62
49 78 24 9 11 10 18 9 14 7 6 75 208 199 194 193 198 207 218 224 226 225 233 227 33 24 174 187 193 196 169 83 100 131 195 174 186 225 226 150 163 109 159 187 209 168 163 177 209 228 243 219 66 55 130 159 158 149 134 109 102 170 46 37
34 31 22 15 17 18 15 15 21 15 11 112 210 198 194 200 204 210 221 221 228 225 233 217 2 158 190 212 201 201 201 210 35 1 95 189 188 210 237 233 118 206 132 218 54 69 146 194 200 199 245 233 156 3 86 92 96 74 69 68 65 34 45 37
17 34 26 23 11 14 18 19 15 14 10 128 202 199 193 201 205 211 223 224 227 227 231 161 13 179 187 204 208 217 219 163 206 18 172 186 195 219 240 235 228 204 204 126 59 113 172 198 215 212 201 233 184 0 39 56 51 26 36 34 37 44 42 47
15 31 30 23 22 11 16 21 13 14 17 146 196 201 196 200 211 217 223 224 226 226 228 18 137 195 190 179 185 197 201 68 158 201 64 214 187 224 237 221 155 211 200 37 128 159 174 201 208 214 222 212 154 0 11 34 24 20 29 37 46 40 43 44
14 30 24 29 32 20 14 23 22 10 11 143 207 196 197 196 211 219 222 225 227 226 218 1 180 200 202 193 194 184 176 164 171 186 75 209 218 224 200 226 222 159 214 15 108 116 187 202 219 220 222 210 73 0 2 5 0 31 33 41 45 37 42 42
15 22 21 26 28 17 15 21 16 11 1 148 208 193 196 201 211 223 222 225 227 220 172 1 199 194 180 185 192 181 172 185 193 197 181 201 194 219 0 125 136 186 204 204 204 202 202 205 232 226 228 211 82 0 0 0 55 36 40 41 44 45 39 56
20 20 26 17 22 21 18 15 15 8 0 150 204 197 194 205 213 221 223 224 223 207 65 74 195 179 176 190 180 168 173 184 201 198 208 200 208 208 177 148 161 176 207 206 208 206 213 210 206 225 231 223 171 0 0 32 28 42 39 45 43 53 58 196
17 20 24 14 21 20 19 8 8 2 0 166 197 197 197 207 218 223 220 222 213 174 13 120 176 164 172 174 172 173 177 190 197 205 205 199 225 241 212 135 162 173 198 202 223 246 245 243 214 219 222 219 187 0 2 30 33 32 43 44 45 52 91 235
17 23 27 15 2 18 15 0 0 0 0 180 204 199 199 204 217 221 218 213 199 139 1 134 154 170 175 174 169 173 171 187 195 199 190 205 231 244 244 124 160 162 184 206 212 236 240 223 201 212 211 211 181 0 32 31 33 34 54 45 48 55 198 248
17 23 26 24 5 0 90 27 78 2 56 184 198 194 202 202 213 219 214 209 184 118 0 123 155 175 173 171 167 167 174 179 183 187 200 218 222 221 233 137 155 155 171 192 189 204 217 209 202 206 211 204 149 0 13 23 39 42 51 48 59 64 197 190
14 21 21 17 8 48 24 154 144 13 142 193 197 196 200 206 212 210 209 198 174 102 2 110 147 167 170 171 163 162 175 176 163 189 195 196 197 201 199 156 131 153 169 179 184 189 200 202 205 205 204 204 75 2 15 30 40 44 49 48 54 116 183 69
7 21 17 6 48 0 53 119 64 7 166 196 198 193 205 209 210 201 205 189 172 107 1 94 134 137 131 160 161 160 156 169 154 177 180 185 183 187 186 154 141 158 156 171 177 188 196 192 198 189 202 207 14 0 17 26 30 43 51 48 54 145 128 55
16 26 14 42 9 108 55 139 134 15 164 197 196 194 207 208 210 201 201 185 162 106 0 71 121 124 103 111 126 129 141 137 150 158 175 189 184 183 174 155 135 155 149 164 174 181 187 187 197 192 199 201 1 4 18 28 36 44 45 49 55 112 111 45
6 17 16 7 21 61 83 126 119 19 172 202 194 193 212 211 209 198 201 184 171 103 0 35 122 130 107 104 117 106 128 141 151 157 172 180 177 175 166 144 146 141 159 157 164 172 183 189 190 196 197 192 0 0 23 30 37 40 44 46 48 79 58 36
1 15 7 4 10 2 4 33 82 59 170 197 197 201 209 214 209 196 200 181 171 66 0 0 86 130 132 112 126 99 124 145 137 146 166 175 182 174 146 118 144 156 164 162 162 175 179 175 188 185 192 201 1 0 22 37 34 42 45 41 47 49 54 36
0 0 0 5 17 30 17 53 54 9 182 196 196 197 206 215 208 194 197 187 175 33 1 1 54 91 139 117 133 95 128 150 134 125 148 174 176 168 136 106 130 154 156 161 171 167 176 180 184 193 205 195 0 7 27 33 37 43 39 44 44 45 42 34
8 9 0 0 8 11 85 7 55 3 181 193 197 202 209 207 208 195 204 192 173 22 0 0 7 64 107 135 124 115 111 149 146 128 138 160 168 167 112 106 112 130 120 143 157 171 173 181 192 190 197 202 0 1 0 30 34 39 42 46 46 45 35 28
20 60 65 13 0 0 1 0 0 42 185 195 196 205 213 212 204 204 207 196 181 0 0 0 1 52 91 122 118 119 96 144 147 134 128 146 162 182 120 100 116 147 141 134 150 161 187 184 192 197 200 196 0 9 0 0 34 44 42 39 40 31 21 22
15 67 102 57 34 0 0 7 2 144 187 194 195 209 212 218 214 217 209 193 177 0 0 0 0 41 91 125 119 129 103 98 142 142 115 133 162 174 145 112 118 149 156 166 162 174 177 187 189 195 198 195 0 22 40 1 2 15 39 31 20 17 21 27
62 104 84 56 10 18 0 0 0 187 189 189 199 208 210 213 199 210 213 200 103 0 0 0 4 26 77 122 110 119 106 91 139 146 112 117 150 158 111 105 121 134 149 156 164 173 184 189 196 204 205 195 0 1 85 53 0 0 13 23 28 23 27 24
65 106 100 91 81 75 68 62 51 190 181 187 196 204 210 213 204 211 209 202 17 0 0 1 1 22 73 99 92 126 87 88 109 139 126 116 148 143 96 85 116 139 159 161 169 183 183 192 200 201 198 177 0 0 7 104 0 1 13 29 28 28 26 20
98 192 169 148 110 85 69 68 52 190 159 190 196 208 212 210 207 215 212 195 0 0 0 2 8 14 39 83 95 120 103 106 141 144 122 123 134 150 93 99 94 113 149 159 169 180 185 179 190 195 192 19 0 0 0 0 0 22 24 39 32 32 24 24
108 210 200 180 161 143 90 58 58 183 171 186 197 208 211 210 214 219 213 161 0 0 0 1 3 15 43 92 82 115 107 100 137 157 128 144 153 134 82 87 90 95 107 135 166 169 179 181 197 190 174 0 0 0 0 0 0 17 33 32 35 23 21 28
107 214 212 196 179 161 120 70 147 172 182 177 195 212 215 212 219 220 217 16 0 0 0 3 10 6 21 61 75 100 120 96 136 157 144 130 148 144 79 58 72 64 91 124 149 161 177 179 194 189 59 48 53 53 1 0 0 7 24 26 26 26 26 29
111 218 214 215 190 169 120 60 158 156 186 180 200 211 214 213 218 218 214 0 0 4 4 2 6 5 7 45 66 96 119 94 111 157 146 132 145 141 74 53 62 66 113 117 153 174 180 188 194 129 28 56 97 99 82 56 30 0 6 26 29 31 39 40
120 245 244 223 193 160 86 31 144 145 170 181 198 212 217 214 220 222 188 0 0 0 2 2 0 5 10 32 60 86 112 84 91 139 147 130 128 104 58 26 45 53 66 97 149 187 171 192 161 0 60 57 139 189 158 112 84 66 65 3 21 35 36 39
115 232 228 215 188 110 35 0 98 94 142 161 192 208 208 214 221 220 0 0 0 0 3 1 2 2 1 10 34 86 123 73 64 87 92 107 110 83 28 27 33 37 46 52 86 149 143 108 7 159 85 69 144 179 238 246 213 137 164 126 62 24 33 33
111 222 217 196 171 210 213 212 217 217 217 218 209 189 188 205 211 170 0 0 0 0 0 0 0 0 0 9 17 34 98 71 60 64 70 77 81 71 2 8 15 22 21 0 6 0 212 247 241 187 106 59 97 192 235 245 243 238 246 241 155 123 44 21
108 215 210 220 220 221 221 220 221 220 219 222 220 221 222 219 218 212 208 208 210 183 24 0 0 0 2 4 16 5 31 28 28 46 64 65 40 3 3 0 2 3 8 4 1 0 11 0 107 2 46 53 108 149 175 197 207 188 226 244 201 83 65 52
99 176 219 225 226 228 226 220 220 224 222 225 224 221 223 221 222 221 222 218 223 219 220 218 211 185 5 0 2 0 0 7 0 19 52 41 0 9 0 1 1 0 0 0 0 0 0 0 0 64 56 53 58 64 45 43 41 40 47 95 122 86 43 48
41 59 224 231 233 231 228 226 224 230 224 226 225 225 223 224 226 224 224 222 225 227 226 223 224 222 221 218 146 3 0 0 16 19 30 28 29 35 19 1 1 1 0 0 0 0 17 40 48 49 46 36 45 46 47 46 52 58 51 44 46 64 134 142
6 210 222 230 227 232 230 227 225 227 226 226 230 227 222 220 232 228 232 238 241 243 244 244 240 240 226 227 231 218 34 45 62 39 49 49 49 60 60 65 59 60 55 48 53 108 171 47 56 57 52 37 45 37 36 40 43 52 46 45 67 115 190 233
82 182 219 225 225 230 226 221 222 224 217 225 227 221 222 238 227 232 195 200 207 211 220 224 224 218 197 198 206 213 220 221 92 32 42 60 62 56 64 58 51 49 53 59 74 135 200 183 39 33 43 46 51 88 113 46 55 55 59 58 90 193 204 205
