P2
64 64
255
204 205 205 207 210 211 211 215 221 222 221 223 221 225 226 228 228 226 227 224 225 226 230 232 233 230 230 230 217 197 129 22 2 5 26 125 158 172 181 185 190 190 188 196 212 202 206 206 201 198 207 207 201 206 205 208 201 210 213 212 210 157 83 26 
204 202 204 210 205 209 213 215 219 219 220 222 220 225 227 227 228 225 226 222 226 226 233 233 230 234 232 228 204 174 94 6 0 5 78 150 166 179 176 185 189 194 205 202 201 205 201 206 210 208 206 204 207 210 208 210 212 210 217 223 220 186 84 42 
208 206 209 207 208 213 215 218 222 222 224 223 222 226 228 230 227 226 226 224 226 228 231 230 231 231 232 226 193 162 59 4 1 20 128 164 169 173 187 196 193 189 202 197 199 205 209 204 204 213 211 211 211 208 214 208 213 221 224 231 228 176 52 125 
202 206 207 209 210 214 219 219 222 222 224 225 222 224 227 227 226 227 226 225 228 228 231 231 232 232 234 226 182 120 24 0 3 81 149 169 173 183 183 187 195 195 197 200 200 204 202 201 204 206 208 213 210 208 210 217 211 222 225 225 212 86 105 197 
205 207 206 211 211 217 218 215 223 222 224 221 224 225 226 227 227 226 224 226 227 227 228 230 231 232 232 220 161 73 8 0 13 128 163 171 179 184 186 194 187 196 202 205 204 202 204 208 208 211 211 211 217 221 215 214 219 212 217 208 163 170 214 210 
209 208 211 210 208 217 217 219 222 221 223 222 224 225 228 224 223 227 226 226 224 226 227 230 228 232 233 206 116 42 4 0 54 147 173 172 187 190 186 194 190 200 199 198 198 196 197 196 197 202 202 209 208 214 214 208 198 189 172 110 156 205 237 232 
209 209 212 212 215 217 219 224 225 224 225 224 223 226 228 228 225 228 225 225 224 226 231 232 227 230 231 181 78 18 0 6 92 153 169 179 188 194 190 198 197 198 194 187 183 184 184 182 187 187 190 197 195 197 204 202 197 142 73 23 24 149 202 233 
208 210 213 215 213 218 218 223 224 223 225 226 224 227 227 226 226 227 225 226 227 228 231 230 231 231 225 157 42 7 0 23 121 160 177 186 190 193 193 199 195 190 185 175 181 177 182 183 188 181 188 197 193 195 199 199 197 205 156 45 10 3 91 193 
211 210 214 213 217 218 219 224 223 224 226 224 224 227 225 226 226 226 226 226 226 230 232 230 228 228 221 121 18 0 0 35 137 175 189 188 195 193 192 189 190 195 186 181 179 174 170 166 185 185 185 196 197 195 196 201 201 204 215 188 68 15 1 88 
210 212 215 213 218 221 220 225 225 226 225 225 225 225 226 226 225 225 226 226 225 226 231 231 231 224 212 90 14 2 0 55 142 181 188 193 189 190 194 195 194 196 192 185 184 181 183 179 187 193 192 198 197 200 201 209 211 221 217 218 211 117 22 2 
211 210 213 215 219 221 222 224 225 223 224 223 224 225 228 226 223 226 227 227 223 228 227 231 228 220 186 58 7 0 2 79 149 186 193 194 196 198 195 197 198 193 193 190 193 194 194 189 196 195 189 192 201 204 208 211 207 215 224 223 228 219 130 22 
211 214 213 215 219 221 222 225 224 222 225 225 227 226 227 225 226 225 225 225 225 227 228 228 224 208 172 29 2 0 37 80 164 194 196 198 199 199 199 201 198 199 195 198 195 195 192 192 193 193 197 192 195 190 189 196 200 206 205 207 225 227 212 109 
211 214 217 218 219 218 223 226 222 225 224 225 225 227 230 226 227 228 225 226 226 228 226 224 218 199 144 10 1 4 86 141 180 193 198 202 200 200 198 202 202 205 197 197 193 195 195 192 194 185 187 189 184 181 176 186 176 174 170 174 164 158 163 167 
214 214 219 217 222 219 219 224 223 219 222 224 223 227 226 226 227 226 227 226 226 227 221 219 205 183 106 8 0 18 139 159 181 198 201 200 199 200 202 198 198 200 195 192 192 201 193 194 196 192 182 175 173 169 164 159 155 157 156 156 145 154 184 185 
210 215 217 218 220 220 224 221 220 223 223 222 223 226 226 225 227 225 224 223 223 223 223 218 190 168 72 0 0 46 155 164 192 199 196 198 202 201 200 196 195 195 188 193 189 196 196 194 189 189 190 182 173 157 148 145 149 146 145 135 142 163 176 182 
213 215 218 219 220 222 223 223 222 222 222 225 224 227 226 224 226 226 226 223 222 223 213 204 179 136 35 0 0 71 161 172 193 201 198 196 195 199 201 195 193 188 184 187 193 196 189 190 194 192 192 181 175 172 169 172 158 162 161 163 172 185 190 189 
211 217 219 220 223 223 222 223 222 222 225 226 225 228 226 224 227 225 224 220 220 219 207 196 172 99 10 0 1 108 156 180 199 205 202 202 194 195 196 188 180 184 185 194 185 186 190 194 192 189 182 176 181 182 179 176 172 181 180 190 185 186 185 188 
213 219 217 221 222 222 224 222 222 221 224 228 225 228 226 224 223 222 224 220 219 215 201 180 141 65 5 0 20 113 158 179 199 207 210 202 195 192 186 181 181 182 183 186 180 186 189 193 192 195 185 185 187 187 183 182 185 187 188 187 190 188 192 190 
211 220 218 222 222 224 223 221 223 223 225 225 227 226 224 225 222 221 222 219 217 204 193 172 125 44 1 0 51 125 164 184 199 208 208 204 194 185 175 173 173 185 184 179 185 188 190 185 183 185 188 189 186 188 189 184 190 188 189 186 189 189 187 185 
212 218 220 224 222 222 222 221 222 221 225 224 225 225 225 224 224 223 220 214 210 194 184 158 90 30 0 1 66 133 166 182 198 205 201 197 188 177 173 173 184 177 176 181 189 190 186 184 182 186 186 186 183 174 176 179 175 175 181 182 187 189 186 185 
213 218 220 220 221 225 223 221 223 221 224 223 224 226 222 224 223 221 219 215 207 188 171 130 65 10 0 13 74 145 173 183 195 205 200 188 179 175 168 174 176 175 179 181 190 189 186 185 180 177 172 172 168 168 174 171 173 176 182 179 184 180 177 196 
214 218 219 220 220 224 222 219 222 223 225 223 224 225 224 222 220 219 217 210 199 179 164 110 52 8 0 16 96 144 166 180 193 200 199 184 179 171 175 181 174 175 176 181 186 181 174 177 179 177 168 169 167 167 180 179 173 179 183 180 179 182 180 188 
217 217 219 220 224 224 220 218 220 215 222 223 224 222 222 221 219 218 209 198 188 168 150 102 40 6 0 36 109 153 167 177 189 192 182 181 177 174 175 172 179 181 182 177 179 177 177 177 179 173 166 171 168 172 181 174 179 185 180 184 181 181 185 193 
218 217 219 221 222 223 221 221 220 220 224 223 223 223 221 219 215 214 206 197 184 160 128 79 26 2 0 49 117 150 169 176 184 181 172 171 164 173 173 172 170 176 180 175 175 171 174 175 170 167 170 169 169 173 176 181 184 182 181 184 181 190 194 193 
218 218 221 219 223 220 219 218 220 220 222 222 222 221 221 217 213 207 202 192 174 145 121 67 13 4 4 55 120 153 157 168 176 171 163 164 164 173 167 173 172 175 177 171 174 174 176 173 172 172 166 171 173 174 176 175 177 183 182 182 190 187 193 198 
217 217 218 219 221 223 218 219 218 221 223 221 222 219 218 215 212 206 193 185 164 136 87 47 16 2 4 70 124 154 159 163 171 168 167 167 167 172 170 175 175 174 166 172 170 170 174 171 166 172 169 174 171 176 177 174 177 181 181 183 190 188 192 193 
214 218 221 221 221 219 219 220 215 215 221 218 220 217 218 213 208 201 187 176 151 124 80 37 5 4 16 73 118 149 161 163 167 161 170 163 170 171 172 177 177 175 168 173 175 173 172 175 168 161 169 174 177 176 179 180 180 180 182 181 189 193 194 193 
218 217 221 219 223 218 219 220 218 215 218 218 215 218 217 209 204 192 179 173 149 109 68 32 0 0 19 83 121 139 143 155 157 146 158 164 172 169 174 177 173 171 171 173 175 170 166 166 170 166 168 174 174 174 179 174 181 177 180 183 190 189 195 197 
217 219 223 220 221 221 220 221 218 219 217 218 213 210 212 204 199 188 176 158 139 104 61 26 1 1 27 92 134 144 153 153 154 153 160 168 170 169 175 173 175 170 169 174 174 173 170 167 169 169 172 174 173 169 174 169 171 179 177 182 187 188 192 193 
214 217 218 218 219 219 219 219 217 217 217 217 211 210 208 199 192 181 170 158 130 85 49 16 1 2 43 90 128 142 153 151 155 159 167 171 172 170 171 169 168 180 171 176 173 174 170 163 170 176 173 169 167 167 170 172 174 176 177 183 185 189 189 196 
213 213 214 218 218 214 214 217 215 219 212 211 207 207 200 197 188 174 166 150 125 84 55 21 0 5 39 82 128 138 150 151 155 161 164 171 172 170 171 169 170 174 177 176 175 171 168 166 170 167 171 173 166 166 174 166 174 179 181 183 184 185 189 185 
214 214 217 217 217 214 213 212 215 215 214 210 209 207 204 190 184 174 156 142 119 87 53 19 0 11 39 81 122 143 142 148 153 164 169 169 166 169 180 170 172 176 176 175 174 168 159 163 167 168 170 171 169 172 172 172 175 177 183 180 183 188 189 187 
213 217 215 215 219 215 217 210 214 215 212 212 209 200 199 187 184 172 159 136 118 71 48 11 0 8 47 93 123 141 150 149 155 170 170 175 175 172 176 176 173 174 174 171 171 170 161 163 167 167 170 169 167 168 169 174 174 183 183 179 179 183 189 180 
213 212 215 214 212 210 212 208 209 212 212 208 200 198 193 186 183 171 158 137 110 72 36 6 0 11 54 85 110 141 146 154 160 160 168 172 176 176 174 172 179 176 175 173 173 168 167 170 168 166 163 166 163 163 167 170 172 180 179 182 181 180 184 180 
217 215 214 213 210 211 213 208 212 209 210 207 202 197 190 186 177 164 156 136 108 72 46 6 0 11 46 83 117 133 138 141 151 161 172 175 175 175 173 177 179 176 173 175 174 172 170 164 168 164 166 168 166 167 166 173 174 179 177 180 183 183 183 173 
213 213 217 214 211 206 207 206 212 210 212 205 197 193 189 182 172 162 146 134 105 78 43 5 0 8 51 75 113 136 133 143 151 148 159 171 171 173 172 173 175 174 174 174 172 174 172 172 170 170 170 161 166 167 169 167 170 177 177 181 176 179 179 175 
212 212 212 212 210 202 207 204 209 206 207 207 198 192 186 180 174 166 146 136 102 73 49 2 2 4 47 79 110 128 131 150 147 149 155 166 167 172 168 167 170 176 176 170 171 168 170 168 163 163 167 168 162 160 164 167 175 173 171 177 176 175 177 162 
213 214 214 215 209 208 207 208 207 205 206 198 197 188 183 177 168 160 148 131 110 64 28 3 3 6 53 71 106 123 135 151 154 144 153 158 160 160 158 169 159 164 176 172 172 172 172 168 164 171 171 164 166 162 167 164 169 166 167 168 171 169 170 161 
212 213 212 212 210 208 205 209 207 207 205 197 194 185 177 171 170 162 153 129 100 68 26 0 0 5 51 82 105 120 129 141 149 144 145 153 148 155 154 150 156 163 169 168 177 171 163 169 171 164 161 162 160 162 166 164 169 166 162 166 172 173 173 158 
212 213 212 210 207 206 201 205 206 204 201 195 194 185 179 173 171 161 154 129 100 70 17 0 2 4 40 75 103 120 135 136 139 135 141 143 137 139 138 145 147 156 162 164 160 166 166 166 164 164 173 162 162 163 158 158 162 167 171 164 173 169 166 164 
210 212 214 209 201 205 202 204 205 206 204 194 189 179 179 174 172 163 150 122 107 68 14 0 1 2 31 59 94 115 123 128 134 134 138 141 137 133 136 134 131 133 145 159 160 154 155 160 161 166 159 155 160 160 161 167 156 161 169 168 169 157 157 150 
217 213 210 207 201 199 201 201 205 204 195 192 187 183 174 168 159 150 144 131 102 57 6 0 0 1 16 56 88 112 124 133 126 135 145 136 125 125 122 117 116 129 135 145 146 155 150 147 150 157 153 153 153 153 153 154 156 159 155 156 161 156 157 156 
213 212 211 210 201 201 200 198 201 202 196 192 186 176 175 161 157 153 141 123 94 48 5 0 0 2 11 53 82 110 122 136 135 135 134 131 135 123 118 111 106 123 122 132 139 136 145 148 139 145 143 146 144 148 149 150 150 148 149 145 153 149 160 153 
214 212 211 211 207 200 201 198 199 200 196 190 173 169 172 168 163 160 148 128 91 48 3 0 0 0 5 41 68 106 119 117 123 130 132 126 131 119 111 108 118 123 119 117 131 141 141 142 139 136 133 133 131 138 143 149 149 150 141 149 146 145 151 158 
210 208 208 204 201 197 200 202 201 200 195 193 185 181 179 170 162 158 153 130 106 52 7 4 0 2 5 32 71 82 107 128 121 131 136 129 124 122 99 109 103 106 96 112 111 118 134 137 126 124 128 136 129 134 135 144 141 143 147 148 137 141 156 146 
211 209 207 200 200 201 206 208 206 201 195 193 181 175 176 170 168 158 155 133 107 47 8 4 0 3 3 27 56 81 111 121 128 142 135 120 117 110 104 107 98 94 98 104 122 123 131 131 128 124 130 119 120 128 128 129 131 135 133 141 136 143 143 144 
215 210 207 204 202 206 209 209 201 200 195 189 184 177 176 167 173 166 142 139 100 37 10 1 0 1 1 20 49 79 103 123 133 141 137 129 128 112 110 103 94 91 104 96 108 118 121 121 125 113 113 117 124 119 120 133 124 135 132 143 136 141 142 141 
211 210 205 201 198 200 207 204 199 198 195 196 184 177 176 170 170 159 155 135 95 32 6 0 1 0 2 13 41 74 98 108 128 135 131 136 134 121 113 111 111 90 94 91 106 116 118 111 103 105 113 115 118 109 120 124 130 137 125 135 139 142 141 143 
209 205 205 195 198 200 198 199 201 195 196 189 184 176 176 174 171 160 155 143 103 29 4 0 0 1 1 5 35 66 92 105 122 128 128 133 130 125 108 112 107 91 96 97 104 116 115 113 117 107 111 111 106 106 113 111 128 131 129 136 141 134 135 145 
210 207 201 196 196 199 200 199 201 197 196 188 179 174 172 171 173 168 154 144 91 22 7 0 0 0 0 3 39 48 78 104 121 131 131 128 129 120 119 119 110 94 87 96 112 123 115 119 115 109 109 106 113 91 111 118 129 136 134 142 130 134 133 132 
209 202 198 197 197 199 202 196 201 195 193 192 182 177 177 173 166 163 156 137 81 23 2 0 0 0 0 2 10 36 69 91 106 126 131 134 132 128 126 125 123 105 103 100 102 125 132 124 121 120 109 96 102 105 115 117 121 125 133 136 132 125 133 130 
208 204 201 196 198 200 199 196 197 194 190 194 186 180 175 172 171 166 156 128 72 17 1 0 0 0 0 1 3 33 54 71 93 118 117 126 143 130 128 132 123 120 104 115 121 130 128 128 120 119 112 99 102 95 113 116 118 132 143 139 147 139 129 128 
209 201 195 197 196 193 199 198 200 197 196 189 181 179 179 174 171 161 158 131 66 19 5 0 0 2 0 0 0 21 56 77 86 104 112 121 130 132 126 121 132 122 121 97 112 130 135 134 126 118 111 99 99 104 99 113 124 132 141 146 145 142 134 128 
205 204 196 190 192 195 198 195 198 195 194 190 183 177 179 175 171 164 158 119 56 18 4 0 0 0 0 0 2 6 41 62 79 84 100 111 128 132 130 130 124 117 115 106 113 123 129 128 129 115 110 96 99 102 116 124 137 146 151 148 145 149 142 125 
210 207 199 197 190 194 197 193 194 192 192 186 183 182 182 177 172 170 155 112 39 14 1 0 0 0 0 0 3 0 30 53 62 81 83 106 121 134 126 142 136 135 130 121 117 120 126 125 128 122 109 94 94 109 100 121 133 143 146 153 150 147 134 135 
206 206 197 199 196 198 196 196 195 190 192 190 185 179 184 175 171 166 148 106 29 14 0 0 0 0 0 0 3 0 18 46 53 73 70 78 111 124 134 137 136 139 131 122 120 129 134 133 125 122 111 98 94 98 105 119 128 136 146 153 147 137 142 130 
208 205 196 192 194 195 204 198 197 195 196 189 187 185 185 175 175 170 151 104 33 13 0 0 1 0 0 0 1 0 8 33 54 60 69 80 91 103 118 131 139 135 134 125 117 126 125 133 133 118 121 113 95 94 109 123 128 143 146 146 150 145 135 135 
212 201 197 194 192 198 201 197 199 200 198 189 184 186 182 179 175 171 151 84 30 4 0 0 0 0 0 0 2 2 1 20 47 66 69 72 79 98 108 124 133 144 142 130 130 123 122 131 141 128 115 109 105 99 107 120 130 143 137 146 148 144 141 141 
213 206 199 192 190 199 194 198 197 198 190 186 188 184 181 180 180 172 143 72 20 4 0 0 1 0 0 1 0 3 5 7 41 67 64 70 80 81 96 125 128 135 145 139 134 123 122 121 134 130 128 116 113 104 102 119 129 146 146 144 139 147 143 142 
211 205 200 195 196 201 198 195 200 200 198 193 186 184 185 176 179 167 142 48 13 0 0 0 0 0 0 0 1 4 3 2 16 55 65 66 73 68 87 106 112 137 144 144 135 125 124 126 139 139 137 133 120 108 104 112 124 136 145 145 154 145 141 148 
208 204 199 193 195 202 201 200 204 204 196 190 192 188 182 180 173 169 135 45 22 0 0 0 0 0 0 0 0 3 0 0 7 34 64 67 64 70 75 87 107 123 139 137 135 118 111 117 124 135 143 132 115 93 103 102 111 130 145 144 149 148 148 146 
204 198 196 195 193 198 200 202 205 205 201 195 192 186 190 181 173 168 122 43 11 5 0 0 0 0 0 1 0 0 0 1 10 34 59 67 66 88 80 92 96 117 130 134 124 121 110 102 113 122 124 129 113 125 100 95 113 116 137 148 150 148 146 148 
207 199 197 194 195 199 201 205 204 204 202 197 190 189 185 181 181 168 102 39 11 0 0 0 0 1 1 0 0 0 0 0 6 28 49 59 59 64 75 77 94 112 119 128 121 121 110 102 105 119 131 129 123 116 96 98 117 119 137 136 149 146 144 148 
207 202 200 200 201 202 206 204 207 204 199 194 192 187 183 184 180 164 85 30 1 0 0 0 0 0 0 0 1 0 0 1 4 16 37 48 65 67 67 77 91 97 109 126 117 119 107 103 111 109 123 122 120 128 103 99 102 109 126 128 146 145 142 148 
