P2
64 64
255
147 149 148 143 134 125 124 121 128 128 131 135 146 145 153 157 162 161 167 189 182 159 158 139 120 113 105 96 100 100 116 104 116 128 136 142 147 150 144 136 141 132 139 142 134 134 139 141 150 150 149 155 161 164 166 174 187 184 179 180 184 185 189 193 
144 142 153 139 125 124 126 120 128 118 131 135 146 147 154 150 156 169 168 160 168 177 168 157 136 123 120 104 111 107 100 109 122 132 139 144 150 141 145 143 136 142 143 145 145 139 145 139 145 143 155 159 151 157 167 174 175 176 182 179 176 183 184 189 
145 146 154 147 134 134 134 129 120 116 117 134 149 148 157 158 159 167 167 168 175 181 164 158 144 133 116 111 110 108 106 105 115 134 137 149 149 151 149 148 151 154 161 157 154 146 144 139 144 148 145 154 160 162 166 164 175 164 175 172 181 179 185 190 
146 145 145 147 136 135 128 125 111 110 117 124 145 142 148 151 162 161 175 164 166 163 164 148 131 120 112 116 110 97 100 111 115 122 139 142 150 147 151 157 155 161 163 156 163 160 164 156 158 156 163 158 162 168 163 174 170 164 175 180 184 185 181 187 
142 146 156 147 142 131 131 131 115 106 115 118 133 137 150 155 162 170 172 175 174 172 158 150 145 126 106 113 112 111 115 111 118 129 141 142 149 153 147 157 156 162 159 164 166 162 156 157 162 159 162 169 174 169 169 173 177 173 183 183 187 187 185 190 
134 145 139 141 133 128 130 121 121 113 122 125 130 137 148 156 161 167 164 170 170 168 169 174 135 125 108 117 118 113 105 112 115 129 142 134 143 144 147 149 160 164 169 167 166 169 164 159 171 158 160 159 168 173 175 175 175 175 180 176 184 185 182 188 
135 144 134 131 141 137 128 113 119 120 118 126 125 131 142 151 151 164 166 166 172 167 169 156 137 122 102 102 118 113 121 115 111 118 135 136 143 136 147 150 156 160 160 167 163 164 167 171 174 168 164 163 166 172 171 173 175 176 180 175 186 182 185 185 
131 137 128 131 139 143 130 122 112 96 111 120 117 125 134 143 155 163 158 163 158 151 156 155 109 104 95 97 110 117 113 121 130 123 133 143 134 145 141 155 153 166 169 162 168 158 161 164 170 167 170 171 168 174 173 173 179 180 181 177 186 184 186 185 
139 143 141 134 146 144 133 117 112 121 110 110 117 129 128 137 150 156 156 157 158 147 147 126 111 97 85 88 105 112 120 124 121 112 134 143 134 137 141 153 149 155 160 161 156 170 169 164 164 169 173 176 173 179 177 182 184 183 180 181 189 187 188 179 
126 132 134 134 136 149 141 128 123 124 110 104 94 122 123 142 151 158 162 157 153 154 144 132 111 113 93 97 97 100 113 130 115 124 129 139 135 136 145 151 160 153 158 164 161 168 164 169 180 175 171 168 174 179 175 184 180 184 184 177 186 190 188 186 
126 130 143 143 143 141 135 129 124 121 116 111 100 118 125 136 151 156 158 155 148 145 134 126 113 99 85 94 91 106 113 122 122 120 126 143 141 136 148 153 160 160 160 167 167 167 167 170 176 174 173 173 180 179 185 182 182 193 186 184 184 183 185 190 
119 123 139 143 132 133 132 125 115 123 115 117 107 120 130 136 148 153 154 155 142 147 133 123 105 91 86 85 87 98 111 112 124 136 129 136 136 144 153 154 169 162 162 164 166 171 171 177 174 177 180 180 175 179 183 182 185 189 186 181 185 186 183 188 
109 126 141 149 139 141 144 123 126 110 110 117 116 131 133 141 148 151 148 148 143 136 143 129 96 82 79 95 85 94 106 100 116 134 129 136 139 143 148 154 159 155 161 160 161 173 173 174 169 174 180 180 183 175 183 184 183 182 184 184 192 190 190 186 
120 128 136 148 147 138 137 136 121 105 113 124 120 122 130 137 142 145 146 141 149 145 137 123 95 75 88 85 91 100 95 96 115 130 124 132 139 143 148 155 150 158 156 164 164 164 167 174 166 176 180 176 177 180 180 185 185 187 187 187 185 187 185 189 
133 134 146 149 142 133 123 121 115 116 110 109 118 116 134 136 136 148 156 154 144 145 135 118 105 93 78 90 87 99 94 93 110 125 135 120 131 133 149 157 153 151 155 168 170 172 172 172 169 171 172 176 173 170 171 182 183 180 187 187 183 187 182 188 
129 144 143 146 139 139 130 125 113 121 110 120 120 122 135 137 143 145 149 153 150 150 135 104 97 85 85 96 92 86 97 106 118 128 130 137 131 132 145 153 151 154 160 164 159 164 173 169 170 169 172 176 175 170 175 186 183 179 179 184 181 188 185 190 
141 146 148 150 144 134 129 128 122 121 113 113 123 129 134 134 134 159 155 150 150 134 117 104 93 71 85 86 99 97 92 92 94 106 116 119 113 132 141 147 149 150 148 155 159 161 157 170 169 177 177 172 180 176 177 181 185 181 180 174 179 181 184 187 
124 137 146 145 148 142 139 133 137 113 118 131 136 129 137 143 147 149 146 143 141 135 113 96 104 86 81 103 98 100 92 92 102 106 107 112 111 124 133 135 145 145 151 159 146 154 158 168 166 168 173 175 179 172 177 175 180 187 180 179 175 180 181 183 
130 136 149 154 157 147 129 131 123 129 126 123 122 133 143 142 155 155 147 143 135 133 129 99 122 113 83 106 96 100 93 94 116 113 115 115 105 123 128 124 122 130 142 144 156 160 163 158 167 164 170 174 175 171 174 174 182 181 179 175 176 175 177 189 
136 143 149 149 151 143 132 129 124 126 126 125 134 134 142 142 154 150 149 149 141 119 108 91 87 70 86 93 96 102 92 83 85 90 105 104 115 120 125 111 121 130 131 137 147 149 158 161 164 162 176 173 174 172 179 176 180 177 173 172 179 177 179 188 
137 137 146 150 157 150 141 136 128 134 132 134 144 142 148 146 153 163 150 147 134 117 112 92 82 62 71 75 87 90 80 73 90 84 80 87 95 111 104 106 107 116 125 120 135 135 149 157 166 169 170 171 169 174 179 176 179 177 180 179 181 183 187 196 
137 132 147 156 158 151 149 144 137 135 135 130 137 141 139 146 151 150 153 137 133 118 94 94 83 61 74 74 84 85 77 71 66 80 68 75 84 90 84 92 104 102 117 118 129 135 149 153 159 166 166 166 171 171 175 164 180 177 175 177 180 182 187 198 
132 141 147 154 150 153 141 142 139 136 132 131 124 136 148 142 151 147 151 146 133 135 113 109 81 66 75 72 88 84 72 74 72 82 70 70 77 92 85 96 82 92 99 115 132 133 143 147 154 159 166 163 160 174 173 176 177 176 173 179 183 182 190 198 
133 146 146 153 153 149 144 145 143 134 126 126 130 134 141 141 149 150 153 149 139 121 133 108 90 69 60 64 69 71 77 67 60 64 65 74 73 82 86 86 83 87 97 110 124 129 149 150 156 159 166 162 171 167 174 173 180 179 182 177 176 187 193 197 
136 150 147 153 157 158 155 144 144 144 134 137 130 142 132 139 148 148 145 145 144 129 131 112 79 81 58 66 58 57 71 66 72 66 65 70 64 70 85 90 91 98 105 115 124 133 141 142 149 157 163 158 161 170 174 174 177 173 176 174 179 187 195 193 
128 148 148 154 164 163 156 150 144 133 141 129 122 144 136 137 144 146 151 136 134 125 123 103 86 62 49 54 57 59 65 52 57 61 65 80 72 72 75 93 92 87 100 104 129 139 129 130 142 145 151 162 166 159 163 170 181 177 169 177 186 184 190 190 
126 139 137 157 166 160 161 161 153 142 134 131 134 145 144 141 149 142 139 134 136 137 124 103 83 71 59 55 60 49 58 55 52 61 71 71 64 80 92 87 99 99 97 110 109 124 132 143 149 149 156 160 161 169 167 168 181 177 180 183 188 180 192 193 
123 136 138 155 167 159 160 161 156 146 136 139 136 136 148 147 147 141 143 133 141 125 105 105 85 71 54 48 61 53 62 57 53 65 61 65 65 82 83 96 113 100 118 99 119 117 130 142 159 167 161 160 179 170 171 169 176 174 175 180 186 182 192 195 
111 131 141 149 157 167 159 157 146 147 136 141 132 131 146 148 145 135 141 134 141 125 106 87 74 70 48 58 53 56 60 56 62 56 57 61 66 90 84 99 113 98 91 102 117 122 143 149 153 161 170 166 174 174 175 182 180 180 182 181 188 186 192 189 
106 125 134 147 159 167 162 159 148 139 144 141 134 145 146 142 144 144 133 128 129 118 106 90 71 54 53 52 47 52 45 51 57 60 60 67 60 69 83 90 86 95 98 100 120 136 147 148 156 163 176 171 171 174 176 177 179 180 175 177 184 189 193 193 
99 119 139 145 143 154 158 154 139 146 141 138 123 128 148 133 129 133 145 143 122 124 97 90 70 52 44 49 37 43 44 51 45 52 57 56 67 69 77 80 82 94 107 115 126 134 142 153 154 164 166 174 176 177 175 182 183 175 181 186 185 187 195 192 
99 103 123 132 134 145 151 154 146 139 139 139 133 133 141 124 135 126 134 130 128 88 93 73 59 43 41 47 37 33 37 41 48 46 54 52 60 57 62 78 77 85 93 87 106 134 150 151 148 159 164 173 185 181 179 174 179 182 179 182 187 190 193 192 
91 95 109 112 139 144 148 142 147 146 135 122 130 137 120 131 128 131 128 132 104 80 69 66 58 46 35 34 26 31 30 31 45 41 42 55 53 56 55 65 66 79 80 84 97 109 139 151 149 154 157 175 187 190 186 179 171 179 180 186 192 189 192 183 
84 96 97 98 119 119 130 123 130 110 128 122 125 124 121 125 129 126 126 130 96 80 90 65 61 45 33 29 28 29 31 27 39 31 43 42 42 46 51 57 66 70 69 78 85 92 119 124 133 147 156 169 175 185 186 184 181 175 180 188 192 193 183 164 
80 94 95 102 124 109 108 121 97 96 104 104 119 119 130 133 115 107 110 106 95 95 70 67 58 43 51 31 22 30 36 33 28 32 30 37 43 47 44 57 61 53 60 72 70 85 97 120 134 136 156 168 167 180 179 180 182 184 188 186 182 168 156 112 
77 84 92 86 95 103 94 106 92 84 91 98 110 112 98 107 113 113 111 104 94 84 65 61 64 35 24 35 26 29 28 32 28 30 35 31 35 41 43 46 58 49 47 61 60 72 81 100 109 128 139 162 169 159 164 169 174 168 170 164 153 139 105 27 
64 71 86 84 87 90 83 91 92 86 85 100 107 111 105 106 110 105 103 110 83 79 58 57 28 30 14 21 27 15 21 33 33 35 31 30 37 37 31 36 46 54 59 59 52 62 71 86 86 97 118 142 149 149 144 141 143 145 130 123 108 79 22 3 
74 59 73 78 81 77 79 87 82 88 79 92 100 99 96 102 102 100 98 81 86 103 57 59 33 31 20 10 14 23 20 23 24 35 24 33 24 24 34 32 39 48 45 35 35 39 58 54 73 71 77 96 106 110 82 83 80 95 112 173 202 209 200 187 
58 59 57 72 70 69 79 72 85 82 84 81 88 95 95 99 106 99 128 78 61 48 40 13 23 28 7 6 18 15 23 21 17 26 30 30 30 29 27 21 27 27 40 33 27 34 35 45 45 41 47 36 27 24 34 146 196 232 244 245 244 243 238 234 
54 58 65 60 65 69 72 68 74 74 86 74 81 77 95 87 90 86 86 73 117 47 27 9 16 7 4 8 11 11 17 16 22 30 31 31 22 30 29 26 29 21 23 28 17 24 19 22 24 18 8 0 0 3 57 135 172 244 245 245 245 245 241 239 
60 62 66 61 64 64 65 66 70 71 72 66 77 74 87 83 81 66 64 67 71 30 7 10 2 0 2 0 8 11 8 13 15 14 20 17 22 27 31 21 21 17 11 8 0 8 8 5 6 0 0 0 0 19 154 108 212 240 247 245 247 244 247 245 
53 58 58 48 59 70 58 67 66 77 67 74 70 69 81 75 74 67 55 46 33 10 1 0 0 4 0 3 8 13 5 18 21 11 14 17 19 18 14 14 20 18 13 14 8 1 1 0 2 0 0 0 0 5 118 71 200 235 244 235 227 220 218 218 
44 53 48 58 53 58 61 71 60 64 66 77 79 83 77 68 68 55 39 27 17 4 6 4 3 1 2 2 0 4 5 14 10 8 9 20 21 13 11 10 19 17 8 11 14 5 5 1 1 0 0 0 0 0 64 96 200 230 244 239 231 228 202 181 
33 37 36 42 53 46 57 56 59 68 61 73 68 77 71 58 57 36 22 13 4 1 0 0 0 0 5 1 1 3 3 19 19 5 9 17 10 16 11 15 15 10 9 10 1 4 9 1 1 0 0 0 0 0 3 79 188 234 219 174 175 208 232 230 
28 42 36 36 46 52 54 56 64 69 68 65 65 64 66 46 40 15 20 6 3 1 1 0 3 5 2 0 0 0 5 4 2 7 8 11 3 15 10 7 8 14 10 2 4 5 6 4 1 0 0 0 0 0 0 0 11 35 1 0 0 4 65 91 
24 29 39 34 40 49 61 51 65 64 61 65 59 61 51 45 30 19 9 2 0 0 0 0 0 0 3 0 0 0 1 1 0 2 8 7 10 13 8 8 8 6 2 1 2 0 4 0 2 0 0 2 0 0 0 0 0 0 0 0 0 0 0 0 
8 16 26 30 32 45 61 60 57 58 60 62 46 46 40 23 26 9 5 0 0 0 0 1 2 0 0 0 0 0 0 0 0 1 6 0 0 8 1 1 2 0 1 0 0 1 0 0 2 0 0 0 0 0 0 0 0 0 0 0 0 0 0 0 
4 8 13 24 35 36 44 44 58 62 56 51 48 43 29 20 10 1 8 6 5 3 0 1 1 0 2 0 3 0 0 0 2 3 3 0 1 3 1 1 0 0 0 0 2 0 0 0 0 0 0 0 0 0 0 0 0 0 0 0 0 0 0 0 
0 4 15 10 19 31 33 47 52 59 56 46 41 33 27 6 0 0 4 5 9 7 6 0 0 3 5 0 1 0 0 1 1 4 0 0 0 0 0 0 0 0 0 0 0 0 0 0 0 0 0 0 0 0 0 0 0 0 0 0 0 0 0 0 
0 3 7 11 15 36 36 45 48 45 44 33 19 15 8 6 5 3 4 1 6 5 13 3 1 0 0 0 1 2 1 1 0 2 1 0 0 0 0 1 0 0 0 0 0 0 0 0 0 0 0 0 0 0 0 0 0 0 0 0 0 0 6 34 
4 6 11 5 11 32 30 36 32 32 24 13 11 8 5 13 6 10 4 5 5 5 6 11 2 1 0 5 1 1 1 4 6 5 0 2 2 1 4 0 0 0 0 0 0 0 0 0 0 0 0 0 0 0 0 0 0 0 0 0 13 28 58 70 
6 10 18 18 22 26 22 21 16 21 13 14 21 15 19 22 15 14 13 5 8 3 5 3 4 4 1 2 0 0 4 4 0 0 0 0 1 0 2 0 0 0 0 0 0 0 0 0 0 0 0 0 0 0 0 0 0 6 23 35 31 46 51 52 
16 15 9 15 19 29 26 33 30 31 29 29 28 30 27 22 29 30 31 30 35 34 35 29 19 9 9 5 1 2 3 0 1 1 2 1 1 1 1 0 0 0 0 1 0 0 0 0 0 0 0 0 0 0 0 4 17 28 39 41 40 41 44 48 
31 18 22 27 26 40 37 40 45 42 45 49 48 46 47 49 54 60 60 60 67 72 61 65 61 71 57 56 53 45 41 35 28 15 10 7 3 4 3 4 3 0 0 0 0 0 0 0 0 0 0 0 0 1 18 32 36 34 39 43 35 43 52 44 
39 37 43 45 41 40 37 45 49 53 53 46 54 45 47 51 54 59 64 55 66 65 61 59 64 61 58 59 69 59 60 60 59 59 61 57 48 55 42 31 28 15 8 5 5 8 11 10 7 8 24 21 29 28 35 32 31 30 34 35 40 39 45 48 
48 51 45 30 39 35 46 44 47 53 49 52 51 48 46 51 48 51 66 51 56 60 61 53 61 60 61 60 62 53 59 59 55 55 58 57 57 54 61 56 56 57 59 55 51 55 58 49 52 57 60 80 93 100 102 104 93 54 44 36 43 48 54 51 
62 43 32 41 39 41 51 52 49 46 49 46 49 49 48 52 49 49 54 52 60 57 60 58 60 57 58 60 65 58 54 61 59 59 58 56 60 56 57 48 55 57 47 51 48 46 49 49 53 59 75 102 108 122 126 151 171 157 107 71 47 46 48 51 
44 33 35 37 39 42 44 46 44 47 53 45 52 52 55 52 53 53 51 52 57 57 53 59 59 57 66 57 60 57 52 55 55 56 59 51 56 47 51 44 51 48 42 46 42 44 47 54 49 65 79 88 123 135 123 147 181 180 173 150 109 61 41 43 
2 24 41 43 37 43 43 45 41 46 47 51 59 59 61 54 48 47 59 54 54 61 59 65 64 59 57 58 58 58 51 57 52 54 53 52 51 46 45 52 45 48 47 48 47 52 51 57 64 75 90 112 139 130 130 153 167 196 209 182 167 130 62 31 
4 9 29 34 37 37 35 45 51 57 61 56 57 62 61 61 56 52 55 56 62 55 54 56 61 60 64 60 54 58 60 61 54 56 56 47 45 46 51 45 46 42 47 47 49 56 54 68 68 88 104 116 135 137 149 199 211 208 217 226 179 164 136 48 
92 35 21 26 32 33 35 41 42 56 55 66 60 62 68 64 62 56 56 56 56 61 57 61 64 57 65 61 58 53 58 54 51 51 52 47 49 49 40 46 53 46 51 55 59 59 67 71 74 85 100 120 135 166 175 183 200 232 211 219 183 177 170 113 
227 209 147 99 52 30 39 37 37 46 51 58 68 66 69 72 70 69 66 64 56 56 59 60 80 69 66 61 58 61 64 60 52 52 48 47 49 46 49 49 48 53 59 60 66 78 78 81 85 104 123 142 172 187 176 117 43 129 193 197 166 161 174 133 
230 225 223 219 202 155 81 42 36 44 41 42 45 49 58 64 68 69 71 74 70 78 66 68 62 62 65 64 64 58 55 61 59 48 53 54 51 57 55 54 53 55 61 75 85 85 88 94 102 125 151 175 196 209 210 179 135 156 173 193 198 179 190 153 
227 228 227 226 225 220 211 164 68 44 36 46 46 52 54 58 58 66 67 77 77 77 69 68 58 70 66 66 61 68 64 59 62 57 60 53 53 57 56 61 59 66 70 77 93 97 99 110 120 147 162 189 207 222 233 209 190 218 199 206 219 214 209 173 
