P2
64 64
255
109 112 112 113 113 113 115 116 113 113 115 115 115 113 115 115 115 113 113 112 111 112 110 108 109 108 109 107 99 85 90 99 105 107 109 107 109 109 109 110 109 110 109 111 108 109 108 107 106 104 102 102 98 95 96 96 92 84 81 77 64 66 61 56 
222 225 227 226 230 230 230 230 231 231 231 234 230 231 232 231 232 230 230 227 225 226 222 222 215 214 214 206 183 166 180 196 207 214 218 219 220 218 209 186 156 156 157 161 185 189 190 199 201 200 196 195 190 182 180 173 161 153 144 132 129 121 104 103 
221 224 224 225 227 230 232 234 233 234 230 231 230 231 232 228 231 228 228 230 227 224 222 219 211 202 196 181 169 182 194 196 210 219 220 210 175 103 57 42 43 51 52 48 52 54 49 60 75 82 106 117 118 125 116 125 128 122 122 110 104 103 93 100 
220 224 226 227 228 227 233 232 235 237 235 233 232 232 232 230 232 230 232 227 225 223 218 212 198 184 176 176 190 202 204 209 226 234 197 104 59 46 48 47 46 54 57 51 53 53 52 52 55 52 47 53 53 56 52 55 55 71 85 87 92 83 91 147 
220 225 226 227 230 233 233 234 237 236 236 236 235 234 235 234 232 230 231 230 227 219 209 201 181 168 179 198 213 214 217 227 239 198 86 58 43 45 46 49 51 54 56 49 55 54 55 54 52 48 52 54 58 58 52 53 48 52 55 60 66 74 119 192 
215 223 227 228 232 231 235 236 237 237 239 243 240 240 238 237 237 234 233 228 224 218 198 174 169 181 197 210 219 218 226 234 202 91 52 49 47 44 46 55 49 46 51 48 54 52 55 56 61 57 55 57 54 60 58 54 52 57 55 53 58 56 69 139 
214 220 226 228 228 231 235 235 238 239 243 244 245 246 245 241 238 237 232 224 218 201 183 173 184 198 213 219 220 228 231 181 93 66 48 47 44 47 48 52 52 46 53 57 54 48 56 54 57 52 58 54 56 58 48 58 56 54 60 59 64 62 55 57 
219 225 226 227 227 232 235 237 237 239 241 245 245 246 246 241 239 238 230 215 198 176 173 188 206 217 218 224 230 221 135 91 77 61 52 53 51 44 48 48 48 51 54 47 52 49 58 57 54 55 56 53 54 60 54 58 55 60 64 60 58 61 59 57 
219 225 227 231 228 232 232 231 224 210 205 183 158 145 151 182 207 226 214 199 182 176 194 208 218 224 221 218 151 70 51 67 66 62 55 52 52 51 52 51 54 53 48 53 56 55 53 59 58 56 58 56 56 54 53 55 59 60 58 58 54 58 64 58 
221 226 230 232 227 211 159 99 67 40 39 39 35 36 40 35 34 75 99 142 180 200 215 225 225 224 199 84 36 30 40 45 45 59 48 49 46 46 52 54 54 53 51 53 56 51 55 56 53 57 59 56 58 55 57 57 60 59 57 62 57 58 55 64 
221 224 224 197 106 40 37 27 32 34 41 37 37 41 43 40 40 41 39 40 68 126 189 215 200 136 74 51 48 46 48 47 46 48 43 49 47 47 49 53 53 52 48 49 56 56 53 49 49 53 58 56 56 59 53 60 62 62 55 57 55 62 62 55 
215 214 167 68 43 37 35 33 34 37 39 40 39 41 41 42 42 41 41 37 43 41 36 45 46 46 46 44 48 46 48 46 47 52 45 45 49 48 49 54 49 54 53 55 52 49 54 53 52 55 61 55 55 60 59 56 57 55 62 59 64 59 62 61 
198 154 68 42 31 36 32 35 33 36 39 40 40 40 43 39 40 37 36 42 44 47 47 40 45 44 43 41 40 43 46 46 48 47 47 47 49 47 53 56 56 53 49 53 51 52 54 55 56 56 57 57 57 59 53 54 61 55 60 59 64 65 61 59 
150 67 41 40 36 37 35 33 40 42 42 42 44 46 45 47 42 43 41 41 43 45 47 42 39 42 44 40 44 41 52 52 51 51 47 54 52 53 49 51 51 48 54 55 53 54 58 51 57 57 56 59 56 57 58 61 53 60 60 62 60 57 57 61 
87 44 37 34 34 36 34 41 43 44 37 42 41 43 44 48 42 41 44 40 46 44 41 42 44 45 47 42 52 52 49 51 47 47 58 56 51 51 46 53 51 48 51 54 57 54 53 55 60 57 57 58 59 55 55 57 56 55 57 58 59 60 60 62 
46 36 29 31 33 41 42 41 41 44 42 42 37 42 43 45 46 45 44 43 36 41 46 40 45 60 44 44 44 43 44 52 45 47 48 60 52 54 52 53 55 58 56 51 54 55 56 53 58 53 55 55 61 58 56 56 55 53 56 60 55 55 61 59 
42 33 31 35 33 36 34 44 34 40 41 37 39 42 40 43 42 43 42 43 36 41 43 41 37 43 45 47 46 45 45 47 47 46 51 54 51 45 45 53 48 56 54 52 53 52 52 55 57 54 56 54 55 55 54 57 58 54 54 58 57 54 60 56 
41 33 33 34 40 37 36 40 37 37 44 42 43 42 44 42 41 41 36 40 36 39 39 37 43 42 36 42 42 43 43 47 46 47 48 48 48 47 51 51 48 46 51 46 52 51 51 53 56 56 56 54 55 57 57 55 58 56 57 60 58 59 57 54 
32 36 35 32 33 33 33 42 35 39 42 41 41 46 43 40 41 39 39 41 41 36 35 39 48 44 43 39 41 43 42 44 43 47 47 48 46 49 42 49 49 53 48 47 47 51 49 47 52 51 52 53 49 52 55 59 56 58 56 57 58 57 61 55 
34 41 33 34 33 33 32 37 40 42 40 42 40 39 37 39 39 37 44 42 44 42 39 41 41 43 42 43 41 44 37 45 47 44 48 49 52 47 51 47 52 49 51 51 54 51 51 54 48 51 51 54 49 51 56 48 57 58 60 54 59 56 65 59 
36 36 39 32 36 31 33 36 41 44 37 40 37 40 40 40 35 39 34 43 42 40 41 42 42 41 43 37 41 39 42 40 47 46 44 46 52 51 46 48 49 49 49 53 57 52 54 54 46 47 48 46 54 52 46 52 56 60 56 58 57 56 57 60 
36 30 40 36 35 33 31 34 43 39 39 37 36 36 36 39 34 35 42 42 42 39 39 40 41 39 35 37 37 45 44 43 41 42 42 43 45 47 51 49 45 48 47 49 48 52 49 49 47 45 45 51 47 49 52 54 57 53 53 57 57 56 58 55 
35 31 42 30 28 40 36 34 41 37 41 37 40 41 43 42 45 41 40 37 36 41 39 42 39 40 41 41 85 68 42 37 44 44 47 44 47 48 52 46 47 51 47 54 48 51 49 49 53 45 46 47 47 46 48 51 56 54 54 67 56 55 59 58 
33 32 35 32 29 40 34 41 40 39 35 40 43 37 40 44 41 41 42 37 42 37 37 39 44 39 66 103 153 132 83 47 45 48 47 45 48 48 46 49 52 51 53 49 51 48 51 56 48 52 65 48 40 47 45 48 45 49 53 56 53 53 54 55 
34 37 34 34 33 35 36 40 37 34 34 36 39 37 41 39 39 37 35 40 37 40 42 39 40 44 134 156 177 145 128 125 59 49 49 52 46 48 47 53 51 49 52 51 51 53 57 56 54 51 57 48 43 47 47 43 41 46 49 51 51 53 53 55 
32 39 37 33 33 34 37 37 35 35 51 41 39 42 39 42 37 41 40 43 40 46 40 46 53 111 154 174 167 208 221 188 97 52 49 47 51 49 46 48 51 53 53 51 55 57 58 56 62 55 52 59 49 46 44 44 44 47 48 55 49 52 52 52 
33 39 34 31 33 31 34 35 34 35 36 35 44 39 35 41 33 39 37 42 44 44 47 44 66 161 175 180 205 230 211 198 80 45 47 47 51 44 49 45 46 49 49 52 55 55 60 71 60 62 60 54 52 46 45 47 52 51 48 51 51 52 57 49 
39 37 35 35 36 32 29 32 33 37 34 37 35 35 37 39 39 36 39 44 45 47 45 44 139 168 195 192 235 220 204 149 56 49 47 49 44 45 45 44 43 43 51 54 59 56 61 55 52 52 55 51 51 48 46 46 44 46 48 54 55 56 54 51 
34 33 40 34 36 34 33 32 34 35 37 39 36 36 37 34 34 41 51 46 48 47 44 83 163 190 195 221 236 210 196 87 52 47 47 46 44 42 42 47 44 48 56 59 61 56 59 52 54 52 52 47 46 53 51 47 49 46 52 51 55 52 55 54 
36 33 35 36 30 36 33 32 42 36 39 45 39 33 34 33 32 46 46 43 51 51 48 139 174 194 204 236 217 214 167 51 44 45 46 44 46 48 46 43 44 40 48 52 60 58 57 53 52 52 48 53 47 48 48 45 49 51 45 51 53 51 54 53 
35 35 34 36 32 33 33 36 39 37 37 40 36 40 39 33 34 46 42 46 51 52 111 156 190 187 231 232 217 201 83 44 43 44 45 40 44 44 47 47 44 39 42 42 46 52 55 52 51 47 52 51 44 45 46 51 47 46 47 48 55 53 52 59 
34 33 35 34 39 34 30 36 35 37 33 34 37 39 37 35 40 40 61 57 59 88 149 167 194 212 234 223 201 137 48 43 46 42 44 47 48 51 46 44 42 45 48 52 43 44 52 55 53 52 42 48 44 47 46 48 49 45 54 47 49 57 51 56 
34 34 39 33 36 33 29 34 37 33 33 35 29 26 32 33 48 51 61 66 77 156 155 185 193 230 236 210 196 60 42 40 42 41 39 44 47 53 49 47 46 45 51 47 48 49 49 49 48 46 44 48 44 47 45 47 48 46 53 48 52 51 48 55 
34 34 35 35 34 31 35 35 31 36 34 32 31 37 33 33 47 56 52 61 134 154 175 197 201 228 220 207 143 46 43 44 46 44 43 46 52 47 48 47 47 51 48 48 51 40 45 52 45 45 49 48 47 49 47 48 46 46 48 47 51 54 52 51 
35 35 35 36 36 36 33 34 32 36 34 34 39 35 36 36 45 57 67 106 148 159 194 208 215 224 219 198 67 41 43 44 44 44 48 46 44 45 46 48 46 49 51 48 45 45 46 47 44 49 52 44 44 47 46 46 49 47 45 48 44 55 48 53 
34 37 33 37 35 35 34 37 36 33 35 28 33 35 34 35 41 58 80 128 105 129 188 215 220 222 206 144 48 48 41 45 42 47 47 46 54 55 42 46 45 53 44 49 48 53 49 43 46 45 46 44 43 46 44 52 46 49 44 52 51 49 55 54 
40 33 36 33 37 35 34 35 35 30 32 31 37 37 34 34 34 48 139 132 143 174 202 208 194 208 200 71 46 42 42 42 49 45 46 52 53 49 46 52 46 51 52 47 56 56 51 49 46 48 48 46 43 48 46 52 51 51 52 46 49 47 53 53 
37 32 34 37 36 37 36 35 34 30 31 35 32 29 28 34 35 92 145 134 157 196 218 228 230 215 159 47 42 44 39 47 45 46 43 46 49 49 47 51 46 53 54 66 80 55 48 49 46 48 48 46 46 49 53 52 52 54 52 51 48 48 47 54 
37 33 34 35 36 35 34 30 32 34 30 32 29 32 31 37 53 149 125 144 181 204 224 224 211 179 72 46 41 43 41 36 45 46 46 44 49 47 52 48 48 59 81 111 68 49 52 46 46 48 49 51 51 51 48 55 48 51 51 49 51 49 49 53 
37 32 35 31 34 32 32 31 32 33 37 32 31 35 32 39 112 146 125 164 197 204 209 211 200 104 46 42 42 41 44 43 42 43 43 45 49 47 48 51 47 54 51 49 45 48 49 51 48 46 45 51 47 46 47 51 52 51 52 48 51 54 54 51 
31 31 39 30 35 34 39 31 31 32 29 34 32 41 40 80 126 129 130 158 210 209 218 217 161 55 48 41 39 40 41 45 43 46 47 43 49 48 47 48 49 48 53 51 53 53 49 55 54 47 44 53 51 46 48 53 51 53 53 53 53 55 54 56 
37 39 36 32 35 33 41 29 33 34 27 29 32 31 36 121 148 126 139 177 197 217 218 206 97 53 41 44 45 36 45 39 40 43 45 43 45 44 51 53 51 51 54 53 48 54 54 56 55 43 47 49 49 54 48 45 57 56 55 52 48 55 57 58 
44 36 42 35 37 35 36 35 35 33 32 32 35 35 90 159 142 166 186 199 213 210 212 134 58 47 42 41 42 36 43 42 40 43 43 41 46 46 52 48 46 49 53 54 53 52 55 48 49 52 45 53 46 52 49 53 52 52 55 56 56 55 60 58 
33 34 39 39 37 35 33 31 35 36 31 32 35 36 144 157 164 171 192 204 227 212 207 86 56 49 45 46 44 44 41 37 42 41 41 45 48 45 44 46 51 52 53 56 52 56 54 56 52 53 48 48 48 51 57 48 53 51 49 55 57 59 56 55 
40 34 34 34 36 33 33 29 34 31 26 30 31 71 162 157 173 179 196 214 222 212 171 67 58 46 47 46 44 45 45 39 46 43 45 45 48 43 49 48 52 55 51 54 56 57 48 53 49 49 49 45 44 48 51 47 53 52 48 54 60 56 52 59 
35 36 33 37 36 34 32 31 31 29 31 31 32 131 162 164 185 208 219 222 221 212 137 58 54 46 47 43 45 42 43 44 41 44 47 44 47 52 52 53 48 52 53 51 55 56 55 51 49 49 47 44 44 54 52 51 52 52 53 54 55 53 55 55 
36 39 34 39 33 34 34 33 30 31 32 28 53 161 155 168 186 208 221 231 222 217 103 56 56 52 46 43 43 47 46 46 42 43 46 45 51 47 46 46 49 47 54 52 52 53 53 54 54 52 49 47 43 47 52 48 51 54 57 59 58 61 57 54 
31 41 39 35 34 35 31 29 27 29 30 32 115 158 154 177 196 215 225 222 217 207 65 59 59 56 51 43 44 44 43 43 41 47 42 46 46 46 47 51 48 47 52 47 53 54 58 56 55 62 57 54 42 49 51 51 47 54 49 53 52 57 55 53 
35 31 33 36 32 36 32 32 32 29 27 42 157 144 163 184 202 220 230 225 222 169 62 58 54 58 59 49 46 47 45 47 43 47 44 44 46 47 47 49 48 51 54 51 52 57 62 69 74 73 66 55 46 49 53 55 51 52 52 57 60 57 53 57 
35 34 32 35 39 36 33 32 35 34 33 90 162 159 181 194 202 210 220 223 217 148 62 53 55 55 53 47 43 43 44 43 40 44 45 45 47 48 45 48 48 51 55 56 55 68 85 97 87 96 86 67 51 44 47 53 47 51 49 55 55 57 55 60 
34 34 30 30 31 34 31 31 30 34 35 157 159 173 177 202 213 215 222 221 221 122 60 54 60 59 56 49 44 42 42 43 44 44 45 47 47 48 48 52 53 52 54 55 57 79 73 100 132 147 147 102 61 48 46 45 49 55 49 58 57 53 51 52 
32 32 35 36 34 30 33 35 32 36 73 150 162 175 185 204 220 225 232 221 215 86 61 58 65 59 54 48 53 44 48 44 49 45 47 45 46 46 49 56 58 54 49 48 60 73 93 93 94 110 126 130 66 46 44 61 46 48 53 48 49 52 52 57 
30 30 32 34 36 30 31 32 36 41 135 141 124 186 193 215 225 217 226 224 206 71 61 59 61 59 53 49 44 45 42 45 44 46 46 48 48 45 49 56 52 54 53 57 61 72 79 84 95 111 131 151 102 46 46 65 49 47 52 45 49 56 58 58 
31 34 35 30 30 30 32 35 36 70 166 156 163 180 183 209 233 230 223 222 194 67 65 65 70 62 60 55 45 45 45 45 49 49 48 47 49 48 54 49 52 52 53 54 64 62 67 69 70 86 119 157 143 62 43 45 44 44 49 49 54 47 46 54 
33 31 33 36 32 36 35 34 34 117 169 161 181 202 185 210 224 226 232 225 198 69 67 65 60 67 64 57 45 46 47 46 44 47 54 53 45 46 45 52 56 56 55 56 56 59 59 57 49 67 92 113 157 113 51 45 44 48 46 49 51 49 51 53 
32 27 31 34 35 30 34 36 82 161 170 173 200 198 205 228 227 230 235 223 212 82 65 62 70 68 66 54 49 47 46 44 43 48 49 58 54 47 52 54 53 58 58 59 55 55 54 52 57 54 71 93 124 111 55 42 42 48 46 51 51 52 48 53 
32 30 31 34 34 34 37 100 164 150 161 181 194 188 208 223 233 227 233 225 227 132 62 58 65 64 59 56 49 52 52 44 46 51 52 53 52 49 53 48 56 54 58 55 52 58 58 55 54 54 56 60 75 122 136 55 43 51 48 48 51 53 52 51 
30 31 33 35 34 35 125 160 175 137 138 183 198 192 213 222 234 231 237 226 230 187 69 66 65 55 54 46 47 45 52 46 45 47 52 51 43 48 53 52 55 56 53 53 59 64 58 57 51 49 54 58 56 73 157 87 52 49 53 46 51 51 53 47 
29 31 33 34 34 91 154 172 174 169 170 188 200 192 204 223 235 225 241 230 230 219 85 65 64 56 52 48 52 51 42 46 43 48 51 45 44 45 48 51 55 52 51 53 56 59 59 57 56 53 55 53 54 66 119 160 51 49 46 46 49 45 52 53 
33 33 37 42 60 125 136 153 169 166 186 202 205 197 206 225 233 228 240 231 231 228 123 70 57 57 55 52 47 48 45 47 45 51 49 49 46 48 52 52 55 53 51 52 58 58 56 58 56 53 56 54 48 52 64 145 75 49 45 49 53 51 52 54 
33 37 41 40 92 164 183 168 130 162 192 201 207 206 208 222 230 235 241 236 235 230 150 68 54 48 47 44 44 42 45 43 44 44 46 47 44 51 52 48 56 54 52 49 55 58 60 59 54 52 58 53 51 52 57 122 138 48 42 46 49 51 53 55 
59 106 64 33 105 155 167 210 177 167 197 205 205 210 202 212 230 236 240 232 226 226 176 77 51 53 51 46 45 44 43 42 45 44 48 52 43 46 47 51 51 51 51 53 59 57 61 64 59 53 57 54 53 55 54 72 176 55 46 44 53 51 48 52 
81 95 51 16 155 159 174 153 135 166 197 201 209 212 208 209 217 238 237 228 224 225 199 156 99 61 52 46 47 44 41 41 45 48 47 48 48 49 48 49 51 49 53 52 58 56 56 65 61 62 61 60 60 55 56 52 145 93 57 46 52 46 51 51 
123 126 69 20 91 150 120 97 69 161 195 199 202 194 205 222 215 228 232 226 211 209 212 200 195 168 65 56 40 40 41 42 40 47 48 45 49 48 46 51 47 56 55 52 56 58 58 69 77 71 81 71 58 52 56 53 93 137 79 44 47 46 54 51 
