P2
64 64
255
34 65 58 48 31 30 29 24 22 20 20 23 15 17 18 15 17 18 14 16 18 15 22 24 15 16 20 18 15 15 15 20 21 21 22 15 15 16 17 11 11 6 6 6 112 162 184 201 210 206 201 204 198 198 198 197 194 197 196 193 200 197 199 202 
28 52 41 34 31 27 31 26 26 29 20 24 18 21 18 14 14 14 10 15 14 19 13 16 11 14 16 21 14 16 16 19 16 14 14 16 14 20 14 10 11 11 4 4 120 169 186 198 205 206 201 201 200 201 198 199 198 200 196 197 200 197 197 202 
18 37 35 33 30 29 26 26 23 22 21 31 20 18 16 16 13 10 15 15 13 15 10 15 19 17 19 19 15 16 17 19 16 10 8 13 16 15 10 7 13 11 8 2 117 162 185 197 196 201 204 200 195 197 196 195 197 198 193 193 199 199 202 205 
19 36 40 32 30 34 28 27 29 22 23 22 26 18 18 14 14 16 15 18 14 14 17 15 11 15 17 19 16 18 20 19 13 17 17 15 11 16 8 10 9 8 6 5 125 166 183 193 201 200 204 199 197 197 196 194 196 194 195 198 199 199 204 204 
17 40 32 34 34 29 29 24 26 20 27 28 23 23 20 21 11 15 16 14 14 16 10 15 18 18 20 15 19 17 21 14 15 15 16 13 14 15 10 9 10 9 6 7 128 173 186 197 202 202 201 198 199 197 196 197 193 197 197 194 201 201 205 205 
17 33 35 33 31 34 31 30 36 32 29 28 24 23 22 20 18 15 10 9 11 11 13 14 19 21 20 19 24 21 14 15 15 13 14 14 13 9 13 13 11 10 9 14 129 170 186 194 200 200 204 198 199 195 195 198 195 196 193 195 197 199 205 206 
15 26 34 36 40 37 36 36 33 31 29 22 29 28 26 19 17 14 11 13 17 14 16 9 15 21 20 21 24 18 21 9 14 13 13 13 13 14 10 11 13 14 16 23 123 168 192 192 194 201 198 198 198 197 193 197 195 193 198 196 197 199 205 207 
15 32 34 33 36 36 34 37 29 30 21 27 24 24 22 17 24 14 17 8 10 10 14 10 13 16 24 19 24 18 21 18 17 14 13 10 10 18 11 11 20 15 14 19 135 171 192 195 195 198 201 200 197 196 196 194 198 196 194 196 198 204 210 207 
15 33 29 32 31 34 36 33 30 27 30 27 23 30 27 24 22 19 17 18 11 15 15 14 16 24 23 24 21 29 22 15 13 14 14 14 14 18 14 16 17 10 8 22 146 176 189 197 196 201 199 199 201 199 195 194 196 198 195 199 200 202 204 210 
13 34 34 29 30 28 30 30 35 32 28 29 29 22 28 24 23 20 19 19 18 15 16 18 18 21 23 30 27 27 22 15 10 7 17 11 17 10 16 18 17 18 11 26 141 176 192 192 199 207 200 201 201 195 197 197 196 196 198 197 201 205 209 209 
13 24 32 31 26 27 27 31 33 39 32 31 29 28 24 23 29 23 29 22 17 19 15 17 24 22 28 30 22 22 18 11 13 13 19 11 15 15 13 16 8 9 6 42 142 174 190 197 202 202 204 201 201 196 196 200 199 198 199 200 204 204 206 209 
11 26 29 31 29 22 21 27 32 36 28 30 27 23 21 32 27 27 31 28 19 17 24 18 23 23 28 34 23 20 17 9 14 13 16 19 14 13 18 16 6 7 9 60 139 179 192 197 202 204 200 195 196 195 195 195 197 198 194 198 202 205 202 208 
14 28 26 26 30 21 22 22 24 33 33 30 29 24 28 33 32 26 29 23 20 15 17 18 14 22 30 30 23 19 17 15 22 18 18 18 10 15 11 9 11 8 4 80 143 175 194 200 207 202 196 195 196 197 194 195 197 198 196 199 196 202 204 207 
13 29 29 28 29 26 24 24 24 31 27 35 33 27 26 28 32 29 24 27 20 20 17 15 17 21 29 31 22 20 14 18 27 14 16 10 15 10 11 11 6 4 4 106 146 177 188 199 211 206 198 198 195 198 195 195 197 195 197 199 200 202 205 210 
13 28 26 26 32 27 26 29 27 24 23 28 27 31 32 30 33 30 30 28 20 18 23 15 17 21 24 26 20 20 22 13 16 9 18 11 13 15 1 6 5 6 3 122 148 176 190 199 208 201 198 198 196 197 196 196 199 196 198 197 199 205 205 206 
14 29 23 22 27 33 32 26 23 27 33 26 26 29 24 29 32 28 26 27 22 16 15 16 17 15 23 24 19 16 20 15 15 13 11 11 13 9 10 2 2 2 1 133 147 182 193 200 210 202 198 197 190 195 198 197 199 197 198 198 205 202 202 209 
15 30 22 27 22 28 27 19 21 30 23 27 26 27 27 23 28 24 30 23 17 20 19 13 15 16 19 20 21 17 17 18 16 15 14 11 11 5 6 6 1 2 7 145 148 183 196 205 208 201 198 200 193 195 198 198 196 194 200 198 201 207 208 212 
15 32 29 26 19 20 26 21 24 24 21 23 22 29 24 21 27 30 22 24 19 17 16 15 20 19 18 22 22 20 17 16 16 13 5 14 11 3 3 2 3 0 17 160 147 186 196 207 208 200 198 197 196 198 197 200 197 198 199 202 207 207 208 211 
17 27 24 19 18 18 21 18 18 26 22 19 20 23 27 22 26 28 22 22 22 15 19 16 21 16 14 15 24 20 18 14 13 15 8 4 9 8 4 3 4 1 36 160 147 184 195 209 206 204 205 200 197 199 196 198 194 197 198 201 206 208 210 209 
15 31 21 24 19 22 20 16 16 16 22 14 15 24 23 26 24 27 23 21 14 20 22 14 19 19 17 21 17 18 17 16 11 10 6 5 11 11 1 7 1 0 48 160 149 185 200 210 206 196 198 195 194 195 196 198 198 198 199 198 204 207 213 209 
20 31 27 22 20 21 19 23 26 18 20 20 17 22 20 24 22 27 20 24 21 26 20 13 18 14 17 14 15 17 15 18 15 10 15 6 8 3 2 4 0 0 59 163 150 186 202 209 204 198 195 195 197 199 197 198 194 200 196 200 205 209 211 209 
16 33 26 16 18 17 17 18 22 22 14 16 19 17 24 22 23 24 23 22 19 23 20 13 11 18 14 11 18 16 16 15 11 8 4 8 3 4 2 1 0 1 78 158 149 188 201 208 202 198 197 196 196 196 194 195 195 201 201 201 205 204 209 211 
17 23 24 23 19 19 20 20 20 20 22 19 17 21 22 23 26 26 20 20 20 17 18 23 17 19 22 19 15 16 14 17 7 8 8 14 7 2 5 0 2 0 102 159 156 185 198 208 205 201 198 194 198 196 193 197 199 199 200 206 207 209 209 210 
15 28 28 22 20 21 21 20 21 15 18 14 14 20 23 21 23 20 21 17 23 20 15 18 17 16 13 16 10 15 13 14 10 5 6 3 2 4 3 0 0 0 131 151 162 193 201 206 200 197 197 197 197 193 198 195 200 200 201 202 207 210 210 211 
17 29 27 23 20 22 23 28 24 18 15 13 14 6 9 19 21 21 22 18 20 16 20 13 19 13 14 13 8 13 15 14 8 7 8 7 2 4 4 0 0 6 154 157 166 190 200 205 197 196 196 192 197 196 195 192 197 196 200 210 207 205 213 212 
19 33 24 22 24 24 20 22 24 18 19 21 18 6 10 7 17 21 20 22 21 26 14 14 17 14 11 13 14 11 8 10 10 7 11 6 1 1 2 2 1 36 164 153 168 193 198 205 198 200 199 198 197 195 194 198 200 201 204 205 207 208 211 213 
17 30 23 28 21 22 24 24 22 18 19 14 13 11 9 0 11 17 21 20 19 17 14 17 17 16 11 11 7 5 2 7 7 6 9 6 0 2 0 0 0 51 167 153 173 190 197 206 200 200 196 196 195 194 197 196 196 199 201 207 208 209 210 214 
14 30 26 23 23 26 21 21 21 23 22 20 16 13 11 1 0 14 21 17 19 18 20 23 19 11 10 11 4 1 0 2 3 4 0 0 0 0 0 0 0 77 168 148 175 189 197 207 201 201 196 195 197 199 197 197 199 202 202 206 206 208 210 211 
17 30 27 26 23 22 26 27 27 26 20 23 15 13 8 5 2 3 18 21 18 21 20 16 15 11 7 2 0 0 0 0 0 6 1 3 0 1 0 0 0 100 181 154 180 186 201 207 204 198 195 199 199 195 202 199 199 200 206 208 204 207 210 212 
16 35 31 27 24 21 24 27 22 23 27 26 23 11 11 7 3 0 2 13 15 15 18 20 18 14 1 0 0 0 6 15 32 48 86 84 94 84 40 0 0 116 162 154 184 187 195 198 202 200 198 200 195 198 198 199 206 200 207 208 204 205 211 215 
20 33 24 27 24 29 20 23 18 30 26 31 22 21 11 5 2 3 0 0 10 11 10 14 3 1 1 8 35 55 87 93 84 94 109 149 135 106 36 0 5 129 159 146 180 184 194 205 200 193 194 196 198 199 199 200 201 202 206 204 205 207 212 212 
16 30 28 22 22 28 26 23 24 29 32 30 24 18 11 11 4 1 0 0 0 1 8 8 7 31 35 65 102 86 90 85 86 82 92 80 31 14 3 0 41 149 160 157 182 186 194 200 196 194 187 196 195 193 198 199 201 204 206 204 204 207 209 214 
17 35 24 26 23 19 22 20 26 23 27 30 24 17 16 7 5 0 2 0 0 4 43 51 90 128 121 70 27 10 24 55 78 86 83 15 2 0 0 0 56 163 169 163 184 185 198 197 198 190 195 197 194 199 197 199 202 200 205 204 202 210 209 212 
17 31 24 24 22 16 22 21 20 20 27 26 21 16 15 5 0 0 1 0 6 54 68 92 118 119 74 29 13 6 20 42 74 88 41 7 0 0 0 0 72 157 163 166 185 189 196 199 200 198 199 202 197 198 195 201 202 205 207 206 205 209 211 213 
16 31 24 29 22 29 20 19 22 19 23 23 21 19 14 8 2 2 2 21 84 74 87 51 31 44 32 21 32 19 19 17 41 65 28 16 8 2 0 0 86 164 166 167 188 193 198 204 204 195 198 196 195 199 196 202 206 208 208 207 209 211 211 217 
14 28 23 24 28 23 20 22 23 16 22 19 13 16 14 6 2 1 60 103 55 65 23 1 1 42 73 95 103 44 23 39 62 83 55 35 26 2 5 29 119 162 158 170 188 190 194 197 197 199 197 198 197 194 196 200 202 205 206 206 206 208 214 213 
14 27 20 21 21 27 26 20 21 24 20 15 17 9 4 3 8 98 156 115 48 16 18 11 24 98 144 167 154 100 102 110 144 150 108 29 13 3 9 18 142 170 166 174 193 195 197 197 197 194 192 197 196 196 195 196 200 204 206 204 206 206 212 210 
11 23 29 28 30 23 22 21 21 22 19 16 11 8 6 9 88 139 98 67 32 14 22 35 129 143 136 115 115 84 74 111 144 133 97 16 10 5 0 16 155 170 163 180 192 192 199 199 198 196 198 200 197 194 200 204 202 207 209 208 210 211 217 212 
9 21 23 23 27 24 22 24 23 28 17 19 20 17 8 37 99 94 57 23 30 9 35 110 162 119 62 44 30 22 23 67 82 54 57 7 3 3 2 27 162 172 166 182 192 199 197 200 201 201 199 195 205 198 199 206 205 205 208 209 213 211 215 212 
10 22 20 20 20 23 20 20 21 19 16 18 15 9 14 68 70 53 14 2 0 23 120 163 125 56 41 98 59 10 6 7 17 30 33 7 4 20 42 54 161 172 162 187 194 199 199 200 197 201 198 193 198 198 200 204 204 210 208 207 208 211 212 210 
7 20 22 21 21 20 13 14 17 15 10 15 6 14 61 79 48 29 10 8 0 53 149 123 53 27 125 173 119 42 40 56 64 24 7 0 7 0 10 68 166 172 159 187 196 202 199 200 198 197 199 192 193 199 202 204 205 205 206 209 209 212 212 204 
5 20 24 18 21 13 10 9 10 10 13 8 2 32 97 115 35 19 23 7 4 81 121 81 16 36 151 158 156 94 55 74 131 70 13 23 75 33 0 70 163 172 167 186 196 206 201 197 196 199 198 194 195 193 200 207 204 206 206 207 211 211 212 210 
7 15 14 14 17 14 15 11 9 14 9 9 33 87 105 79 35 17 22 0 36 125 133 57 6 66 141 155 154 136 97 92 93 17 9 37 54 1 0 81 168 171 166 190 195 206 202 196 197 198 196 195 196 194 200 207 208 210 208 210 208 211 213 213 
13 21 22 20 15 17 15 8 15 11 6 30 109 107 77 46 16 22 9 5 93 139 131 58 19 77 122 131 141 164 132 131 118 30 9 20 6 0 2 103 167 172 160 184 195 205 202 200 199 201 197 198 201 199 202 206 210 206 209 209 208 213 211 209 
16 31 40 31 26 20 17 17 14 7 10 17 42 22 11 13 9 2 0 14 108 160 141 79 55 74 121 99 139 150 136 119 134 96 46 53 15 5 2 144 164 174 166 186 197 204 199 201 196 197 199 195 194 196 206 206 207 205 205 210 208 212 213 213 
17 31 39 32 32 26 18 19 23 20 22 22 14 17 16 6 4 0 2 11 97 142 136 92 77 56 123 125 136 157 137 115 78 64 84 72 7 33 11 148 166 175 166 193 199 200 200 197 196 200 193 199 201 199 204 202 205 206 205 209 213 208 206 211 
15 32 32 26 22 24 17 22 22 24 18 22 14 32 49 19 6 0 2 21 81 97 104 75 54 32 80 112 131 148 130 105 102 118 139 69 9 42 11 157 166 177 167 193 199 201 200 192 195 193 192 195 196 197 201 206 209 206 210 211 211 214 209 211 
14 23 26 26 23 18 19 21 21 17 17 18 9 14 55 37 29 1 22 40 79 79 61 61 64 32 61 110 126 150 151 132 108 145 136 56 33 16 41 153 168 179 170 190 200 199 198 195 198 196 190 196 196 198 204 206 207 208 207 209 210 212 210 214 
6 17 22 22 17 21 19 22 16 16 13 13 7 11 24 34 21 5 6 8 61 67 24 49 83 49 79 109 126 139 115 102 119 163 145 36 19 1 48 158 172 177 164 187 202 204 199 195 194 193 192 195 193 202 206 210 212 206 210 207 211 214 213 210 
3 14 15 14 18 20 15 15 20 18 14 13 13 5 15 30 33 15 8 2 48 62 27 42 117 53 104 123 130 113 135 145 148 151 136 77 75 23 55 163 176 179 164 190 198 205 199 198 201 195 193 200 195 201 205 207 207 207 212 210 209 211 211 210 
6 16 13 16 19 18 18 17 16 23 17 9 9 5 7 23 35 17 19 7 27 48 24 15 84 107 123 123 130 143 161 161 158 105 70 116 147 64 97 159 168 177 167 189 199 204 197 192 199 196 194 195 198 202 205 207 209 206 209 207 210 212 210 212 
5 11 6 15 10 13 14 20 15 16 11 10 6 8 1 19 36 31 39 36 10 36 43 5 19 86 115 92 99 116 133 147 113 47 13 54 106 104 133 161 170 173 164 186 198 204 202 199 198 195 198 198 198 201 206 208 207 207 213 209 212 213 212 209 
1 2 13 9 15 14 7 17 7 9 9 11 4 1 0 1 10 32 19 14 2 27 44 13 4 52 62 49 33 65 88 106 82 61 10 67 59 54 120 166 170 174 167 188 197 204 196 196 197 198 200 199 201 204 207 213 209 209 212 208 214 211 211 213 
0 0 2 6 11 10 10 13 9 4 10 6 1 0 0 0 0 6 5 1 1 7 26 47 64 60 66 71 80 57 59 77 52 35 23 10 17 32 125 177 180 184 164 192 198 208 205 195 199 199 199 199 199 202 204 206 207 207 211 211 217 214 215 211 
0 0 1 0 0 3 4 4 5 0 3 1 0 1 1 0 1 10 10 2 9 17 54 57 52 55 61 61 57 51 67 44 34 5 0 2 0 0 135 173 182 179 170 194 199 205 201 198 201 197 198 199 199 206 207 209 208 210 211 211 217 212 215 211 
0 0 39 9 0 0 0 0 0 0 0 0 0 1 1 6 21 23 23 20 21 29 36 30 23 24 39 54 70 74 86 21 24 28 6 6 6 2 148 174 175 179 172 190 196 201 201 198 198 197 200 199 199 205 208 208 207 210 212 210 212 211 211 206 
0 0 0 0 0 0 3 0 0 0 0 1 5 5 9 14 17 21 20 24 30 27 9 9 17 21 32 48 53 52 44 27 54 45 29 20 9 20 164 183 182 182 172 193 196 204 196 198 196 197 202 199 197 204 207 207 206 212 212 214 215 212 213 209 
0 0 0 0 0 0 1 2 0 0 0 1 6 7 10 17 14 16 20 19 22 15 20 15 28 40 34 42 17 33 16 14 10 14 0 0 0 33 174 184 176 177 172 189 197 204 202 200 198 198 198 200 201 205 208 211 206 211 210 211 213 213 214 211 
2 2 0 0 0 0 0 4 0 0 0 0 0 7 9 11 13 16 13 13 18 16 32 33 62 88 78 64 28 5 4 28 34 24 24 18 31 74 176 176 180 186 173 189 195 204 202 202 197 197 200 200 201 205 208 208 208 211 209 213 209 213 212 210 
7 7 6 2 0 0 1 0 0 0 0 0 0 6 4 4 15 9 11 15 16 17 19 49 87 115 87 79 49 9 4 11 14 8 21 9 14 80 179 181 183 181 169 193 200 200 204 202 196 199 201 202 206 205 208 209 208 208 212 211 210 212 211 212 
8 22 13 18 9 7 3 0 0 0 0 0 0 0 3 1 8 3 4 8 11 13 11 21 85 102 70 37 7 3 2 46 55 46 34 30 3 102 182 182 181 181 171 189 193 205 201 204 197 199 199 202 202 207 210 210 209 213 213 210 207 213 212 210 
16 23 26 30 24 26 20 17 2 0 0 0 1 0 0 4 3 3 5 4 8 11 7 13 36 40 7 3 10 41 73 104 88 52 45 43 34 142 183 184 183 181 168 189 197 201 201 205 199 198 197 204 206 205 207 207 211 211 210 214 212 214 214 208 
18 35 35 39 40 37 35 32 16 15 1 0 0 0 0 0 0 1 3 4 7 7 2 7 8 1 0 0 8 31 79 121 120 86 61 39 19 159 182 184 181 177 171 194 194 204 204 202 197 204 202 205 207 206 208 208 210 213 212 213 212 212 209 208 
19 37 46 47 53 60 49 45 43 28 19 10 0 0 0 0 0 1 0 4 5 2 7 7 3 0 0 0 0 16 34 37 51 60 28 5 20 166 180 183 184 177 172 188 195 195 196 204 197 198 199 204 206 206 209 210 210 209 212 211 211 213 210 208 
