P2
64 64
255
35 62 32 13 1 3 4 1 95 170 168 182 189 202 200 204 188 186 197 199 210 218 227 239 237 235 238 236 233 228 217 164 118 147 158 196 206 208 182 142 132 150 146 163 218 194 71 58 54 52 51 60 69 78 93 116 146 163 170 185 194 198 199 201 
84 67 43 40 23 23 0 41 158 164 172 179 190 184 196 201 193 199 202 214 224 219 220 239 238 239 238 236 233 230 224 228 172 88 153 209 223 204 142 99 84 98 162 181 213 180 73 47 48 57 61 65 81 92 109 142 150 166 168 182 184 196 196 205 
151 120 56 46 28 13 10 109 166 171 177 185 199 190 197 189 187 193 196 207 218 222 223 237 239 238 239 238 234 228 228 225 233 142 129 182 200 143 95 113 169 199 174 182 189 70 35 54 51 57 61 68 83 107 126 141 158 164 172 190 198 196 200 197 
193 162 103 47 17 18 28 143 166 175 182 190 174 176 204 192 189 199 199 207 212 212 227 235 239 239 236 239 237 234 222 225 227 207 88 150 170 175 164 181 207 211 160 145 169 24 55 58 61 69 70 83 85 124 146 164 173 181 190 198 202 206 207 211 
206 170 123 26 18 9 18 137 172 184 183 209 186 205 214 198 195 196 197 210 219 228 236 235 240 241 238 233 235 234 230 227 228 198 143 144 204 225 228 162 204 192 135 130 126 20 59 71 59 70 75 88 113 143 159 157 172 184 195 198 198 205 209 210 
220 201 144 39 35 15 10 104 149 169 195 204 187 213 215 206 198 201 202 199 208 219 220 228 241 239 236 226 221 232 235 235 234 217 190 122 172 195 209 150 174 122 122 163 83 42 58 67 77 103 113 126 131 141 148 170 170 177 180 193 196 205 210 212 
224 219 206 200 170 117 46 35 113 163 188 177 209 218 218 213 202 200 208 209 215 215 211 226 237 234 233 228 219 213 228 238 244 239 156 123 172 194 193 209 209 160 168 187 83 67 71 92 102 111 121 133 135 141 149 171 169 174 174 186 195 199 209 206 
219 223 219 218 188 188 128 34 47 168 172 185 223 208 205 208 206 206 212 214 219 215 212 230 235 232 233 231 225 212 220 230 227 219 194 176 205 206 213 200 200 172 202 230 93 64 92 102 125 130 131 132 134 136 153 156 166 179 181 194 196 196 204 206 
158 189 194 200 201 205 197 160 64 174 182 196 214 193 190 190 187 196 209 213 224 220 222 235 237 240 238 238 221 220 231 209 155 126 185 214 211 212 213 200 200 207 233 194 37 81 107 123 128 133 141 155 159 159 162 164 174 180 188 197 201 205 205 206 
42 149 197 197 201 206 214 196 192 208 224 218 208 163 119 157 162 194 200 206 201 205 222 235 232 244 231 243 239 201 195 155 173 183 195 200 209 219 215 215 222 219 123 27 40 113 130 142 151 147 144 149 155 151 161 167 176 184 193 200 204 207 207 207 
0 7 90 141 160 154 167 189 209 211 209 207 196 181 134 192 207 222 219 222 224 208 196 209 207 225 228 241 237 168 95 155 161 155 161 196 226 240 240 227 139 41 1 2 47 117 142 155 157 155 144 139 139 136 148 166 182 186 189 201 205 207 209 207 
21 9 8 19 65 105 157 175 163 149 179 185 226 224 211 205 206 225 230 237 230 238 226 224 194 193 204 212 219 153 148 154 177 148 194 219 235 197 120 174 135 28 5 6 35 91 135 133 136 125 125 117 111 121 151 173 184 184 198 202 205 213 208 211 
171 181 186 193 186 162 135 134 75 46 95 163 209 235 223 218 218 211 204 213 224 218 202 205 200 208 220 226 226 198 171 183 222 232 233 204 159 55 93 70 214 149 21 14 15 52 98 108 108 95 98 100 116 146 164 181 187 185 195 199 202 209 210 215 
185 185 194 198 195 202 194 194 195 184 180 172 182 195 186 181 179 180 193 185 190 198 209 221 240 243 226 212 204 163 125 144 201 208 196 176 162 142 151 110 174 166 84 64 44 61 86 110 132 145 159 174 177 177 174 171 192 192 195 199 204 212 209 212 
190 189 188 190 193 194 193 185 182 181 183 183 189 186 197 208 207 198 146 71 119 124 84 87 106 151 154 153 148 141 180 193 183 151 143 156 164 177 182 186 185 198 204 204 209 201 198 198 199 195 187 175 179 185 186 190 192 197 198 196 198 200 202 211 
190 197 197 187 198 192 184 189 177 186 193 198 202 195 201 204 202 211 224 220 142 46 4 0 0 23 100 130 148 153 143 138 158 156 167 171 176 181 186 187 184 188 183 194 192 188 188 186 185 195 200 199 194 200 197 207 201 202 208 202 202 208 207 212 
193 196 196 197 197 193 188 193 181 189 195 194 201 201 197 196 194 199 204 208 219 195 55 3 0 0 28 119 125 108 121 136 136 155 162 176 186 188 190 206 204 195 195 202 204 199 201 206 204 198 209 210 202 208 197 202 202 204 205 201 205 205 209 211 
192 197 192 189 194 193 193 186 189 195 195 199 197 201 201 196 194 208 202 202 211 214 198 60 4 14 60 117 107 116 141 141 150 162 172 181 195 194 199 204 211 212 202 204 206 210 205 202 209 202 204 204 210 208 206 204 200 201 204 204 205 202 206 205 
193 193 197 195 198 195 196 196 198 202 201 199 202 198 198 198 206 209 202 209 209 206 210 195 143 85 92 113 137 144 156 156 155 161 174 181 188 195 198 205 209 208 204 205 205 206 209 208 207 208 206 206 207 207 211 204 210 204 209 207 197 206 205 208 
190 201 198 197 197 202 202 206 204 208 201 207 205 204 205 199 204 208 202 207 211 208 208 187 193 130 92 129 148 155 153 156 157 169 174 176 188 195 194 199 208 206 211 206 205 205 207 209 207 209 206 207 209 210 206 211 205 207 206 204 204 204 204 202 
201 194 193 194 198 205 201 204 208 206 204 209 200 205 207 206 208 205 208 210 208 212 211 200 177 116 75 133 148 150 158 160 161 166 177 172 176 192 197 196 207 201 206 210 206 206 207 212 208 208 206 204 206 209 211 212 213 212 211 207 210 209 213 209 
190 188 194 192 194 198 202 206 204 201 201 201 199 199 206 204 209 213 214 212 210 211 206 206 196 166 100 129 147 150 154 162 160 170 183 184 181 186 196 195 202 209 212 208 208 208 207 214 213 212 208 209 209 213 214 219 223 222 219 223 223 218 211 208 
192 194 190 192 196 193 200 205 202 206 197 195 198 201 201 207 211 219 226 227 215 212 210 207 197 185 122 112 136 145 134 159 164 170 176 185 189 190 190 198 201 207 206 209 218 215 214 212 218 219 222 222 220 224 228 232 232 233 234 234 233 227 217 214 
195 190 189 188 195 195 204 206 201 200 197 198 197 201 204 207 219 231 236 236 232 228 220 218 201 187 139 107 130 144 151 151 169 177 173 185 188 187 187 194 195 204 211 211 212 213 208 213 219 227 238 239 238 238 239 241 241 241 243 241 240 233 228 214 
197 185 184 187 205 196 204 202 205 198 198 204 199 208 204 212 225 238 243 243 241 239 237 227 212 192 135 121 135 145 149 158 162 171 179 182 173 181 188 195 198 198 207 207 202 207 206 211 223 219 232 244 246 246 246 245 245 245 244 244 243 240 236 219 
195 196 189 188 195 195 200 201 199 198 198 200 202 200 202 217 231 238 241 245 245 243 241 237 231 217 153 119 137 143 151 153 162 170 169 177 173 174 182 188 201 200 202 206 205 207 199 202 214 227 228 241 246 247 247 247 246 246 245 245 243 240 233 222 
188 188 194 199 198 196 197 196 193 200 201 196 196 207 205 212 228 240 244 245 246 246 244 243 239 233 171 118 139 146 155 161 167 175 171 162 171 181 177 186 198 198 201 205 207 210 205 206 210 219 227 237 245 247 246 246 246 244 243 244 241 235 228 219 
197 193 192 189 194 199 197 194 194 194 205 202 204 210 208 220 227 240 245 245 245 245 245 243 243 239 179 106 142 145 151 158 158 163 172 159 168 174 179 183 190 190 202 205 205 209 213 210 212 215 224 234 244 246 244 245 244 243 240 238 231 230 220 210 
195 190 196 194 199 205 197 186 190 196 199 206 205 212 217 221 231 240 244 244 244 244 244 245 244 240 190 113 124 143 156 157 160 156 160 160 162 176 174 177 184 193 194 199 206 201 211 212 212 218 224 232 236 243 241 241 240 235 235 231 223 223 212 209 
188 187 186 189 195 195 195 190 196 195 195 205 215 221 224 230 228 237 241 244 244 243 244 246 244 238 201 119 121 139 156 154 158 153 159 155 164 170 171 180 183 188 187 193 200 202 205 211 212 221 220 228 231 235 236 234 234 234 230 223 215 212 208 207 
186 187 188 188 189 196 195 193 196 195 201 211 221 220 222 224 228 235 236 240 241 243 244 244 241 235 206 144 111 132 146 148 146 145 155 157 158 168 170 172 182 183 187 190 195 201 200 202 207 212 215 220 221 222 224 230 231 225 223 215 210 208 206 208 
192 186 181 187 190 190 193 196 202 198 206 213 221 224 223 225 226 226 228 234 237 234 236 239 239 234 210 161 125 137 139 141 142 143 145 154 159 159 158 175 176 179 183 194 197 194 196 194 199 205 211 210 211 219 219 221 222 220 212 210 204 200 205 211 
183 183 179 183 187 195 198 200 200 201 210 211 218 219 220 221 222 218 215 218 221 221 227 233 233 228 215 174 137 129 134 145 155 137 149 148 155 150 162 167 171 175 181 188 192 194 192 183 189 196 201 202 204 207 213 212 217 206 208 207 209 205 202 210 
176 172 176 182 184 195 198 199 199 204 207 210 208 213 213 213 213 209 207 212 212 223 225 230 226 224 215 184 137 129 130 139 145 136 146 145 156 150 155 159 166 173 177 185 179 185 188 186 187 194 193 194 200 196 200 209 210 208 207 205 206 202 202 207 
173 168 177 180 190 194 197 199 196 202 208 205 202 207 210 209 208 204 205 209 213 219 223 220 220 220 214 188 148 120 125 139 139 139 137 146 156 150 156 161 162 181 182 186 184 183 189 186 186 185 189 194 193 194 192 202 204 202 207 205 207 202 202 201 
170 170 184 184 187 190 188 197 193 197 202 198 194 195 205 200 200 202 202 204 206 213 209 210 207 206 201 176 144 128 135 129 139 132 137 146 145 151 148 159 167 172 173 185 182 184 189 185 188 186 187 188 192 192 193 201 204 202 207 209 202 200 202 204 
163 170 177 188 189 192 189 195 195 194 196 199 196 194 198 197 197 207 207 202 201 206 202 207 199 202 197 185 156 141 132 129 131 132 134 146 153 164 157 156 169 173 174 174 179 185 185 185 184 182 184 181 189 196 194 199 200 205 205 202 202 201 199 202 
155 163 173 180 190 188 189 193 188 197 198 198 196 197 201 198 198 199 195 200 201 204 205 199 202 197 188 170 155 136 122 129 133 145 138 143 150 156 161 155 159 167 174 180 173 180 184 182 180 182 189 186 189 190 192 199 198 200 199 202 201 200 201 199 
159 159 169 180 182 183 194 188 187 193 193 197 197 194 196 198 193 196 200 199 196 196 201 200 196 190 186 172 153 143 133 133 130 145 143 156 159 159 162 155 167 172 170 172 174 180 176 174 181 180 184 186 189 195 193 199 196 199 199 200 200 201 197 196 
156 168 166 176 183 186 183 187 183 194 189 195 190 195 192 189 197 196 192 193 194 192 194 195 189 184 175 160 154 142 133 133 137 137 145 154 158 156 156 159 164 161 166 174 174 175 175 173 179 177 183 187 185 189 196 197 199 199 200 198 196 198 194 197 
154 163 162 170 177 182 184 192 180 188 194 190 185 190 185 187 183 189 188 189 187 193 194 189 186 180 166 158 154 144 135 136 141 134 139 153 158 155 149 142 156 158 167 172 171 176 169 174 177 177 179 184 188 190 193 193 196 199 197 199 192 197 198 196 
156 159 160 168 175 176 180 185 186 181 187 189 187 190 183 185 186 177 180 181 177 190 181 181 183 179 164 160 150 143 131 125 136 132 133 149 146 153 146 149 151 154 161 166 167 169 166 171 174 180 177 180 181 184 189 188 190 193 194 189 194 198 197 196 
154 160 156 170 167 169 180 186 186 177 189 189 183 193 186 179 187 184 182 182 181 183 187 177 180 179 169 153 160 144 136 133 137 141 136 153 153 151 153 146 148 160 163 162 167 170 164 170 170 167 169 174 177 176 181 185 186 190 187 192 189 196 195 196 
157 160 151 163 160 171 174 181 181 177 184 187 188 190 187 186 182 185 182 179 175 182 186 176 171 166 164 159 151 147 143 144 141 136 144 147 156 155 149 154 157 163 171 163 161 172 171 172 171 177 177 175 185 183 185 187 184 185 186 185 186 194 188 193 
150 161 158 157 158 168 171 173 175 174 186 188 189 187 187 181 184 185 182 185 183 184 181 177 174 168 158 164 155 149 151 142 135 149 159 156 155 151 149 149 149 156 169 168 164 161 162 174 174 173 179 181 181 180 189 187 187 186 187 189 187 196 196 195 
145 153 161 162 168 161 161 180 182 188 183 187 188 185 184 180 179 176 182 184 180 184 188 179 179 172 161 161 158 151 151 143 137 161 159 159 166 156 157 148 153 163 164 162 160 162 167 164 171 172 172 174 180 183 182 189 187 185 184 183 188 188 189 199 
144 158 153 146 157 160 164 172 179 182 182 182 183 184 180 176 176 176 175 177 184 183 184 177 169 163 160 164 158 153 151 155 151 148 158 166 158 158 156 153 150 159 163 163 158 160 171 163 171 173 171 172 176 174 182 185 182 177 181 183 185 189 189 196 
148 148 147 153 159 157 168 172 175 174 185 182 180 183 175 179 173 172 176 175 179 181 174 172 155 157 154 149 141 151 153 150 148 154 155 155 145 151 148 153 151 158 160 161 161 164 166 169 173 171 169 169 176 180 175 182 181 180 187 182 182 187 189 192 
151 143 139 153 157 159 161 166 172 177 184 184 180 180 176 179 177 176 180 171 175 172 170 164 166 149 150 149 144 142 146 145 146 148 158 161 141 151 148 160 159 157 158 168 157 154 159 159 164 173 174 173 172 173 175 181 183 182 187 181 189 190 189 192 
132 139 142 151 151 157 159 163 169 174 182 186 181 182 184 180 181 183 181 176 176 173 172 164 160 144 144 143 142 145 145 147 153 149 156 160 170 161 157 162 161 154 164 164 161 150 158 159 168 173 173 172 173 173 172 184 181 182 185 182 192 184 190 189 
145 144 137 148 149 156 161 166 162 167 176 179 185 183 180 179 179 180 177 181 174 174 170 169 150 142 142 141 137 142 147 149 151 156 159 166 161 158 157 160 166 161 168 157 162 153 162 167 168 174 174 171 171 182 177 176 181 180 177 175 181 183 185 188 
136 136 136 136 142 147 157 156 161 170 176 183 183 176 174 188 180 182 179 180 172 174 168 158 153 142 131 130 121 133 136 145 147 153 155 163 163 160 149 157 160 159 161 164 157 156 161 159 162 170 176 171 181 182 182 180 173 179 175 174 180 181 188 189 
137 138 133 135 146 147 157 158 166 166 176 183 175 174 182 188 182 180 183 181 174 169 163 160 146 130 134 132 118 136 134 134 144 151 157 161 156 155 158 162 164 158 158 166 162 159 159 159 162 168 171 172 175 176 180 181 179 177 174 177 175 181 183 186 
131 126 130 131 135 146 147 149 161 163 173 175 176 174 181 183 174 180 182 180 173 169 163 158 147 132 121 122 122 124 135 142 138 142 153 157 157 154 157 154 162 164 159 163 159 155 157 162 166 166 171 169 171 171 171 172 172 176 177 177 172 174 185 181 
136 128 118 131 134 135 137 144 151 162 170 174 172 176 175 179 173 175 180 176 173 173 168 156 132 131 118 122 115 133 128 133 137 138 151 156 159 159 156 159 166 167 164 163 161 159 161 161 170 168 171 170 176 167 171 176 173 177 171 180 171 176 183 182 
133 131 123 130 134 132 135 149 151 158 168 172 163 164 173 175 173 175 174 177 170 164 167 157 135 122 109 112 116 124 128 130 135 137 146 159 162 159 148 161 160 160 159 166 166 159 161 160 167 163 167 166 172 167 167 174 171 179 174 175 173 176 177 183 
134 120 116 131 125 128 135 139 148 158 170 174 174 169 174 172 176 181 171 176 168 167 159 150 136 123 106 100 106 118 122 124 130 136 133 153 154 153 157 155 156 157 158 155 161 158 157 159 171 170 170 166 167 167 164 171 176 180 181 180 180 181 180 184 
138 119 124 119 115 122 138 141 143 153 175 179 179 172 176 176 180 180 176 171 171 164 157 153 141 118 102 119 108 105 117 122 129 131 125 136 148 149 145 147 153 151 160 153 154 149 157 157 159 166 164 160 164 162 163 170 175 183 177 173 175 176 176 181 
130 125 111 118 121 132 134 136 129 148 153 168 167 168 173 169 175 179 179 170 170 161 155 135 128 111 98 112 105 112 129 128 121 120 123 139 145 147 147 146 148 153 153 157 153 147 156 163 166 164 168 164 164 171 169 171 173 176 185 174 175 176 182 185 
147 133 128 121 125 123 129 136 137 148 154 157 169 170 167 166 170 175 173 168 170 154 153 137 120 104 97 96 104 108 121 121 125 117 117 135 128 138 137 136 143 148 147 155 146 153 153 162 161 164 162 163 172 172 173 172 182 176 172 174 182 176 187 184 
146 138 136 120 128 132 124 130 138 141 137 153 160 163 164 169 168 166 158 163 167 154 141 131 112 100 99 92 106 108 107 107 112 108 117 129 130 133 119 125 120 126 144 148 143 147 150 156 157 164 159 167 171 177 176 174 173 181 179 177 181 181 185 188 
151 147 133 131 121 125 118 121 130 136 144 150 155 160 169 173 167 167 168 166 161 156 139 130 113 92 94 84 99 100 104 105 116 119 121 135 138 135 130 121 121 130 137 143 142 147 153 157 151 163 159 163 162 170 174 168 174 182 179 179 177 177 183 190 
146 149 146 136 131 116 113 112 121 129 136 147 146 151 160 171 167 166 167 166 163 162 146 131 115 99 102 100 102 108 106 113 110 110 124 139 142 136 141 134 123 128 139 141 145 148 156 151 157 160 159 168 167 168 166 168 179 180 181 180 180 181 184 186 
145 151 149 147 145 120 115 124 117 120 130 145 143 142 155 158 161 157 164 169 166 161 155 145 118 97 99 93 110 104 118 119 118 128 126 136 141 148 145 143 131 121 132 141 139 148 150 153 158 159 163 173 171 167 171 174 189 183 180 182 177 183 185 192 
