P2
64 64
255
200 199 204 199 199 197 185 214 245 247 246 244 233 211 199 189 156 44 3 0 3 22 55 74 86 96 109 99 92 97 95 96 96 91 82 82 74 67 74 66 69 55 41 51 68 56 61 62 65 44 35 36 34 37 37 37 45 44 40 45 37 40 45 47 
199 207 204 201 197 196 199 195 214 248 249 246 234 210 199 197 170 45 0 0 0 11 42 67 82 83 92 88 88 86 86 91 83 77 72 66 55 59 64 55 55 46 45 56 51 54 60 60 40 32 33 32 36 40 40 42 43 44 43 41 42 43 43 46 
205 208 209 209 205 202 202 211 204 210 247 246 235 212 200 196 177 66 1 1 0 3 17 56 65 73 77 71 78 75 74 70 62 64 52 46 41 37 34 35 36 36 49 49 53 49 46 39 31 34 32 39 40 41 37 43 43 49 45 44 45 41 42 44 
213 208 208 209 210 205 208 206 208 198 212 246 232 212 204 200 180 80 3 0 0 1 19 44 46 67 69 57 56 61 68 62 52 47 42 43 37 31 32 21 34 47 49 48 40 36 41 39 36 33 37 36 47 43 43 41 45 44 44 49 46 44 48 48 
215 217 214 214 212 211 206 204 201 209 200 227 233 210 205 202 184 80 2 0 0 4 7 31 39 46 52 60 56 58 56 56 51 39 34 37 26 24 22 24 36 41 39 39 34 35 37 33 37 35 40 39 44 47 43 43 42 42 47 44 47 44 44 44 
209 211 210 215 215 218 212 209 201 204 218 199 226 208 204 200 180 68 0 0 0 0 5 20 39 47 48 49 44 53 53 46 42 40 31 27 22 18 16 31 37 31 32 36 34 33 30 36 36 37 39 46 46 41 40 46 47 46 46 46 47 41 47 46 
207 210 213 213 217 222 212 212 209 209 210 215 192 204 197 192 180 55 0 0 2 1 9 21 31 40 26 47 47 44 42 42 37 31 33 17 20 17 30 32 33 35 33 36 34 33 31 35 44 39 40 37 44 39 40 45 45 39 46 49 44 52 44 53 
207 208 209 213 214 214 218 217 209 207 209 207 210 188 194 190 164 42 1 0 0 0 2 14 16 30 35 36 35 39 41 36 33 26 20 17 14 30 34 28 28 35 41 36 34 33 36 42 42 44 41 42 46 45 39 42 40 41 44 66 42 45 48 56 
208 207 212 209 214 218 214 222 222 213 209 208 212 196 190 182 154 23 2 0 0 0 3 8 11 29 37 32 34 33 28 34 24 23 16 6 20 27 26 28 29 32 35 33 37 41 41 43 46 44 40 42 40 45 42 45 43 42 41 44 44 48 46 46 
217 212 214 212 212 214 214 220 213 218 207 208 208 212 184 175 135 17 0 0 0 0 0 2 16 26 26 22 32 27 24 21 11 9 7 15 26 28 23 24 33 33 35 33 41 41 39 34 42 42 37 39 41 43 35 40 43 39 40 42 46 49 46 47 
214 218 218 220 215 221 215 219 218 217 218 211 207 211 195 163 111 4 0 0 0 0 0 1 2 4 10 17 20 29 32 15 11 8 13 20 28 26 28 30 30 32 35 45 42 42 44 39 36 44 39 34 39 37 37 37 40 39 42 41 45 46 44 58 
214 219 219 222 221 223 217 217 217 217 212 220 210 209 205 145 82 4 0 0 0 0 0 0 0 5 9 7 10 21 16 9 7 5 29 34 27 31 32 35 34 29 36 39 42 44 43 41 42 45 41 42 40 36 39 40 39 35 35 45 42 46 46 48 
219 215 219 218 220 221 225 227 222 219 219 217 210 208 212 153 73 3 0 0 0 0 0 3 2 0 3 2 5 2 9 4 0 23 30 30 31 35 35 37 33 32 32 35 41 46 37 41 45 43 40 36 37 42 39 45 42 41 44 44 42 45 65 68 
215 219 222 220 228 228 223 225 225 218 217 217 215 208 211 169 51 2 0 1 0 0 0 0 0 0 1 3 2 0 6 0 10 37 39 34 35 31 31 28 31 33 36 39 40 41 41 42 44 43 44 39 42 40 43 42 40 39 44 42 43 54 69 81 
211 215 226 224 230 231 231 227 222 220 220 214 214 209 209 195 43 4 0 0 2 8 0 0 0 0 0 0 1 0 0 1 32 46 43 36 39 33 33 30 33 31 39 39 41 39 40 45 43 40 44 39 43 41 42 39 44 40 39 37 67 57 61 105 
213 218 222 226 228 231 233 231 225 222 221 215 212 211 209 204 62 10 0 0 0 0 0 0 0 0 0 0 0 1 0 18 54 36 35 37 37 33 33 37 45 36 44 39 42 42 43 42 43 41 44 46 43 43 44 43 41 39 40 36 44 75 78 124 
232 215 218 222 226 232 233 233 228 224 220 215 211 212 210 205 82 7 2 0 0 0 0 0 0 1 0 0 0 0 9 47 55 33 35 33 36 41 39 36 40 37 33 37 41 46 51 45 44 42 48 45 45 46 44 45 39 47 40 44 56 86 108 139 
214 224 212 221 225 230 234 234 232 224 221 215 212 212 205 204 108 9 0 0 0 0 2 0 0 0 0 0 0 3 43 59 42 34 33 32 32 39 39 32 39 37 42 39 40 45 39 47 45 44 42 51 45 40 46 44 42 41 46 47 91 113 137 174 
206 221 218 222 225 231 227 222 231 222 218 217 215 210 202 201 134 6 0 0 0 0 0 0 0 0 0 0 0 19 62 45 40 34 32 32 34 39 42 36 36 43 39 41 34 45 43 43 53 47 48 48 48 42 43 44 39 46 49 62 118 162 183 199 
211 215 222 225 226 227 231 234 228 220 217 215 218 212 204 199 154 15 0 0 1 1 0 0 0 0 0 0 10 46 43 31 34 32 33 34 33 32 41 40 45 37 44 40 41 36 45 48 59 65 49 47 52 51 44 47 49 53 64 100 164 195 202 209 
206 213 219 228 225 227 228 231 231 224 218 219 223 214 206 201 171 15 0 0 0 0 0 0 0 0 0 1 32 42 34 30 28 26 36 34 42 35 39 36 39 41 40 42 45 44 42 44 43 53 53 51 53 52 48 52 58 59 97 157 196 213 221 224 
211 218 218 219 226 228 227 231 227 224 219 222 224 219 208 199 181 18 0 0 0 0 0 0 0 0 0 23 44 31 27 32 28 32 27 30 32 35 36 42 34 40 34 46 47 42 43 42 49 52 51 52 51 48 44 51 66 74 119 185 218 227 236 238 
208 210 211 213 223 231 224 228 227 226 222 220 223 221 202 199 185 22 0 0 1 0 0 0 0 0 17 41 35 36 29 27 24 27 31 36 31 39 42 39 40 39 42 43 45 41 40 44 44 43 47 45 52 45 45 58 75 83 157 193 226 238 238 244 
213 214 213 218 222 231 225 227 224 224 220 217 221 217 204 196 186 24 3 0 0 0 0 0 0 3 36 35 31 24 29 31 28 33 34 33 35 35 37 43 43 39 43 40 40 39 37 48 44 44 46 54 51 51 60 68 69 104 176 208 230 239 244 240 
214 213 215 218 219 227 223 223 222 221 221 213 219 217 207 196 187 28 5 0 0 0 0 0 2 28 40 37 30 22 20 30 33 28 28 33 32 39 42 44 43 45 47 44 44 42 44 48 45 47 49 55 52 46 64 84 91 151 195 212 235 243 246 241 
212 211 213 212 218 225 222 225 219 218 213 215 218 212 202 198 190 32 5 0 0 0 0 0 18 28 35 29 29 20 26 34 29 23 34 32 35 35 40 46 45 45 45 42 44 40 46 47 48 46 45 45 48 49 73 106 113 170 201 221 237 245 245 237 
213 208 214 211 211 223 224 221 218 214 211 215 217 207 200 196 186 27 5 0 0 0 0 2 33 32 30 29 32 26 23 22 26 23 31 30 36 36 44 44 44 45 47 44 42 43 43 40 48 48 45 48 53 55 69 144 168 175 206 230 244 245 240 230 
206 204 207 212 217 215 224 221 213 217 211 212 214 204 198 199 186 28 3 0 3 2 0 17 28 30 26 21 26 27 29 26 31 31 29 35 37 37 43 47 46 49 47 43 45 41 43 45 52 45 44 48 44 60 85 132 187 202 209 237 244 244 236 215 
201 204 208 208 212 215 222 220 211 214 214 214 211 207 199 197 181 23 8 4 0 1 5 23 32 27 22 28 31 34 30 32 33 33 35 35 34 37 45 45 54 51 46 47 45 55 49 48 48 52 51 51 55 64 85 148 198 213 225 243 248 238 228 197 
205 206 211 210 210 213 218 219 214 214 213 213 209 202 206 196 179 22 6 7 4 4 15 23 27 21 29 23 27 26 36 31 35 33 39 34 35 37 37 45 48 52 51 47 48 44 47 47 52 47 54 51 54 58 83 139 183 221 230 238 241 231 215 168 
204 206 202 204 211 208 214 215 212 214 215 211 207 204 204 196 174 16 2 0 0 0 14 24 21 20 24 30 23 32 31 34 40 34 37 36 40 41 40 45 51 52 49 53 48 51 43 46 49 47 49 54 64 61 98 156 194 215 227 236 231 220 195 122 
207 206 204 205 211 208 211 212 213 212 208 211 204 202 204 199 162 14 0 0 1 1 29 18 18 22 23 24 27 28 29 34 41 43 39 37 44 42 39 43 47 47 51 49 46 46 45 46 51 56 49 60 57 92 104 162 197 215 219 221 214 196 136 84 
202 205 204 201 206 207 209 210 211 210 208 209 204 206 204 197 149 9 0 0 0 5 16 17 13 9 20 27 23 29 28 33 39 41 35 36 42 39 41 48 51 48 46 48 48 46 42 51 59 56 59 58 64 94 136 179 197 213 211 210 190 153 81 56 
204 206 202 202 207 206 207 206 211 205 205 206 206 205 208 200 123 7 0 0 0 14 18 17 18 17 15 21 19 30 31 32 35 44 40 45 40 40 42 43 44 47 46 47 51 48 47 55 54 49 56 58 81 118 159 183 196 207 206 192 156 96 65 51 
201 202 200 201 207 202 201 209 207 206 204 202 208 204 201 198 103 6 0 0 0 5 15 15 11 14 15 19 27 24 27 32 39 43 37 42 36 41 42 49 45 52 52 49 51 52 46 54 56 68 56 65 82 128 173 186 193 202 200 174 125 80 57 45 
202 201 201 198 205 205 206 207 201 206 204 202 204 204 201 194 84 7 0 0 1 8 13 4 14 18 19 22 23 28 27 37 37 34 39 37 36 41 45 47 52 53 55 47 46 49 47 48 47 54 64 69 99 143 175 188 193 190 186 150 86 57 53 52 
205 204 199 196 205 199 205 204 204 197 199 204 204 202 200 201 75 6 2 0 2 17 8 8 15 18 22 26 30 27 30 34 40 35 35 39 44 46 49 51 49 49 47 46 48 54 53 51 54 56 73 77 116 153 179 186 183 189 172 115 69 56 49 46 
200 198 197 197 199 198 204 204 202 201 201 206 208 202 201 198 55 5 0 0 5 15 9 15 17 17 23 28 29 30 27 32 35 33 42 39 41 51 47 53 52 49 45 47 49 47 51 54 53 56 72 87 119 147 173 182 167 159 131 82 58 51 52 43 
201 197 189 195 195 193 199 202 202 197 202 204 205 202 201 190 39 3 0 0 4 15 11 13 17 17 21 24 32 32 36 32 39 34 41 37 40 44 45 49 52 51 43 49 49 52 47 49 51 59 77 90 130 157 175 175 162 146 100 70 53 45 49 47 
197 193 192 190 194 194 202 199 202 202 201 201 205 198 196 176 26 4 0 0 5 11 8 15 20 23 22 21 26 33 26 33 35 36 40 39 41 48 51 49 48 46 49 52 48 46 48 53 54 60 73 93 133 160 163 154 132 130 90 65 49 48 48 47 
198 194 196 194 189 195 200 201 202 202 205 201 207 200 196 167 14 1 0 0 0 13 10 15 17 22 22 20 26 27 28 29 30 33 35 44 43 46 46 41 51 48 47 53 48 53 52 52 54 59 75 100 145 160 157 141 128 123 80 65 55 48 46 42 
196 196 189 189 187 195 200 200 201 201 204 207 202 200 194 146 15 8 0 0 4 10 13 13 17 20 23 22 30 37 28 32 32 40 40 36 47 47 45 43 49 51 45 46 46 51 55 49 56 60 71 105 143 155 148 142 155 143 88 68 47 47 45 36 
193 197 194 184 190 196 200 204 199 197 200 201 196 192 192 113 11 7 2 0 4 10 15 16 21 22 24 27 33 32 28 37 35 39 40 44 42 47 44 44 44 47 45 49 52 48 65 49 55 59 69 97 134 144 153 160 153 129 78 56 49 43 40 42 
189 193 187 184 184 192 196 204 199 195 196 196 197 188 194 82 11 2 3 0 3 14 10 11 13 19 22 28 28 31 28 31 32 36 40 42 44 45 43 51 44 47 46 52 53 51 51 52 54 54 66 91 113 133 147 142 136 96 64 47 48 47 36 40 
197 190 188 187 192 196 198 201 199 198 200 197 201 190 187 49 1 2 7 0 4 6 10 18 18 22 24 23 28 28 33 34 36 42 33 40 44 43 46 46 45 43 45 48 49 45 54 56 55 52 66 86 112 124 142 126 111 73 51 51 45 45 41 44 
197 189 192 189 193 193 200 198 198 199 200 199 196 194 183 23 3 3 3 0 4 4 13 19 19 31 30 27 26 28 32 34 34 33 34 39 48 45 45 45 46 49 42 44 45 52 54 56 74 56 61 90 110 125 133 113 87 62 48 45 41 34 40 41 
189 188 183 183 193 196 196 195 195 199 202 198 197 196 171 9 2 0 1 0 0 5 20 19 29 19 27 27 27 31 33 35 41 35 40 40 39 44 45 40 45 45 40 47 46 46 53 56 58 55 61 81 105 121 110 79 58 52 49 41 36 36 41 45 
193 186 192 189 190 190 193 193 195 196 196 192 190 192 148 13 1 0 1 0 4 10 24 23 26 24 23 31 27 31 30 34 36 40 37 40 42 43 40 46 44 43 43 49 49 45 54 52 48 53 58 67 90 97 82 71 62 46 39 36 41 36 40 34 
190 190 192 192 196 189 197 197 197 194 193 192 192 192 133 11 0 1 4 2 0 8 17 19 23 29 28 29 30 27 33 32 37 33 36 40 40 44 40 43 44 43 42 46 46 45 46 53 48 53 64 72 79 81 72 69 58 46 47 42 36 39 39 30 
187 193 189 190 193 190 198 196 198 198 190 194 197 198 117 9 2 0 5 1 0 7 9 17 22 27 27 27 32 32 39 36 36 39 34 41 43 36 44 39 39 37 39 46 52 47 49 52 52 58 55 56 62 71 64 64 54 49 42 35 30 36 32 30 
189 188 187 188 186 186 192 192 193 198 189 197 198 197 100 10 0 0 7 7 4 7 11 16 20 24 33 33 34 32 35 39 35 45 42 42 44 45 42 39 41 40 42 43 44 54 49 49 55 51 51 55 54 60 58 56 52 49 45 41 36 32 28 24 
188 189 184 181 188 193 189 189 192 190 193 194 197 196 86 6 1 0 5 1 2 1 11 13 28 24 31 36 31 27 31 42 41 40 42 40 39 47 43 40 42 42 41 37 39 42 47 49 49 49 49 53 53 56 54 53 53 51 42 34 32 32 28 21 
188 185 185 184 185 190 189 192 192 196 196 197 201 196 69 7 1 0 9 10 0 3 9 23 22 30 31 35 37 29 30 34 34 36 44 47 42 41 40 41 45 40 41 36 41 42 39 49 47 51 51 52 49 53 54 58 54 52 46 43 36 40 29 23 
190 186 183 185 189 196 193 192 195 197 199 201 200 189 46 8 3 0 2 3 0 0 4 17 24 26 29 34 35 36 33 30 32 37 40 45 48 45 47 47 43 40 39 37 39 44 43 46 46 47 49 47 48 51 55 54 55 49 51 43 35 36 31 27 
186 185 182 185 193 192 192 190 198 198 201 206 200 183 35 2 0 0 0 3 5 0 5 15 24 30 28 35 28 31 33 30 34 36 39 42 40 41 42 44 46 42 43 41 43 51 43 47 47 52 45 46 45 47 49 49 54 48 37 42 36 33 29 26 
183 183 183 192 190 194 194 194 199 195 204 202 195 177 28 1 0 0 1 3 6 0 1 15 26 32 33 33 31 36 33 39 31 34 37 39 42 40 43 46 42 43 43 42 40 42 49 48 47 43 42 45 43 41 48 51 51 40 44 32 29 29 29 20 
184 185 187 188 193 196 195 199 205 201 200 201 195 180 28 2 0 0 1 1 7 0 0 7 27 24 29 26 33 35 34 36 37 34 34 40 43 35 44 42 39 42 43 46 44 39 47 51 44 58 41 42 45 45 46 46 42 40 43 33 34 27 26 22 
190 184 181 195 192 194 194 199 207 205 201 199 198 175 19 0 0 0 0 1 3 1 0 0 14 27 28 29 28 30 33 28 36 35 32 30 33 36 36 43 36 40 36 46 39 36 42 43 44 42 41 37 41 49 40 43 44 37 33 33 31 27 28 22 
189 186 188 190 186 196 197 199 205 204 201 202 201 173 19 0 0 0 0 0 1 6 0 0 18 27 23 27 36 35 32 34 39 36 32 34 39 37 35 39 40 41 42 40 48 42 41 44 49 45 44 42 45 43 45 43 43 41 39 36 31 27 35 20 
190 183 183 194 192 201 199 199 200 212 205 205 204 171 15 0 0 0 0 0 2 9 0 0 0 17 17 22 33 30 31 37 36 34 36 35 36 37 36 40 44 40 41 42 45 41 42 39 41 46 43 44 43 40 46 43 37 36 33 32 28 27 19 24 
192 190 192 194 190 202 197 197 197 206 206 201 202 171 22 1 0 1 0 0 1 14 0 0 0 0 23 26 30 33 35 37 34 36 34 39 39 39 39 42 42 40 41 41 46 46 43 36 46 40 43 42 45 43 44 41 35 34 35 32 28 22 16 21 
190 190 195 195 192 197 197 198 201 206 206 204 196 173 30 2 0 2 2 2 5 18 17 0 0 0 6 26 32 37 35 34 40 41 40 40 35 41 40 41 34 40 41 40 41 41 43 42 40 45 40 39 41 36 33 39 41 35 34 29 23 21 21 23 
193 192 198 185 196 194 200 199 199 204 201 201 198 179 43 0 0 0 0 0 2 5 16 0 0 0 0 9 27 31 36 37 40 35 40 33 42 40 41 34 37 40 42 34 33 33 40 43 43 41 39 41 37 41 37 35 34 30 35 27 26 21 22 18 
190 188 195 193 193 194 199 196 196 204 202 205 200 180 44 1 0 0 1 0 5 8 13 0 0 0 0 0 6 32 33 39 39 43 43 44 43 34 37 40 37 37 35 34 37 39 36 37 41 36 34 37 36 39 32 31 30 23 23 26 24 20 17 23 
