P2
64 64
255
51 51 53 52 57 60 56 60 60 62 62 57 56 56 60 58 62 59 64 67 64 66 88 145 193 213 226 238 243 230 221 234 211 218 215 228 234 236 234 235 220 188 125 78 65 82 95 123 142 103 111 104 75 64 71 65 56 52 60 64 69 64 30 1 
48 54 55 55 57 60 55 58 59 64 60 58 59 59 56 59 57 58 65 65 73 72 92 144 188 207 222 235 245 243 225 222 199 224 195 220 231 231 231 228 213 170 105 67 65 98 84 81 85 78 81 87 72 71 64 61 59 56 59 59 71 60 42 0 
51 51 53 51 51 58 60 58 58 59 61 61 59 60 57 58 56 56 64 65 75 81 93 147 183 196 219 237 248 247 238 219 182 211 163 221 223 225 228 220 198 132 93 62 71 103 71 65 61 61 66 69 73 75 67 55 55 55 60 59 64 66 56 5 
51 46 51 53 56 56 55 59 62 59 57 60 59 57 62 61 64 60 62 59 82 99 103 160 190 206 215 231 243 243 234 211 161 199 155 213 221 226 223 210 183 117 82 61 79 99 68 51 57 55 57 54 70 73 64 55 51 58 52 56 68 72 65 19 
51 47 56 52 52 53 59 60 65 55 58 59 60 58 62 64 62 60 61 65 85 91 108 157 186 200 212 224 237 236 228 205 155 167 148 207 220 221 217 202 157 100 80 67 85 85 68 60 48 55 61 62 69 65 69 56 52 56 60 61 77 75 65 26 
49 51 52 56 56 57 53 57 59 60 56 59 60 56 59 60 61 61 59 61 88 96 110 150 179 189 204 223 230 228 215 189 141 129 156 207 213 213 202 183 122 82 78 75 91 75 60 55 53 57 56 56 61 58 56 58 51 59 58 54 68 85 66 37 
51 51 53 53 55 56 60 59 59 53 59 59 58 58 58 59 61 65 60 66 81 106 124 148 177 194 208 221 227 221 188 150 110 120 155 200 196 189 156 124 99 69 68 77 88 70 56 57 53 52 52 61 54 57 53 65 52 49 55 61 75 91 69 75 
47 49 52 51 54 57 56 51 58 55 58 62 58 59 59 59 61 64 61 70 87 105 120 147 168 183 195 207 209 181 129 116 97 109 166 164 155 149 124 106 94 70 75 75 86 80 60 55 47 48 57 58 51 58 56 54 52 57 53 59 81 103 77 54 
51 51 46 49 55 56 59 59 62 58 57 58 58 61 75 77 59 54 62 61 84 97 113 135 155 173 183 185 183 151 119 97 88 113 117 121 105 115 90 88 80 72 68 73 102 66 55 53 53 52 52 61 54 57 58 62 57 57 57 64 86 103 71 51 
62 52 48 49 55 54 56 53 56 59 57 55 56 56 56 62 57 57 62 64 80 90 107 129 133 132 149 144 130 108 102 85 94 86 91 92 81 88 84 82 75 72 67 70 122 56 55 54 48 53 55 68 81 92 100 70 58 57 56 60 94 99 72 61 
49 49 52 49 49 51 51 55 55 58 59 59 58 55 53 56 57 54 58 61 78 84 96 122 116 120 100 100 97 97 93 81 87 81 84 72 70 75 68 77 68 70 69 95 82 56 56 52 47 58 62 75 96 155 180 119 70 55 58 73 102 102 75 58 
46 52 49 48 49 51 58 57 55 58 57 61 57 55 57 53 55 55 59 67 71 77 90 97 98 98 92 86 84 91 87 81 88 84 81 72 74 72 70 65 66 66 62 106 51 52 52 55 49 55 64 86 146 209 225 204 110 60 56 69 115 111 72 62 
48 45 46 53 49 51 57 54 59 54 57 60 64 56 57 61 57 57 59 61 62 68 78 81 92 81 78 73 80 91 91 88 86 77 78 72 72 69 65 64 66 61 70 74 51 53 52 47 51 51 58 91 189 236 243 243 175 68 58 69 129 120 78 61 
44 44 49 52 49 51 52 54 57 53 56 58 59 57 60 57 57 59 59 60 65 61 72 75 79 77 72 72 75 85 90 84 81 73 75 69 62 62 55 59 61 57 73 51 51 55 56 55 48 54 66 107 202 240 247 249 226 93 69 73 144 136 81 68 
43 47 49 52 47 52 52 55 55 55 54 57 60 55 64 58 61 59 59 59 62 62 64 72 75 74 79 72 69 83 80 78 73 67 68 64 61 58 53 62 56 73 66 55 55 54 53 55 53 55 71 137 208 237 248 249 241 128 71 85 145 144 80 69 
46 47 47 52 51 52 55 55 56 54 53 55 58 55 55 61 61 58 59 60 58 57 64 66 69 71 69 68 74 77 80 69 60 62 65 58 59 59 58 58 59 73 52 52 56 53 53 48 48 60 81 157 214 236 248 249 241 137 77 84 144 139 91 68 
41 46 49 49 55 53 51 54 55 52 55 55 56 54 56 54 58 59 60 59 61 58 62 61 65 64 65 71 70 65 66 66 62 65 66 61 60 59 58 54 66 57 48 49 55 57 53 48 49 74 103 174 221 237 246 240 223 141 84 92 132 118 80 54 
43 47 47 51 54 52 55 52 53 59 57 53 55 57 59 59 57 56 58 56 68 64 64 67 67 68 72 68 66 66 60 64 65 64 60 59 60 58 61 60 67 53 54 53 54 49 49 52 54 71 117 192 224 240 240 230 212 138 85 86 117 107 70 49 
42 47 54 47 55 54 56 52 51 56 57 51 51 55 60 57 60 59 56 61 64 60 64 67 67 66 71 66 62 67 58 61 62 58 59 64 58 61 60 66 55 51 54 54 54 54 49 49 57 74 146 204 230 241 237 222 200 135 68 84 102 88 64 40 
46 47 53 51 52 54 51 53 53 52 59 54 52 57 57 56 60 58 59 65 65 65 62 61 65 71 67 68 66 64 58 64 64 57 60 65 64 61 69 51 49 55 49 54 57 54 47 49 61 90 172 219 238 241 234 218 184 109 67 78 83 78 58 28 
41 45 48 52 51 47 56 52 52 52 55 57 56 55 59 56 56 52 53 61 67 65 61 65 66 67 67 65 64 65 61 64 62 66 66 67 68 66 56 52 47 61 57 53 54 54 49 52 66 128 197 230 236 235 230 214 159 82 66 68 69 61 58 17 
45 48 52 54 49 45 49 52 51 54 53 56 52 54 57 58 56 56 58 55 59 66 64 64 65 69 67 71 67 66 59 66 68 61 66 62 68 59 54 49 53 57 58 52 57 49 53 58 77 158 208 230 234 228 219 195 120 70 62 65 66 57 53 1 
48 46 43 51 49 57 51 55 54 53 48 54 54 53 61 53 56 60 54 65 68 67 64 68 66 68 70 69 68 67 70 69 67 61 61 60 55 54 58 57 54 59 56 55 56 52 54 65 97 179 214 232 230 221 196 146 91 66 58 58 56 54 35 0 
45 41 39 43 46 52 60 55 55 52 54 52 53 47 57 56 57 57 58 56 61 68 66 62 64 65 69 72 67 74 68 66 64 64 56 58 52 61 58 61 58 60 55 54 57 59 71 92 148 198 215 224 211 181 135 107 74 61 57 55 57 57 20 0 
48 40 41 41 35 48 47 52 52 48 49 55 46 49 51 51 55 58 59 58 61 64 64 59 62 62 65 65 67 64 64 61 61 57 56 55 57 56 56 62 58 57 61 58 59 74 96 125 180 208 220 206 173 125 100 81 66 56 51 56 53 52 4 0 
49 47 46 47 40 40 48 55 49 48 51 53 48 45 53 52 51 53 54 58 64 61 64 62 65 65 64 66 61 62 61 58 58 64 58 57 55 54 55 56 60 59 52 58 71 95 156 172 209 214 212 180 125 97 82 66 62 56 54 53 56 45 0 0 
55 48 51 51 40 34 41 52 49 53 45 47 44 45 45 51 51 53 57 60 65 55 59 65 59 60 59 58 61 60 60 62 60 61 55 55 60 57 58 57 55 57 54 60 84 139 182 205 221 218 198 162 100 83 74 62 64 52 52 52 52 29 0 0 
55 59 57 46 45 34 36 46 48 51 53 52 54 83 95 82 45 53 56 59 61 58 57 64 59 62 61 62 62 58 60 58 64 64 60 61 60 59 57 60 61 59 60 71 120 182 201 214 226 213 182 132 108 87 65 60 54 52 53 52 49 17 0 0 
58 52 53 47 48 42 41 47 79 107 124 158 179 223 193 70 71 42 53 55 58 58 57 57 57 61 61 61 57 59 58 64 60 64 61 61 62 62 60 59 88 69 69 91 148 199 212 221 222 211 184 128 98 77 66 54 53 48 49 48 48 3 0 0 
56 55 56 65 84 131 173 192 206 197 205 202 204 217 192 150 174 70 45 46 51 54 55 55 56 59 54 57 56 61 69 57 59 62 67 62 59 57 58 58 62 59 78 111 155 182 209 218 215 196 156 109 78 65 55 55 56 49 49 51 39 0 0 0 
59 98 137 176 185 179 176 170 172 185 209 231 213 239 228 213 241 163 48 41 45 47 48 55 58 61 56 56 56 62 59 56 55 61 67 60 59 60 62 58 55 67 97 136 181 182 183 196 181 153 129 82 69 61 59 66 53 48 52 53 24 0 0 0 
67 119 125 137 147 148 156 157 170 185 199 239 226 234 238 202 241 224 70 43 47 47 54 53 56 61 58 58 59 59 61 57 58 56 57 59 62 59 60 64 69 83 120 166 194 198 193 185 157 117 94 77 67 66 56 55 56 54 58 51 17 2 54 109 
68 80 111 133 134 149 139 144 150 172 198 223 235 220 239 217 230 240 123 49 46 48 46 57 57 64 61 60 61 60 61 62 61 57 67 58 52 56 60 67 74 103 135 172 204 202 196 189 146 99 85 70 66 60 57 54 52 52 46 56 73 132 198 179 
69 69 86 109 110 121 125 119 142 147 174 206 239 222 237 215 224 243 182 51 53 51 56 60 60 59 57 59 62 62 60 64 59 58 60 60 62 60 65 75 78 98 124 163 192 200 189 143 104 92 80 62 54 55 56 48 53 52 51 68 151 196 205 115 
64 61 75 59 87 99 99 86 112 126 160 199 220 235 230 226 214 241 226 71 48 45 57 59 54 60 65 59 58 61 57 61 62 61 65 64 65 66 69 77 82 95 110 131 147 154 154 133 110 84 73 61 54 55 51 53 54 59 54 105 183 218 206 56 
66 65 65 71 59 59 95 97 110 123 122 181 207 236 230 236 210 235 239 123 49 42 45 53 55 56 62 62 58 60 59 59 58 58 61 65 74 70 68 93 105 119 121 121 126 136 144 122 112 103 77 64 59 56 52 52 58 53 59 141 181 224 213 36 
66 66 62 67 70 75 46 59 120 122 133 158 202 231 228 238 214 223 240 181 53 52 53 55 49 58 61 62 61 68 58 59 58 65 67 65 68 65 74 90 108 122 115 119 117 120 121 117 91 83 72 61 59 57 52 56 54 52 60 146 193 220 222 41 
69 66 65 68 68 66 60 56 120 137 133 154 197 215 236 237 230 214 237 227 75 49 51 49 57 53 57 53 56 62 56 60 56 57 61 68 67 65 79 81 100 102 98 107 108 98 82 97 70 64 67 52 58 58 57 55 56 57 56 129 192 223 226 66 
70 71 72 66 69 64 58 41 86 155 163 158 187 208 235 234 236 220 239 241 150 51 49 48 55 55 58 55 52 57 55 56 54 64 59 58 62 60 66 73 86 87 82 86 83 80 73 60 57 64 64 55 54 58 56 49 55 56 23 121 184 224 225 88 
72 71 71 66 66 67 65 34 90 148 170 156 163 209 228 237 236 220 231 241 213 52 43 44 54 51 53 62 52 52 64 54 59 57 55 59 62 65 59 69 73 72 73 66 67 62 62 57 59 57 55 60 67 65 60 58 56 44 1 96 175 217 211 132 
68 62 66 65 61 57 66 37 86 163 167 161 159 192 223 233 232 226 222 239 240 100 41 41 44 49 52 49 49 56 57 56 56 52 59 67 59 61 56 59 59 58 61 62 56 59 55 61 57 64 54 60 71 77 66 60 49 9 0 54 146 137 137 157 
65 66 68 66 64 54 58 46 58 155 170 151 149 190 210 230 235 234 205 236 241 159 44 45 43 41 52 48 53 54 57 55 57 56 64 61 59 54 55 60 59 55 51 52 54 59 55 58 56 64 65 81 77 70 59 58 23 0 0 13 61 29 77 117 
78 71 60 62 55 54 56 52 42 143 169 158 145 185 209 223 237 236 202 226 240 219 57 45 42 45 45 55 49 57 54 55 56 55 62 61 61 57 57 49 55 52 53 49 57 56 57 56 59 65 68 67 69 58 56 35 0 0 2 0 1 15 57 112 
67 69 59 59 61 61 57 49 36 133 177 172 147 172 211 211 234 237 218 212 239 238 111 43 41 46 46 48 55 53 54 55 65 53 55 56 56 53 55 51 53 51 48 52 57 55 57 60 59 62 55 53 57 61 46 2 0 0 0 0 31 67 92 70 
60 60 58 72 66 57 59 56 57 124 171 176 149 156 202 202 230 236 224 204 234 244 160 43 36 37 47 47 54 51 49 53 55 53 56 55 52 57 52 54 51 46 55 48 52 55 54 57 55 47 51 47 47 43 3 0 0 1 20 67 123 155 168 168 
53 52 64 90 86 100 112 129 160 131 172 188 167 155 184 205 225 238 235 205 221 241 212 51 41 44 42 47 45 44 48 56 61 70 73 85 97 107 103 96 84 80 72 69 66 58 47 47 45 44 46 42 42 6 0 1 13 51 106 153 175 188 192 193 
52 74 100 110 130 156 162 182 196 161 166 181 177 164 173 199 215 239 236 211 206 243 236 87 42 37 37 43 45 46 59 65 93 98 109 120 131 136 123 129 137 154 174 190 194 166 122 69 49 46 47 43 8 0 3 8 43 102 157 181 192 201 201 206 
91 122 131 147 166 172 184 180 202 186 155 185 190 175 167 194 207 240 236 217 202 241 238 154 44 46 51 52 45 55 66 86 97 106 134 151 146 128 112 129 149 149 159 174 193 206 215 200 167 98 49 14 0 0 0 19 61 149 180 193 195 198 204 208 
113 144 156 151 172 186 197 194 200 217 158 188 195 187 184 197 201 237 233 226 208 230 240 211 82 65 52 46 49 67 79 99 120 130 143 141 124 115 104 122 139 159 172 183 184 187 190 188 194 196 179 74 6 4 4 36 91 166 186 189 194 197 202 205 
125 146 163 171 183 190 197 199 201 215 190 175 174 184 181 188 209 236 237 230 215 221 243 233 133 88 72 62 58 85 97 104 117 157 149 116 97 98 107 107 130 174 190 187 185 182 185 182 193 200 204 205 146 34 11 49 102 167 181 189 198 198 200 204 
144 156 164 176 186 197 199 205 211 218 189 155 174 182 168 174 198 226 234 236 213 214 237 239 196 97 73 81 86 96 106 110 134 146 118 104 88 97 109 128 164 180 192 184 182 187 192 200 204 209 212 207 209 196 85 59 120 162 175 190 200 204 205 204 
157 166 183 182 196 200 205 207 213 219 211 147 174 180 173 162 204 212 233 228 211 208 234 243 231 111 77 88 85 99 105 125 141 133 118 94 87 95 104 129 166 175 181 179 188 201 200 204 200 208 204 212 212 211 212 158 107 151 172 188 201 206 206 206 
180 179 183 177 190 195 206 205 212 209 208 160 173 183 171 156 184 202 241 230 226 214 226 239 237 154 85 83 87 97 100 132 142 135 107 95 99 90 116 150 162 166 180 179 194 194 200 196 199 199 205 206 209 210 212 217 181 139 162 179 194 202 205 210 
186 199 196 189 186 193 199 211 214 212 210 154 175 181 177 157 166 202 235 224 230 213 225 235 237 202 79 72 72 107 121 135 137 106 96 94 99 106 126 151 156 160 168 185 189 198 199 199 202 205 207 211 214 208 210 209 219 197 154 173 186 204 204 211 
187 201 201 196 193 188 198 208 211 209 217 163 176 189 185 159 168 197 221 226 224 221 226 238 239 231 103 72 83 96 107 115 120 96 95 91 100 119 144 156 146 161 184 188 197 195 199 204 204 212 211 214 218 217 221 218 214 219 193 175 189 200 201 210 
186 199 202 202 201 190 199 204 210 209 214 162 177 187 195 174 169 192 211 223 222 227 224 232 239 237 151 71 80 104 105 116 124 102 86 90 99 132 148 149 144 166 170 184 185 186 198 205 210 215 213 217 219 218 220 220 219 213 212 194 190 201 202 210 
186 202 198 187 204 205 206 206 215 226 223 179 166 183 189 167 168 180 212 222 219 230 223 230 230 236 219 82 88 94 110 129 110 87 94 86 100 126 145 145 163 170 173 176 181 188 195 204 206 210 212 215 221 220 221 219 218 215 217 219 199 199 198 207 
158 148 142 130 155 220 223 225 226 223 225 164 156 186 188 172 157 179 205 219 219 234 214 232 233 239 235 119 87 81 115 231 164 81 84 92 104 115 137 145 160 164 172 175 180 194 206 204 206 209 215 223 224 223 225 223 218 213 219 221 215 198 202 209 
94 65 47 103 160 193 200 217 223 218 226 160 160 163 184 177 157 164 188 210 214 236 224 222 236 241 236 189 106 111 170 217 231 129 71 73 113 129 143 161 161 171 168 182 188 198 205 209 210 218 220 221 215 220 225 217 215 213 205 206 214 211 202 208 
72 28 31 74 146 168 190 198 200 214 221 161 168 168 182 183 171 172 190 202 224 232 236 218 232 241 238 230 104 154 217 184 190 208 100 91 108 124 153 158 163 168 166 185 190 189 201 205 208 220 213 213 214 210 201 197 194 192 190 190 192 211 207 209 
100 15 20 87 131 168 157 158 195 192 193 153 174 186 183 190 186 177 190 210 225 225 234 220 226 238 236 231 150 188 205 167 163 150 192 169 109 120 128 147 159 169 174 185 187 196 200 212 209 204 194 177 168 160 153 155 163 168 172 176 177 173 180 194 
84 10 27 124 151 133 112 117 126 160 157 160 182 190 193 199 187 175 188 209 218 230 237 223 228 233 238 228 211 196 227 161 122 82 113 186 198 141 60 109 153 174 184 185 193 200 210 207 188 171 149 119 122 103 115 120 150 161 170 173 184 173 173 177 
46 14 62 91 93 84 77 55 40 119 148 164 179 185 195 189 183 175 185 199 208 213 235 235 231 236 240 235 224 215 218 157 77 69 135 186 199 180 148 108 147 164 183 184 197 194 188 175 139 110 80 87 84 83 94 97 113 159 172 176 179 184 182 192 
20 53 42 22 19 16 13 2 34 139 164 172 180 189 197 190 187 182 188 206 209 227 236 239 234 236 240 236 234 214 184 123 43 118 202 195 192 177 171 181 172 167 167 177 188 164 131 107 78 68 68 66 70 70 86 100 131 157 170 180 184 187 195 190 
