P2
64 64
255
142 138 157 136 136 171 192 151 57 121 171 154 170 168 189 204 217 215 218 221 188 200 211 210 197 201 143 85 48 37 40 40 44 45 46 51 48 49 45 45 48 49 49 53 51 56 56 74 90 103 119 96 71 60 55 55 60 151 56 42 46 44 49 47 
156 133 151 162 159 171 181 174 181 162 171 134 139 170 201 204 218 220 219 201 176 199 217 225 200 200 185 87 49 36 39 39 41 44 45 49 47 49 49 52 47 49 48 51 52 54 54 67 75 110 142 111 74 61 53 52 53 99 90 42 47 45 48 47 
157 170 175 183 176 171 169 169 194 200 194 173 162 186 205 214 221 206 199 215 195 189 196 230 222 196 199 173 110 51 40 43 42 40 45 51 46 49 47 49 46 48 48 49 54 57 56 61 65 87 102 113 95 78 55 51 51 56 124 41 46 44 51 45 
179 186 195 190 197 169 159 172 196 210 173 161 147 173 202 222 223 209 209 205 199 190 217 228 227 204 190 197 201 174 56 42 39 40 45 48 48 48 49 49 54 59 52 56 53 58 58 68 79 91 121 119 97 71 59 53 51 48 95 49 46 46 49 51 
199 200 193 177 181 170 176 176 185 198 202 179 130 159 190 195 206 188 201 227 223 215 206 211 212 201 190 198 212 223 163 51 37 42 45 46 49 48 48 48 49 53 54 53 53 59 61 77 82 91 123 151 133 100 68 58 53 51 64 68 52 47 47 44 
149 174 179 164 153 131 146 177 200 210 192 183 141 177 223 222 225 206 205 224 223 220 211 208 200 206 224 202 209 218 222 122 42 36 43 48 45 41 51 52 48 49 54 53 55 60 62 74 96 94 106 131 113 97 75 58 48 52 56 75 51 45 44 47 
179 182 188 189 187 174 142 119 134 190 202 183 168 176 224 230 222 205 206 218 233 234 227 220 217 213 206 207 207 222 222 210 79 41 42 48 42 43 47 53 52 51 53 49 54 56 59 79 103 122 146 155 143 97 67 65 52 53 49 78 52 46 43 46 
180 182 193 195 190 195 200 192 175 170 171 194 190 175 180 228 227 231 235 236 239 243 244 241 234 231 231 232 197 189 220 215 167 41 42 47 43 47 49 54 53 52 53 54 55 59 66 77 135 162 190 195 162 124 71 71 59 51 53 65 58 45 47 49 
185 189 194 194 194 198 199 192 193 198 196 158 164 180 186 231 210 210 215 209 209 207 209 210 210 220 219 214 202 197 220 215 213 75 41 45 47 48 48 52 52 57 55 55 55 60 71 81 142 195 217 212 198 170 98 75 67 52 53 56 67 44 47 46 
188 195 194 196 190 198 194 194 198 200 207 210 195 189 204 207 209 209 210 210 205 201 204 211 211 215 217 217 218 219 217 217 220 139 46 46 47 48 48 51 52 53 56 55 61 59 64 85 154 205 224 225 219 202 149 80 65 58 54 53 60 44 43 46 
192 198 196 195 200 199 197 197 204 207 211 213 218 217 214 210 207 210 211 210 212 211 210 211 213 215 215 217 215 218 215 218 221 186 43 51 42 45 49 52 51 51 54 56 58 61 78 100 155 215 237 235 235 222 183 97 62 61 56 54 58 51 44 46 
190 193 190 198 201 198 204 205 206 211 213 218 221 221 217 212 211 211 214 215 214 214 211 212 218 220 220 224 221 219 217 213 220 218 58 51 41 45 47 54 48 53 54 58 58 67 70 92 162 217 234 239 239 233 208 108 68 60 54 54 51 51 48 48 
194 192 192 196 201 196 200 207 213 210 215 218 221 219 217 215 218 217 214 220 220 221 217 214 218 218 219 223 223 219 215 220 220 225 88 45 44 47 51 52 49 56 55 59 59 62 73 98 170 215 232 243 244 237 222 133 85 68 55 52 51 52 47 47 
193 187 195 200 206 204 204 206 206 209 217 218 224 221 215 212 212 215 214 215 219 224 227 225 226 222 220 221 223 221 219 214 225 225 95 53 48 45 54 60 57 52 55 59 58 69 71 102 170 209 231 240 241 239 225 179 105 65 61 53 51 52 48 44 
189 192 205 205 204 208 207 205 207 210 214 213 222 219 214 211 213 214 211 220 223 228 237 239 239 231 227 225 222 225 222 217 225 222 96 47 45 51 55 57 55 55 54 58 60 68 79 104 160 202 228 244 245 244 228 195 131 75 57 54 52 49 48 46 
197 197 204 206 209 211 208 209 209 217 215 218 222 218 214 208 210 218 217 224 231 243 246 245 241 233 230 226 224 225 220 220 225 222 84 47 42 52 55 58 56 55 62 54 56 68 96 117 154 199 224 236 243 247 233 201 130 81 55 55 83 52 47 44 
198 204 206 209 210 210 202 208 213 214 214 217 219 217 215 211 211 211 215 222 231 241 247 246 240 232 226 225 225 225 222 222 222 214 64 47 48 53 60 65 57 54 61 54 53 65 93 132 147 189 218 235 244 247 237 218 160 103 64 56 52 51 54 46 
205 205 209 208 209 208 201 206 214 220 218 219 219 219 215 210 213 212 212 222 235 241 245 246 236 228 226 226 225 224 220 223 221 205 57 46 51 54 59 58 57 56 57 59 58 64 88 122 142 185 219 234 241 245 240 228 181 113 75 56 57 51 45 47 
205 207 211 205 209 206 207 213 221 223 220 222 221 219 218 210 212 215 218 220 233 240 245 241 236 228 226 225 223 221 221 223 222 192 48 47 55 54 57 58 56 54 56 56 57 66 77 102 155 181 211 228 237 247 245 235 199 117 82 55 62 52 46 45 
201 207 211 204 206 208 207 217 222 224 223 224 222 219 215 211 215 218 217 219 226 232 236 234 226 222 225 223 221 222 217 221 220 183 45 46 54 57 60 55 58 51 57 55 55 60 74 99 146 175 207 226 233 240 244 235 210 136 80 61 60 54 53 48 
195 202 211 222 206 201 213 220 222 223 222 222 222 219 218 213 212 214 220 225 228 231 228 224 221 222 223 222 222 221 220 221 222 183 47 45 49 57 57 56 54 54 58 56 60 57 69 104 128 166 198 223 232 234 239 235 218 164 91 66 64 55 48 45 
199 206 209 206 209 210 218 224 224 222 221 223 221 219 210 206 209 212 217 223 221 220 222 222 223 222 225 222 222 217 220 221 217 206 68 45 46 56 52 53 54 54 58 57 52 62 77 86 122 168 195 218 230 236 233 235 223 180 102 69 56 58 51 43 
198 209 205 200 210 212 220 223 223 222 223 222 221 221 217 207 211 211 215 220 220 221 220 222 222 225 225 223 223 219 221 222 217 212 102 45 46 53 52 55 53 55 55 54 55 64 66 80 102 159 187 202 215 227 234 236 225 187 103 68 60 57 55 49 
197 207 204 208 211 213 218 220 224 223 223 223 219 218 215 208 212 211 218 215 217 218 220 221 222 225 223 223 221 220 222 221 221 217 132 46 46 48 57 54 57 57 51 56 54 59 64 80 102 125 169 186 205 212 217 215 201 171 115 75 70 61 57 55 
199 208 209 207 209 208 218 218 223 219 219 222 220 220 217 207 206 212 217 212 217 218 222 222 223 224 223 223 224 224 221 220 221 219 158 51 47 51 52 49 54 54 54 55 53 56 62 72 97 110 142 158 166 175 175 175 172 137 104 74 65 60 62 55 
194 199 202 211 207 208 215 215 215 218 218 221 215 217 213 211 210 211 215 217 217 222 222 222 221 226 223 221 223 223 221 220 217 221 189 54 53 51 54 54 53 54 56 57 56 58 60 67 106 99 109 107 107 112 117 128 145 117 92 74 68 61 64 53 
192 197 201 202 207 209 212 212 213 214 213 218 217 218 217 214 213 214 215 215 220 218 222 225 223 225 224 225 224 221 221 222 217 224 199 52 48 43 48 55 52 55 57 57 57 57 55 65 71 87 105 95 92 95 113 126 112 111 102 80 69 64 67 62 
194 198 199 206 210 209 209 208 211 210 214 217 217 221 220 215 214 214 217 218 218 221 225 224 223 223 221 226 224 221 221 222 214 224 205 51 44 45 54 55 53 56 53 52 55 58 60 64 71 73 93 87 91 83 87 105 98 102 92 79 80 66 62 60 
197 202 199 208 209 204 207 206 211 213 213 217 219 219 219 219 218 215 218 217 220 221 226 226 225 225 225 227 225 223 224 224 218 226 209 56 45 45 51 53 49 59 54 55 55 52 61 65 73 78 85 88 82 85 90 102 105 86 85 78 80 70 61 62 
196 201 199 206 207 212 207 209 212 211 213 212 218 220 217 218 213 214 215 220 222 222 224 224 225 225 225 226 224 225 225 223 217 224 207 52 44 39 47 55 52 56 53 48 59 56 52 59 56 66 64 72 80 81 81 86 83 86 88 86 78 70 68 61 
194 197 199 208 211 210 208 208 210 209 212 215 217 219 219 220 220 220 221 222 221 221 224 224 222 224 225 223 224 224 226 222 212 224 200 49 40 46 47 49 52 53 54 56 49 54 48 61 57 55 62 69 79 68 70 81 82 85 84 88 73 71 71 64 
186 195 198 202 206 208 207 205 210 211 213 214 218 220 219 223 221 226 228 227 225 223 225 224 220 223 223 225 220 223 225 224 212 224 197 43 41 45 47 51 56 55 49 48 54 56 52 53 57 56 61 64 66 62 74 75 71 82 81 82 69 71 73 66 
194 194 196 202 200 204 202 205 206 213 213 214 218 221 221 220 222 225 230 227 225 225 224 221 222 228 226 226 222 223 224 222 211 221 181 44 39 45 48 48 49 51 52 51 53 53 54 49 56 54 55 64 54 55 62 62 65 75 75 80 68 70 69 69 
193 197 201 202 201 201 202 204 207 211 208 211 217 222 226 226 225 230 227 227 223 222 224 220 224 222 222 226 224 221 220 221 211 219 176 42 40 44 43 47 54 52 51 55 55 54 57 55 55 55 52 57 57 58 64 70 59 70 70 70 69 71 71 62 
193 194 198 196 201 200 201 201 206 211 210 213 218 217 223 225 228 232 226 226 226 224 224 222 225 226 226 227 223 222 221 221 210 219 160 40 33 36 45 40 46 49 49 54 53 49 53 58 53 56 54 55 57 56 53 57 67 69 70 70 69 69 73 70 
190 195 196 198 197 200 199 202 204 210 210 211 214 218 222 222 228 226 225 225 223 224 223 223 225 226 225 225 224 223 224 222 209 219 136 36 30 36 42 46 47 48 46 51 47 49 48 48 55 54 55 56 54 56 61 59 64 67 65 69 72 73 64 70 
194 195 198 199 201 202 199 207 208 211 207 214 218 214 219 223 226 227 222 223 222 223 223 224 230 228 224 224 225 225 223 222 211 219 118 39 37 42 43 47 53 48 49 49 46 51 46 47 52 57 58 56 59 56 57 59 64 72 72 78 72 71 70 66 
193 195 200 198 201 204 202 205 204 210 211 217 219 220 223 223 225 231 225 226 226 225 223 225 227 228 228 228 224 224 224 222 208 223 104 37 37 40 41 44 45 49 47 43 47 48 47 55 55 56 57 55 57 56 56 59 65 69 81 77 74 68 66 72 
196 200 197 196 200 202 195 201 205 209 210 215 221 222 223 220 224 224 222 224 224 226 225 224 226 228 228 227 228 224 222 218 208 221 91 35 41 41 40 44 44 45 46 49 49 52 51 55 58 54 58 56 51 57 53 52 54 66 75 71 72 70 70 69 
189 194 200 195 197 199 200 198 199 209 210 215 218 219 223 221 222 223 225 227 223 225 225 224 227 230 230 227 230 228 224 214 209 217 68 40 35 39 42 46 46 41 45 46 47 52 54 57 51 52 54 52 51 49 57 54 53 57 66 65 67 68 68 69 
187 195 197 195 201 197 199 201 205 212 211 221 222 221 224 221 224 224 227 227 224 225 226 227 228 228 230 228 230 228 226 213 213 208 49 34 37 39 41 42 46 37 45 44 44 44 49 49 55 57 53 54 53 53 53 56 54 59 61 61 60 69 68 70 
184 192 198 198 199 194 198 197 206 211 217 217 219 220 220 223 224 225 225 226 222 222 223 225 226 227 226 228 231 228 224 212 217 198 46 34 35 35 39 37 43 45 49 43 46 49 55 46 49 46 57 58 55 55 54 57 60 57 62 57 64 68 75 70 
185 186 189 195 204 198 195 200 205 210 214 222 220 222 223 223 224 226 226 227 223 226 225 225 225 227 232 228 232 228 224 205 213 195 43 35 32 33 35 39 43 40 48 48 46 47 51 54 54 52 55 49 46 55 55 55 58 65 67 68 67 69 74 71 
185 189 189 193 198 197 199 201 207 212 214 215 223 224 223 223 225 228 227 227 222 224 224 226 226 228 230 230 230 225 224 209 212 183 39 34 33 34 39 40 43 37 42 42 48 46 51 49 52 53 47 57 56 51 56 56 64 62 72 68 68 67 72 65 
179 182 189 194 194 194 195 200 206 213 213 220 221 224 226 227 223 226 230 226 223 222 226 225 225 230 228 228 228 225 221 212 213 169 35 32 31 32 40 41 39 41 43 44 42 51 47 51 47 53 49 54 60 55 59 60 60 65 62 65 68 62 64 64 
177 185 185 188 190 192 196 200 208 211 212 217 221 224 224 224 224 227 226 225 223 224 224 224 218 230 227 226 227 225 224 215 218 166 32 36 27 28 31 32 37 37 37 41 44 44 54 52 49 54 54 56 55 57 55 56 60 61 56 59 57 64 61 54 
179 183 182 186 190 189 197 201 208 211 211 214 220 224 224 223 223 224 226 225 223 222 222 222 225 227 224 223 225 226 224 213 214 160 40 28 29 28 33 39 33 39 41 42 39 46 53 47 54 57 48 48 54 56 53 51 56 56 55 58 57 49 53 42 
180 185 182 189 192 187 200 204 208 208 211 217 220 225 223 224 224 227 223 223 222 222 225 227 227 224 223 223 224 226 221 215 218 143 35 26 26 32 31 32 34 36 42 39 39 41 45 47 54 109 49 49 47 47 54 49 57 48 55 52 59 44 39 52 
179 186 187 189 189 188 198 201 207 208 213 213 219 224 222 223 224 224 221 219 224 225 225 228 228 225 224 224 225 227 221 214 223 130 32 33 26 26 31 32 34 36 39 36 37 36 42 48 46 47 44 45 51 51 47 46 55 52 49 43 31 31 46 79 
190 187 188 190 190 196 198 206 206 209 212 217 220 221 222 225 227 225 225 223 224 223 228 228 225 225 224 226 227 230 222 215 219 116 29 29 31 30 32 31 33 33 35 39 35 34 39 36 43 45 47 41 43 43 41 43 39 37 37 21 22 35 68 107 
189 190 188 193 190 195 200 202 207 207 212 218 221 222 222 223 225 224 225 225 227 225 228 226 225 226 223 226 227 226 218 220 222 104 30 22 23 28 28 26 46 27 29 33 34 35 34 36 39 37 34 34 27 29 31 32 24 26 21 29 40 67 119 143 
188 189 189 192 194 198 198 208 209 208 217 218 220 221 221 226 223 225 224 227 227 228 226 227 227 228 225 231 230 227 213 224 222 82 19 18 21 19 23 21 27 15 24 27 23 28 28 23 32 20 20 20 15 14 18 30 29 16 23 42 69 117 144 163 
190 192 190 192 194 197 205 207 210 207 217 219 223 221 221 226 226 225 224 226 226 224 224 222 230 226 225 228 231 223 214 226 213 47 14 7 10 16 19 28 21 18 16 18 22 20 16 15 16 11 7 10 13 27 35 31 2 15 34 65 91 144 160 177 
193 190 195 195 197 202 207 208 206 213 219 219 220 220 222 226 225 224 225 226 224 221 225 226 227 225 225 228 228 224 221 223 205 32 10 9 7 11 10 8 13 6 6 7 9 5 2 3 13 15 23 30 34 34 30 13 11 42 58 100 131 153 175 177 
196 194 197 195 202 206 208 208 209 213 220 220 223 223 223 224 225 220 225 225 223 223 226 224 230 228 228 230 226 223 221 223 189 21 7 2 3 2 6 2 4 1 1 2 3 10 15 43 49 68 70 73 83 85 82 72 60 94 119 137 151 161 179 188 
194 195 196 198 202 210 207 211 212 215 221 222 222 222 226 226 226 225 225 225 223 224 227 227 230 228 230 230 228 220 218 224 167 22 3 1 0 1 5 5 6 8 13 17 35 49 70 77 88 87 92 91 90 112 103 96 116 132 185 188 170 176 170 182 
195 197 200 201 208 208 208 215 211 217 221 222 221 223 225 228 226 228 223 223 222 224 226 230 232 228 230 228 230 222 224 222 128 21 16 15 13 14 17 21 17 17 31 44 81 102 121 132 137 136 135 141 132 123 95 72 70 68 105 166 195 171 170 168 
197 197 201 200 206 209 208 213 213 219 221 223 224 222 225 228 226 224 224 224 224 226 226 227 231 228 227 228 230 220 221 218 102 29 26 26 22 19 17 21 15 42 83 124 135 139 150 157 162 164 168 168 159 144 133 111 81 73 77 95 153 199 164 162 
198 195 198 200 208 208 208 211 215 221 221 225 223 223 226 230 225 224 225 224 222 225 226 227 232 228 230 228 226 214 219 210 70 35 27 31 31 27 20 29 69 121 141 159 168 171 172 173 179 173 174 181 186 184 175 161 130 106 92 100 94 149 201 158 
198 196 204 201 208 209 209 212 219 220 223 226 223 223 227 228 226 228 226 226 224 228 230 230 233 230 232 228 227 213 219 195 51 27 28 30 23 21 36 103 149 158 163 177 179 187 185 187 193 185 187 186 196 192 179 164 153 146 119 119 90 97 151 173 
198 200 205 206 207 209 213 215 218 220 223 225 224 222 226 230 226 225 224 224 225 231 231 231 233 231 230 232 227 219 218 173 33 23 24 26 24 34 108 155 174 177 172 186 187 194 194 190 193 194 194 189 196 188 187 184 169 158 149 119 83 77 96 124 
196 201 202 207 209 209 214 218 220 222 224 225 223 222 228 230 231 225 225 224 226 228 228 233 233 231 231 230 223 210 208 138 27 21 26 26 27 109 158 171 181 184 185 192 190 198 189 194 187 193 198 190 196 197 195 188 188 185 169 150 106 77 48 84 
198 205 207 208 208 210 214 217 223 222 223 223 222 225 228 228 228 225 225 224 224 228 228 232 231 232 228 232 220 209 194 91 21 15 21 27 90 156 168 175 187 189 188 192 202 210 219 199 200 201 197 197 199 194 196 193 202 199 186 183 146 84 56 53 
201 202 207 209 211 209 213 217 221 225 225 225 223 225 227 228 227 226 227 225 225 226 231 232 230 231 230 231 217 206 169 64 9 11 13 61 144 169 177 186 186 187 190 192 207 205 208 199 198 206 205 210 209 202 201 198 195 198 204 207 183 136 69 31 
