P2
#test
2 2
255
0   11
10 255
