P2
#test
2 2
32
32     29
32 31
