P2
2 2
253
101 102
100 102
