P2
64 64
255
111 226 223 224 224 224 226 223 223 223 224 224 222 223 222 223 221 219 212 206 190 173 154 123 102 71 58 51 22 32 148 198 204 202 199 197 188 187 184 177 172 169 190 179 52 23 27 35 39 32 31 29 41 32 29 31 32 68 58 122 115 85 113 128 
111 226 225 226 225 226 227 224 225 225 224 224 223 222 222 221 219 213 208 198 184 164 153 118 97 72 57 45 21 49 170 205 204 201 197 189 186 183 179 180 173 170 185 198 123 28 23 31 35 33 31 29 33 28 27 32 54 160 142 80 117 176 141 135 
112 227 225 228 227 226 227 225 226 225 223 221 223 222 220 218 218 213 205 193 176 159 141 109 82 62 46 30 19 77 183 205 204 199 199 189 185 182 180 172 167 172 193 199 193 49 27 27 37 34 32 31 32 28 27 57 179 192 186 118 100 177 186 171 
111 227 227 228 227 227 226 225 226 225 225 226 224 221 219 219 213 207 198 185 167 149 121 90 64 48 37 22 11 90 188 206 204 199 197 188 183 183 176 169 157 172 195 198 197 120 29 23 31 31 34 33 33 27 54 171 202 192 189 175 161 147 164 179 
111 226 227 230 228 228 228 231 227 224 224 223 223 224 222 220 211 206 194 177 161 131 96 72 52 34 22 8 5 113 192 204 204 199 194 188 187 181 172 169 161 170 195 194 196 188 39 21 24 34 28 34 30 37 155 201 197 188 192 177 164 146 100 167 
115 228 227 230 227 227 228 230 228 225 224 223 224 224 220 220 211 200 190 173 147 111 78 67 36 17 8 1 5 124 200 206 201 198 195 187 183 179 169 159 148 175 188 188 200 206 107 24 21 29 33 27 36 123 196 199 196 190 177 167 158 149 142 128 
112 231 231 230 226 230 228 227 230 226 225 222 223 223 222 219 208 195 180 156 126 87 56 45 18 2 0 0 6 139 205 208 202 197 195 190 184 170 155 147 157 177 192 195 201 207 183 40 22 27 29 28 75 192 198 202 192 182 171 160 160 168 171 175 
113 228 228 231 231 228 226 225 226 225 227 223 225 224 220 215 207 192 166 129 91 58 35 27 0 0 0 0 24 156 207 206 200 198 195 192 182 164 160 155 170 184 194 198 201 208 208 97 19 22 32 44 164 199 194 194 184 177 164 157 169 163 167 175 
113 227 226 226 226 228 226 226 227 226 225 225 225 221 220 211 197 182 134 93 68 42 18 3 0 0 0 0 35 176 207 207 199 195 192 189 180 170 166 176 185 188 192 200 201 207 208 188 36 27 30 106 186 190 194 195 176 166 163 150 166 170 174 174 
115 227 227 225 227 226 227 226 226 227 226 223 222 215 214 202 185 156 100 68 45 20 2 0 0 0 0 0 60 181 206 209 198 198 192 186 185 172 174 182 187 193 196 198 202 205 207 210 96 26 36 161 188 187 195 185 177 162 162 162 170 171 170 177 
115 230 225 227 227 227 225 227 227 227 225 223 220 213 202 189 160 111 67 43 26 0 0 0 0 0 0 0 81 188 208 208 199 195 192 189 187 181 183 188 193 199 196 197 194 201 206 214 174 33 90 180 181 196 187 172 168 170 164 168 166 171 175 186 
115 228 230 228 228 228 227 230 228 226 225 223 217 205 193 167 112 66 28 6 0 0 0 0 0 1 0 1 103 198 209 202 197 194 192 187 180 176 184 190 196 195 192 195 195 201 207 211 211 77 144 170 180 198 175 166 162 169 173 181 176 172 184 187 
116 231 231 226 228 227 226 231 230 230 224 222 209 189 161 125 69 28 2 0 0 0 1 0 0 0 0 10 129 200 209 200 195 189 187 182 180 185 190 193 192 189 196 192 194 201 207 213 215 151 169 159 176 184 172 167 164 180 175 180 182 181 182 193 
112 225 223 221 221 221 223 225 225 227 221 212 194 167 120 74 24 1 0 0 0 0 0 0 0 0 1 26 149 205 209 199 195 182 177 175 176 181 193 194 187 189 192 185 195 199 205 214 213 210 167 170 183 187 186 179 174 175 173 181 182 184 187 188 
97 192 190 184 190 195 194 200 199 196 192 190 176 159 142 90 40 4 0 0 0 0 0 0 2 0 4 43 170 199 202 194 185 182 172 170 176 190 196 193 190 190 194 193 197 204 208 210 211 201 160 177 181 184 182 180 179 182 172 180 185 187 192 193 
71 136 137 145 153 154 161 164 166 168 162 163 163 166 163 167 150 111 66 30 3 0 0 0 0 0 0 59 176 201 193 188 186 184 169 163 175 188 195 193 196 193 193 196 201 205 205 211 213 189 154 173 173 185 185 182 181 183 182 183 185 188 194 194 
62 128 144 141 139 143 149 149 146 158 162 159 168 171 169 179 180 181 180 154 103 47 16 1 6 1 6 77 180 197 192 189 184 185 175 160 172 187 194 193 190 189 190 194 200 204 206 213 212 180 151 162 171 182 182 182 183 181 180 184 183 188 196 196 
72 155 154 153 154 154 151 158 151 157 162 160 172 177 183 184 187 189 189 186 177 149 84 26 9 3 8 90 181 192 193 189 189 184 173 160 180 189 190 183 177 182 193 196 195 200 205 207 211 169 150 155 161 170 190 188 186 181 184 183 188 190 197 198 
81 168 162 167 164 161 164 160 158 163 166 171 169 179 187 185 190 189 192 189 183 171 132 58 9 0 9 96 183 194 194 190 189 185 171 163 175 181 175 169 173 182 187 192 201 204 206 207 212 167 150 150 163 181 193 193 190 184 180 182 185 189 192 199 
85 173 172 175 167 163 167 166 161 159 170 173 180 182 187 196 193 190 194 188 181 166 122 58 15 0 3 90 172 182 189 188 184 175 167 168 171 171 171 176 174 183 185 190 196 195 205 209 205 162 147 142 162 182 196 196 192 186 180 186 185 193 192 199 
85 173 170 170 172 161 162 163 159 158 171 170 174 180 184 190 196 193 192 184 184 161 108 37 3 0 0 90 175 180 179 181 181 174 166 169 169 173 176 181 172 176 184 188 195 194 196 198 198 155 148 145 162 171 196 199 197 192 188 187 187 194 193 197 
79 166 167 172 175 175 160 154 155 156 164 170 177 179 184 192 194 194 184 181 161 131 69 11 0 0 0 81 183 196 181 174 177 170 168 175 172 174 177 177 174 184 185 184 188 184 194 196 194 158 153 134 158 172 187 200 202 193 189 185 188 193 192 201 
79 153 160 187 209 219 192 163 154 154 158 163 170 171 177 185 186 188 181 177 162 125 46 1 0 0 0 67 173 200 189 175 171 162 170 179 183 185 181 172 177 180 180 181 182 182 185 187 187 167 159 144 150 167 175 195 204 196 193 189 189 194 196 197 
70 144 153 186 210 232 228 198 167 154 151 158 163 173 176 182 181 183 183 170 141 86 23 0 0 0 0 40 144 192 190 180 170 163 176 188 184 185 175 167 176 179 180 177 177 177 179 177 185 167 163 146 160 166 175 186 201 196 197 190 190 192 195 198 
73 133 136 146 164 188 207 208 195 174 154 150 162 164 166 180 177 177 172 153 112 49 2 0 0 0 0 34 107 171 187 180 170 167 180 181 177 175 173 168 172 173 177 173 168 167 169 172 171 166 170 154 151 162 171 186 200 199 194 192 189 187 196 200 
59 120 120 110 131 155 192 212 211 197 162 153 151 159 164 172 170 173 159 118 66 14 0 0 0 0 0 51 81 147 180 181 167 170 177 179 177 171 168 171 169 171 163 164 164 162 160 164 163 149 168 159 155 162 172 187 195 195 193 190 192 190 193 198 
64 113 102 118 122 148 173 205 209 207 175 141 145 147 155 156 150 134 116 72 24 0 0 0 0 0 3 60 78 125 173 176 169 167 171 172 172 173 173 168 164 161 160 157 159 156 151 154 156 146 170 166 154 166 168 183 192 192 189 190 187 186 193 193 
64 123 110 104 111 133 148 158 175 185 159 133 134 135 136 135 125 102 59 18 0 0 0 0 0 0 7 56 91 137 179 170 154 158 162 169 171 170 167 168 161 162 150 160 155 158 157 149 143 135 180 173 161 162 167 177 187 188 187 185 187 183 188 193 
47 99 99 106 107 112 119 123 136 138 131 107 106 109 108 110 95 68 21 1 0 0 0 0 0 0 0 54 107 156 187 175 158 161 156 167 171 164 162 158 156 147 143 148 157 160 148 139 136 144 175 173 171 166 167 180 179 184 189 184 192 184 185 190 
15 64 94 103 93 91 97 84 73 83 73 72 57 67 60 60 44 20 1 0 0 0 0 0 0 0 0 59 143 164 181 183 161 159 164 170 163 162 154 147 143 136 125 139 120 94 70 43 30 109 176 176 172 169 168 177 179 182 184 184 179 185 188 192 
10 52 77 75 70 67 64 53 42 40 36 47 44 36 30 17 14 0 0 0 0 0 0 0 0 0 0 54 135 153 164 170 162 161 157 156 158 157 144 132 124 99 65 42 15 8 0 0 0 112 176 180 177 174 166 175 183 177 180 184 183 184 184 185 
10 40 44 51 55 48 34 22 23 24 29 29 19 8 11 5 2 0 0 0 0 0 0 0 0 0 0 48 130 146 157 155 132 107 104 119 141 149 130 96 60 41 19 10 6 6 5 1 1 124 180 181 180 177 173 180 186 185 182 184 186 189 186 185 
11 18 23 27 34 30 17 5 10 11 9 11 0 0 0 0 0 0 0 0 0 0 0 0 0 8 30 71 86 60 47 20 16 7 16 73 124 123 87 60 45 36 23 18 17 9 5 7 2 144 180 181 179 182 171 180 187 187 184 190 187 186 187 188 
5 7 26 22 22 20 8 5 6 0 0 1 0 0 0 0 0 0 0 0 0 0 2 58 112 132 86 44 20 6 0 1 1 7 67 105 111 83 65 52 37 29 21 16 11 11 7 5 6 158 183 177 179 180 177 179 186 189 185 185 186 187 188 187 
0 0 4 8 14 6 1 0 1 1 0 0 0 0 0 0 0 0 0 0 5 84 156 131 72 27 14 6 7 1 2 0 2 24 68 86 77 62 51 47 27 20 14 11 13 14 3 5 21 171 193 186 177 176 174 177 184 192 184 184 185 188 190 187 
0 0 0 0 0 0 0 0 0 0 0 0 0 0 0 0 0 0 5 62 167 149 98 49 23 20 10 13 7 7 7 3 20 47 72 66 53 57 47 29 16 13 11 14 15 16 5 7 41 182 192 187 184 180 174 182 182 186 182 184 184 187 187 187 
17 20 10 4 0 0 0 0 0 0 0 0 0 0 0 0 0 32 142 164 124 83 51 31 19 16 16 9 8 8 7 15 39 67 80 66 60 42 33 19 13 16 10 10 11 6 9 6 59 189 194 192 183 180 177 180 185 187 187 185 186 186 189 188 
83 162 156 118 86 34 6 0 0 0 0 0 0 0 0 4 95 180 141 106 64 33 18 15 11 18 18 10 8 8 7 33 62 75 74 62 49 40 29 17 19 17 8 8 9 6 4 6 77 187 196 198 187 177 179 174 185 184 183 182 185 185 185 192 
82 162 166 162 160 157 132 73 33 4 0 0 0 0 30 159 168 134 109 68 33 15 9 5 9 6 15 2 14 16 29 68 69 78 81 57 39 26 15 9 14 10 11 9 5 4 3 2 85 183 189 193 187 177 176 175 183 183 177 179 177 186 188 188 
87 163 157 151 148 154 158 161 144 117 58 13 0 33 154 148 132 116 73 39 28 20 14 10 14 14 11 7 7 18 46 79 84 68 58 42 31 22 15 9 10 11 9 9 8 6 9 8 118 186 193 197 190 182 184 172 181 182 183 181 184 183 180 186 
85 171 174 172 168 155 154 144 138 135 132 104 67 122 142 134 104 80 58 34 27 18 16 15 15 7 8 4 7 23 67 79 65 52 40 32 18 18 17 9 7 11 7 8 5 7 4 4 160 186 193 195 188 196 187 177 185 185 184 184 184 186 182 188 
87 174 177 169 169 170 159 147 135 109 84 85 112 121 128 103 80 55 44 33 21 16 16 14 15 10 15 9 13 36 56 62 53 45 34 26 11 9 14 6 9 11 13 8 4 5 2 6 151 181 186 196 198 193 193 187 185 183 180 181 180 185 190 196 
87 181 179 175 174 166 162 158 130 102 79 110 133 128 102 70 59 53 37 28 22 15 16 16 17 18 17 17 22 46 55 49 37 37 27 20 9 11 11 11 9 14 15 10 6 5 2 41 184 182 189 190 197 189 194 189 184 177 180 174 177 179 181 182 
92 177 179 179 170 170 168 156 137 81 86 128 130 106 77 54 51 36 28 24 13 17 13 15 10 14 16 16 32 47 47 44 37 28 23 13 9 8 9 8 16 15 8 10 6 5 6 70 188 189 194 189 197 200 199 192 185 176 181 175 180 185 179 181 
93 179 182 180 174 174 169 161 104 81 111 137 117 84 59 44 36 34 28 18 17 11 10 10 15 16 19 16 33 51 41 32 24 20 11 17 10 13 17 11 17 11 13 10 9 8 7 95 188 188 196 192 198 202 204 197 195 183 180 177 177 182 182 177 
91 177 180 179 176 172 168 122 73 106 119 128 95 78 56 47 37 30 22 19 16 17 10 11 18 15 16 26 43 45 33 23 18 21 17 18 20 19 16 8 8 14 13 9 13 8 5 119 185 190 201 185 193 204 201 198 196 187 183 176 182 181 179 180 
94 179 176 171 169 171 143 64 95 120 120 112 88 73 54 42 28 28 22 18 20 13 13 13 17 15 22 31 34 33 27 20 17 9 13 19 18 17 15 15 16 9 13 11 10 4 5 157 189 194 207 192 190 202 199 195 193 192 189 184 179 176 177 176 
91 177 176 177 175 150 67 75 117 121 112 98 72 62 47 41 31 23 19 17 15 14 15 14 21 20 27 29 30 28 23 18 11 11 18 13 16 13 19 15 13 9 10 9 10 4 7 167 188 198 206 202 200 202 201 193 196 196 190 192 184 181 174 173 
92 174 173 164 157 77 72 100 124 113 100 91 75 55 39 31 35 22 20 14 18 17 13 17 16 16 17 24 22 19 18 16 14 15 19 15 15 13 15 9 11 7 14 10 11 4 21 176 189 202 206 202 205 207 200 199 196 195 194 194 193 195 194 186 
91 176 168 147 74 74 96 125 128 107 95 75 55 33 26 21 18 19 18 18 16 15 16 16 21 16 17 18 18 18 19 17 17 16 15 9 15 11 9 10 10 16 5 7 2 3 36 177 187 202 206 200 207 202 196 196 193 196 195 194 194 194 194 193 
97 186 154 79 68 105 115 115 113 97 65 57 37 28 21 19 17 19 17 18 18 21 14 19 18 18 19 26 22 19 15 16 17 18 11 8 10 7 13 10 13 10 6 5 5 2 69 180 180 199 205 204 205 201 198 195 192 193 194 194 194 189 188 189 
90 166 86 88 95 99 108 111 105 81 59 41 30 22 17 10 7 8 13 18 13 15 19 9 13 17 17 20 21 20 15 16 13 15 14 16 14 15 11 11 7 13 5 6 3 1 93 183 182 199 202 199 205 200 199 196 194 190 190 193 193 192 190 185 
74 93 85 113 98 99 99 96 93 61 49 23 16 13 13 10 10 6 11 14 15 13 9 11 9 19 15 18 14 16 11 20 13 9 13 13 14 14 7 11 6 6 9 6 2 2 137 184 184 198 205 201 204 199 198 196 194 197 194 196 196 197 192 186 
39 86 107 99 93 95 103 87 70 47 35 23 17 17 16 11 8 13 13 14 8 14 6 11 10 16 14 15 14 15 18 19 13 14 16 13 10 16 10 9 13 15 14 10 5 6 168 189 189 201 204 202 204 204 200 196 195 193 195 198 190 188 188 187 
47 98 103 97 94 99 91 75 56 37 35 21 14 11 16 8 13 7 10 15 16 8 13 14 15 15 17 16 21 17 20 14 11 13 9 10 15 11 15 10 11 8 7 9 6 44 176 186 195 208 202 201 202 197 197 194 192 189 192 195 190 190 192 190 
44 98 102 98 111 108 78 62 40 32 20 17 17 9 14 11 17 13 10 8 16 0 13 16 18 15 18 19 14 19 9 13 8 18 10 16 8 11 13 10 14 7 9 8 8 78 182 189 200 208 207 206 200 194 195 190 193 195 194 195 192 188 190 190 
46 93 93 100 116 96 69 47 32 33 27 16 13 9 9 15 7 10 10 9 11 10 11 15 15 16 16 18 17 18 14 14 9 18 16 17 14 9 13 11 10 13 27 15 9 116 179 189 205 209 205 208 205 199 196 195 193 195 196 194 193 190 190 192 
51 104 109 119 102 74 61 45 31 28 18 18 13 15 10 9 8 5 10 13 10 13 13 10 13 14 16 21 16 10 13 13 7 8 11 8 10 11 8 11 13 8 6 7 6 150 181 193 202 208 204 205 205 201 201 194 192 195 194 196 193 193 192 189 
56 104 112 107 90 68 52 35 30 31 24 27 18 14 14 15 13 6 13 11 10 17 13 13 15 9 18 14 11 15 10 10 8 8 14 16 13 7 11 11 8 7 8 7 21 170 174 193 207 205 205 201 199 198 196 195 194 194 195 195 193 192 190 192 
51 111 100 94 81 59 49 34 27 28 23 21 11 15 14 11 9 9 14 17 10 14 10 14 13 11 15 10 15 15 16 13 8 7 10 13 14 11 8 14 13 9 10 5 48 175 186 195 207 205 202 201 198 197 196 193 192 193 197 195 194 196 192 199 
49 100 99 82 78 45 42 29 24 27 23 16 9 13 15 15 11 6 14 16 10 11 18 15 18 11 14 14 9 14 14 13 14 6 11 8 7 7 11 8 6 6 4 4 75 177 185 198 208 206 201 202 199 196 194 195 194 195 197 196 193 194 196 197 
51 91 79 74 59 44 42 37 30 26 19 19 10 18 17 15 11 15 15 15 16 15 16 17 17 17 13 15 17 18 13 13 15 15 13 11 14 14 11 11 15 13 7 8 83 173 187 196 205 202 208 204 202 200 196 195 197 197 196 194 195 198 194 199 
40 80 72 75 58 46 44 39 28 22 18 21 17 16 15 15 15 17 13 13 9 15 15 17 15 18 18 16 14 14 18 15 19 15 14 18 16 13 17 16 11 14 6 3 94 169 185 197 205 207 204 200 199 197 199 198 198 194 196 192 194 198 197 204 
41 62 66 60 49 43 31 29 23 19 15 23 16 14 15 14 17 19 17 13 13 13 15 18 17 16 19 19 16 16 15 20 20 21 20 17 17 15 15 14 14 11 4 5 112 170 181 202 204 204 198 202 200 197 197 194 198 196 195 196 199 196 198 202 
