P2
64 64
255
204 199 199 205 204 202 206 208 207 206 204 201 196 188 187 186 181 158 67 27 0 0 0 0 0 0 0 1 0 0 1 0 1 10 33 45 52 66 71 83 91 94 109 129 122 128 102 99 118 109 115 124 119 146 112 94 96 96 115 121 144 147 144 151 
201 199 196 205 209 208 210 207 206 208 205 197 198 193 189 182 179 157 57 17 0 0 0 0 0 0 0 1 1 1 2 0 0 9 16 47 60 64 78 88 88 97 110 121 131 128 106 96 102 102 107 122 123 124 120 106 98 94 104 125 122 136 145 147 
202 197 197 204 209 209 210 205 206 205 202 204 199 192 192 186 177 136 41 10 0 0 1 0 0 0 0 1 0 0 1 0 1 3 17 27 47 57 77 97 88 96 111 134 133 132 110 104 106 100 109 121 128 128 131 119 96 87 102 96 120 130 132 146 
206 202 204 208 212 209 209 208 209 206 201 198 192 194 192 185 177 122 35 1 0 0 0 0 0 0 2 1 1 0 1 0 3 6 14 29 58 55 59 84 99 99 115 124 132 135 117 100 103 103 113 122 130 128 119 126 106 98 96 103 113 124 130 148 
214 200 205 213 217 211 212 210 209 207 204 200 193 192 189 188 177 100 27 0 0 0 0 0 0 2 1 0 0 2 2 1 0 0 8 24 41 46 49 77 91 95 96 109 125 129 131 115 119 107 117 123 129 121 117 117 103 106 85 91 98 108 120 134 
214 211 209 212 214 211 212 211 209 208 202 199 194 194 188 187 171 73 15 0 0 0 0 0 0 0 0 0 2 1 1 3 0 1 6 23 42 48 47 68 86 107 96 104 107 119 121 117 123 109 111 119 130 131 129 117 113 88 83 80 103 97 119 135 
201 206 208 214 214 212 212 207 210 210 206 201 195 193 192 189 157 52 4 0 0 3 1 2 0 0 0 1 0 1 0 1 3 2 9 19 33 52 49 74 85 108 105 122 116 100 109 115 115 116 113 125 129 121 128 124 99 88 81 83 99 104 123 128 
201 199 204 209 210 210 212 208 212 207 204 204 198 194 194 182 126 36 2 0 0 0 0 0 0 1 0 0 0 0 0 0 1 1 5 11 29 46 61 57 79 99 97 111 123 116 117 100 116 110 124 113 129 133 139 122 103 92 80 81 87 99 107 118 
199 202 202 211 210 211 209 210 213 210 209 206 200 198 193 183 103 27 0 0 0 0 1 0 0 0 1 0 0 1 2 4 4 0 5 5 26 49 59 49 77 92 100 111 122 115 117 106 110 111 117 113 119 130 139 122 106 93 86 91 91 99 112 116 
200 197 200 206 211 212 211 212 211 207 210 204 198 198 192 170 68 11 0 0 0 0 0 0 0 1 1 0 2 1 2 0 2 0 3 9 31 46 56 64 68 81 105 109 122 110 116 108 115 117 118 118 118 135 126 112 106 90 83 80 95 94 108 116 
200 199 205 208 209 212 212 211 210 210 207 204 198 196 192 147 45 2 0 0 0 0 0 0 0 0 1 2 3 1 0 4 2 4 1 16 35 53 60 56 66 83 92 111 121 124 105 99 106 118 123 117 125 128 118 118 94 88 85 81 82 87 108 116 
204 204 206 209 208 215 213 213 208 204 208 202 201 199 185 108 28 2 0 0 0 0 1 3 2 0 0 2 0 3 4 0 4 5 6 8 31 52 57 59 73 77 87 99 104 119 111 99 97 107 128 125 126 129 118 108 85 93 83 79 83 88 104 105 
204 206 208 213 211 219 213 211 209 211 211 208 202 198 173 70 17 0 2 0 0 0 1 0 0 0 0 2 1 2 4 0 1 5 3 9 22 44 56 49 73 69 78 90 99 98 104 100 92 109 117 119 126 131 116 108 87 81 86 88 88 80 105 103 
204 204 212 211 210 215 211 212 210 209 210 200 197 194 136 48 2 0 3 0 0 0 0 1 0 0 0 1 1 0 3 3 0 1 2 6 14 39 48 49 64 72 86 79 91 97 94 96 83 95 102 122 125 118 106 100 86 81 85 106 95 87 97 107 
205 206 210 213 213 217 212 213 209 208 207 199 192 187 108 28 0 1 2 0 0 2 0 0 0 0 1 0 0 2 5 6 4 9 5 4 16 34 51 47 56 71 87 79 90 94 85 87 84 95 106 106 122 124 117 104 79 78 90 102 128 96 98 113 
207 208 213 213 215 219 214 213 212 211 209 202 196 174 78 17 0 0 3 0 0 0 0 0 0 0 2 2 2 0 3 1 5 5 5 8 10 29 40 51 48 71 74 78 92 85 83 91 95 98 102 113 129 129 122 110 92 93 95 111 102 108 113 123 
207 210 214 212 215 215 207 214 212 212 209 204 195 160 55 2 0 0 0 0 0 0 0 0 0 0 0 1 2 4 1 2 8 2 9 6 14 16 40 52 39 58 78 68 83 86 87 95 95 102 100 112 120 132 131 121 103 93 97 113 106 118 122 131 
211 212 215 214 215 218 214 217 213 212 209 204 195 125 30 0 0 0 0 0 0 0 0 0 0 2 0 2 2 2 6 7 8 6 9 10 6 16 30 51 45 65 72 73 82 92 86 92 90 100 109 111 117 128 130 123 107 94 91 100 117 123 120 121 
212 211 218 215 218 217 215 215 217 215 207 202 188 97 7 0 0 0 0 0 0 0 0 0 0 0 0 4 1 4 11 10 6 3 5 0 4 13 26 45 42 57 75 84 91 95 87 87 87 95 96 109 117 119 129 113 104 90 92 102 100 110 110 126 
213 218 219 218 218 217 215 218 217 214 209 200 177 54 1 0 0 0 0 0 1 0 0 0 0 0 1 0 3 2 5 4 7 8 10 5 9 7 27 43 35 54 70 81 98 93 92 85 85 91 105 105 122 125 126 111 118 98 91 95 110 120 126 125 
214 217 218 215 219 218 218 218 213 213 207 198 161 27 1 0 0 0 0 0 0 0 0 0 0 0 4 4 1 3 5 8 3 6 10 14 15 14 19 37 43 47 59 78 92 90 94 90 82 91 99 110 115 130 128 112 107 112 96 93 100 126 130 126 
214 218 219 217 219 219 217 214 215 212 205 193 131 7 0 0 0 0 0 0 0 0 0 2 0 0 1 5 1 7 8 5 5 2 7 17 11 10 19 26 34 51 57 66 84 86 87 86 86 96 99 105 116 124 124 117 107 88 91 108 108 119 125 135 
217 219 221 218 219 219 217 214 210 213 204 194 85 0 0 0 0 5 0 1 0 0 2 4 1 1 3 6 9 4 6 6 6 4 6 7 11 19 20 24 32 44 48 52 84 87 92 88 82 90 98 100 109 118 132 118 111 91 85 95 108 112 123 128 
215 218 218 221 219 215 217 214 208 213 204 185 43 2 0 0 0 0 0 0 0 0 0 2 0 3 2 5 4 4 8 2 14 8 14 9 7 15 13 23 24 36 45 57 65 78 82 77 80 93 99 104 106 118 130 133 118 96 93 88 107 118 122 134 
219 221 219 218 220 218 219 218 217 212 202 156 16 1 0 0 0 0 0 0 0 0 0 1 0 6 6 5 3 5 6 6 10 7 11 7 6 8 13 11 21 39 46 44 61 70 77 73 75 87 106 105 100 122 123 135 120 96 84 86 96 112 124 118 
215 220 219 219 220 217 218 217 217 208 200 97 5 0 0 0 0 1 0 0 6 0 4 0 3 0 1 8 5 7 4 11 10 10 9 6 9 16 10 15 27 28 40 46 60 65 65 71 75 79 87 93 106 115 122 137 121 96 84 92 95 105 122 119 
215 220 218 220 220 214 217 219 219 209 192 49 3 0 0 0 0 0 0 0 7 2 2 0 4 3 1 8 5 8 4 6 6 9 8 7 10 18 13 13 13 22 34 47 54 62 71 58 68 70 88 95 103 120 122 123 124 107 93 92 91 100 113 115 
215 220 219 219 220 217 218 217 215 206 158 11 0 0 0 0 0 0 2 0 2 1 3 2 2 0 4 1 4 1 3 7 10 11 5 4 7 7 9 18 17 29 29 46 44 58 59 55 59 77 95 96 92 106 123 121 112 106 94 82 95 97 109 112 
218 219 218 218 218 220 218 218 214 201 102 5 0 0 0 0 0 0 0 1 4 4 5 1 4 4 3 3 2 2 10 6 6 7 4 4 5 8 7 14 7 16 30 33 45 58 67 56 66 70 80 91 96 105 106 128 119 106 87 85 94 87 107 111 
215 219 218 220 220 222 220 219 212 195 49 3 0 0 0 0 0 0 0 0 0 1 3 0 1 1 1 4 7 6 6 5 6 7 3 5 11 8 9 8 7 14 16 34 46 37 49 51 67 74 79 94 93 103 102 113 113 103 97 90 79 77 92 109 
219 220 222 222 222 219 221 218 207 161 9 0 0 0 5 0 0 0 0 0 4 0 4 1 2 3 4 4 3 8 4 4 6 14 3 7 9 10 11 9 10 13 20 34 49 54 54 48 61 66 74 91 92 100 107 107 113 103 92 86 84 84 92 88 
219 222 223 223 220 221 220 212 205 103 4 0 0 0 0 0 0 1 0 0 1 3 5 4 1 5 2 7 3 9 5 5 7 7 9 10 3 14 8 8 5 10 22 18 36 47 46 51 58 64 71 85 103 105 99 113 109 104 99 86 78 72 85 85 
220 223 224 223 222 219 218 210 188 24 0 0 0 0 1 0 0 0 0 0 0 0 0 4 2 0 0 0 2 5 7 2 0 2 7 10 5 5 6 7 10 6 11 14 32 47 37 51 60 55 72 79 86 97 109 124 112 110 96 90 84 78 81 92 
223 223 223 222 222 220 217 205 134 10 0 0 0 0 0 1 1 2 1 2 0 2 1 2 6 2 0 5 3 7 1 4 2 8 1 6 1 6 4 10 4 5 15 13 14 31 45 58 49 56 61 67 88 103 110 117 121 122 97 88 83 66 78 83 
222 221 220 221 221 222 211 194 56 0 2 0 0 0 0 0 0 2 0 0 0 1 2 3 3 7 2 5 3 4 4 2 4 6 5 9 4 8 7 7 9 3 14 6 15 23 35 43 52 60 60 66 84 95 107 119 129 116 92 84 73 71 67 67 
221 223 221 221 221 217 208 161 9 0 0 0 0 0 0 0 0 1 1 0 1 1 2 0 1 3 0 3 3 7 3 4 4 4 2 5 8 7 8 6 5 7 6 3 10 15 27 42 52 54 66 67 87 96 104 109 123 122 94 87 74 70 60 69 
221 220 221 221 220 211 197 74 0 0 0 0 0 0 0 0 0 0 0 0 0 0 1 0 3 0 1 4 1 3 5 5 2 1 2 4 2 4 3 4 1 9 5 5 10 9 19 27 34 56 56 64 86 92 109 121 123 117 104 82 73 77 70 72 
221 220 220 220 214 206 158 15 0 0 0 1 0 0 0 0 0 0 0 0 0 0 2 1 5 0 0 2 0 1 0 2 2 4 4 3 2 5 4 2 4 8 5 4 7 15 16 27 31 35 39 48 82 93 98 112 113 112 103 91 78 71 67 73 
220 217 215 213 208 196 72 0 0 0 0 0 0 0 3 0 0 0 0 0 0 0 0 0 0 0 0 0 0 2 0 4 1 0 0 1 1 1 1 7 1 7 4 3 4 5 11 13 27 42 35 47 61 79 98 106 111 115 102 85 72 65 71 57 
215 214 214 211 197 143 6 0 0 0 0 0 0 0 0 0 0 0 0 0 2 0 0 0 0 0 0 0 2 0 1 0 4 1 1 3 2 5 0 4 3 5 7 9 3 4 9 15 21 29 33 45 55 62 84 96 105 99 113 95 71 67 58 65 
211 211 209 197 170 42 0 0 0 0 0 0 0 0 2 0 0 0 0 0 0 0 0 0 0 0 0 0 0 0 0 1 0 2 0 1 0 3 2 5 0 5 5 3 9 1 2 6 17 15 30 30 34 51 75 85 98 100 106 84 71 56 56 53 
204 199 194 171 85 4 0 0 0 0 0 0 0 0 0 0 0 0 0 0 0 0 0 0 0 0 0 0 0 0 0 0 0 0 0 1 1 0 1 5 0 1 3 2 13 7 6 0 8 13 21 26 36 39 55 77 85 94 99 84 62 49 55 49 
197 188 181 134 29 10 9 10 15 7 9 7 1 0 0 0 0 0 0 0 1 0 0 0 0 0 0 0 0 0 0 0 0 0 1 0 0 3 2 4 1 1 7 6 11 16 15 3 5 6 8 11 26 26 36 55 67 79 82 66 54 40 41 37 
220 218 215 211 207 197 193 196 195 195 189 185 173 161 136 112 98 79 52 22 5 1 0 0 0 0 0 0 0 0 0 0 0 0 0 0 0 1 1 6 3 1 0 11 2 13 11 14 7 6 0 7 13 24 35 37 44 55 56 48 43 24 30 30 
218 214 215 214 212 210 211 209 208 210 209 210 208 209 210 209 210 208 209 201 183 145 104 64 24 4 0 0 0 0 0 0 0 0 0 0 0 0 0 0 2 1 0 2 4 3 2 9 16 4 0 7 5 16 22 26 31 33 33 29 28 20 14 23 
219 219 219 214 218 212 213 212 217 213 213 218 214 213 214 213 217 214 217 215 210 212 209 209 200 171 121 68 10 2 0 0 0 0 0 0 0 0 0 0 1 1 2 1 1 0 1 2 5 1 3 6 1 9 7 14 26 26 22 23 21 16 11 23 
219 221 219 217 220 217 220 219 218 222 219 217 215 218 220 217 219 220 219 218 217 218 218 217 214 214 212 207 195 147 83 29 5 0 0 0 0 0 0 0 0 0 0 0 1 0 0 3 3 0 1 3 0 2 1 1 5 7 14 16 16 9 0 8 
222 221 220 220 220 220 222 219 218 219 219 221 215 220 221 220 220 218 220 217 218 219 219 219 215 217 215 212 213 211 208 197 164 115 85 40 11 4 0 0 0 0 1 0 0 1 0 0 0 0 1 3 0 0 0 1 2 10 10 15 8 3 2 3 
222 223 222 221 221 221 223 221 222 223 221 222 218 222 221 220 223 221 220 220 219 221 218 220 220 220 217 215 218 217 214 211 211 207 202 202 185 144 88 32 5 0 0 0 0 0 1 0 2 1 6 0 0 0 0 0 0 2 2 2 7 4 2 1 
220 221 220 222 222 222 222 222 223 223 222 224 221 221 223 221 220 223 224 223 224 224 222 222 219 223 219 218 219 220 215 217 217 214 211 210 207 207 208 201 156 82 21 5 0 0 0 0 0 1 0 0 0 4 1 1 1 0 0 1 1 5 0 0 
220 223 220 222 224 222 222 222 225 223 221 221 222 225 223 222 222 222 223 222 224 222 222 223 222 224 221 221 221 219 219 218 221 219 218 219 215 215 212 213 211 210 195 124 56 10 0 0 0 0 0 1 4 2 4 0 1 0 0 0 2 3 1 2 
224 224 223 224 224 223 222 224 222 223 223 222 221 222 220 225 223 225 224 223 223 223 226 225 223 223 223 220 222 222 221 222 226 221 220 220 219 219 219 217 215 217 217 211 209 167 95 33 5 0 0 0 2 3 5 2 1 4 0 0 0 0 2 3 
226 226 223 226 224 221 224 222 224 226 222 223 222 224 225 225 225 225 228 226 227 223 226 226 226 226 224 224 223 224 224 223 224 223 222 223 222 221 220 218 221 220 221 218 218 212 211 194 146 74 22 3 3 4 1 5 0 3 1 1 0 1 1 1 
225 226 225 226 223 225 223 220 221 221 222 221 222 226 225 227 228 228 232 231 231 226 228 224 224 225 225 226 225 227 224 224 226 223 224 225 224 225 222 224 225 223 224 222 223 220 219 217 214 212 182 93 20 7 8 10 6 8 16 20 14 11 14 17 
230 227 225 226 224 223 225 223 223 221 223 223 226 226 226 232 231 233 232 233 231 230 233 232 228 232 231 231 230 232 228 232 231 227 228 226 226 227 226 225 225 228 226 223 225 223 225 222 221 220 217 210 139 36 15 15 17 26 24 36 29 30 35 39 
231 230 227 228 228 232 227 225 224 228 226 226 231 232 234 235 235 237 239 237 235 236 236 235 240 239 239 240 236 233 232 233 238 235 231 232 228 226 226 227 224 226 225 224 222 223 226 225 226 225 222 211 193 68 18 29 26 28 30 44 42 35 44 44 
232 232 231 226 228 233 232 232 232 235 235 240 238 240 244 241 241 241 244 244 243 244 244 244 244 246 244 244 244 244 238 236 240 238 237 239 240 234 233 233 226 226 224 231 227 225 226 230 231 233 237 237 218 108 37 29 34 40 36 45 45 48 52 59 
232 232 228 228 226 235 239 238 243 243 244 244 246 245 246 246 244 241 237 233 226 220 217 218 224 231 234 237 241 240 243 238 237 236 237 236 241 240 239 239 234 234 228 232 234 235 237 239 243 244 240 233 217 139 45 39 35 29 26 31 32 30 31 41 
230 231 236 234 232 236 237 240 244 245 246 245 240 231 223 208 197 193 186 189 196 198 202 201 206 205 207 204 205 206 207 210 213 222 231 232 237 238 236 241 241 241 236 238 241 244 243 240 236 226 215 206 197 106 55 53 45 35 30 22 14 5 2 1 
228 231 231 236 235 233 236 239 236 224 212 194 189 187 185 189 197 199 202 206 211 208 210 213 215 219 219 219 219 219 217 219 213 209 212 213 215 218 224 226 225 225 225 222 218 218 212 206 204 199 202 200 205 205 207 209 206 195 185 159 120 75 21 8 
227 226 228 231 232 231 223 205 195 194 194 196 200 199 201 201 207 209 210 213 211 214 213 217 220 221 220 223 224 225 224 225 224 223 223 223 218 207 206 200 197 197 195 201 198 201 204 206 206 208 212 211 213 214 214 220 220 217 221 220 221 223 211 156 
224 224 221 222 217 197 183 187 189 194 200 202 206 206 211 208 213 213 214 213 215 217 217 221 222 221 223 225 225 226 224 224 225 225 226 225 227 223 222 214 218 219 214 214 213 215 218 219 222 222 222 221 223 222 222 222 223 223 224 226 226 224 223 223 
219 217 214 200 193 187 187 194 197 202 206 206 209 212 214 213 217 214 214 215 215 217 218 223 224 224 224 223 224 225 226 230 228 233 232 230 231 230 230 227 225 224 222 222 222 225 226 227 226 227 227 225 226 227 226 226 223 224 225 227 227 227 228 227 
212 211 202 196 196 192 200 204 200 205 206 209 208 209 212 213 214 214 217 217 213 220 219 221 223 221 224 223 225 224 224 228 226 233 231 233 232 230 228 226 227 227 227 226 230 228 228 230 231 228 230 226 225 228 227 226 226 228 226 227 230 228 230 227 
