P2
64 64
255
20 42 40 61 60 61 64 70 65 52 34 28 13 2 0 0 0 0 0 0 0 5 6 23 1 0 0 0 0 2 2 0 0 2 0 0 42 174 182 186 185 181 170 193 195 194 201 202 196 199 197 202 205 207 208 207 213 211 213 215 212 212 210 206 
19 40 55 59 65 65 65 79 62 62 52 37 32 20 8 1 0 0 2 0 0 1 0 0 2 0 0 0 0 0 1 2 6 14 9 0 65 181 181 188 186 176 171 193 195 193 200 198 193 199 198 204 206 205 210 209 212 211 211 210 210 211 208 207 
18 46 57 67 56 55 80 103 83 80 55 51 45 45 27 16 4 0 0 0 0 0 2 0 1 0 0 0 6 2 3 5 4 3 4 0 90 185 188 187 184 179 171 195 192 190 196 194 194 199 204 208 207 208 205 208 211 212 210 210 210 210 208 205 
22 51 62 60 68 69 91 99 104 92 75 65 54 48 53 41 34 18 0 0 0 1 0 0 0 0 0 0 7 2 10 4 5 4 5 9 119 186 193 190 183 177 173 192 195 190 197 192 192 196 207 207 207 210 209 210 214 213 213 212 212 213 210 209 
15 42 49 52 67 71 112 112 102 98 79 75 57 59 53 43 34 28 21 2 0 0 0 0 0 0 0 0 7 8 7 1 2 0 0 7 144 188 189 189 187 176 171 192 194 190 193 188 195 199 201 208 209 208 207 211 212 215 214 215 218 221 222 222 
22 37 29 41 48 59 81 84 97 121 102 92 51 46 55 53 54 43 31 20 6 0 0 0 0 0 0 0 1 2 4 3 1 2 0 6 162 184 193 195 186 172 177 195 194 193 192 189 195 198 198 206 209 205 208 208 210 210 211 218 221 220 221 221 
32 71 58 52 43 42 44 41 45 51 56 61 66 56 54 41 47 43 37 28 14 3 0 0 0 0 0 0 0 0 1 3 0 0 0 36 168 188 194 198 189 172 177 199 193 196 199 190 194 196 198 206 207 210 208 209 211 211 210 212 215 211 213 207 
49 98 97 103 83 68 75 73 54 45 37 37 24 33 26 31 40 40 39 30 20 5 1 0 0 0 0 0 0 0 0 0 0 0 0 49 177 189 188 196 188 170 180 192 188 193 196 195 198 199 206 204 206 209 209 212 214 214 210 209 213 207 207 205 
62 126 119 117 104 96 98 88 84 79 70 59 56 36 30 20 10 18 23 28 18 7 5 0 0 0 0 0 0 0 0 0 0 0 0 80 187 188 189 189 189 166 177 192 189 195 195 196 199 197 204 201 208 209 207 212 210 213 212 214 213 207 205 202 
66 116 116 109 105 92 98 88 94 88 87 83 79 66 60 37 32 42 15 14 6 8 0 0 0 0 0 0 0 0 0 0 0 0 0 125 188 193 194 195 192 162 187 195 194 198 197 198 200 201 205 200 206 205 206 209 209 212 210 212 211 210 208 204 
54 104 91 80 75 73 82 73 67 62 69 65 65 59 49 47 43 44 37 28 17 15 19 20 24 24 24 29 30 31 37 31 24 15 18 147 181 189 193 193 186 159 186 192 196 197 195 195 198 202 207 201 207 207 209 209 209 212 211 211 213 212 214 205 
43 103 94 94 84 84 86 90 86 83 82 69 73 79 71 68 64 67 69 66 75 72 71 68 67 57 54 61 58 53 52 42 39 33 57 168 183 195 190 189 182 166 184 190 196 195 193 196 200 201 202 202 205 206 205 211 211 212 210 214 211 209 206 207 
65 120 121 113 106 117 109 103 100 94 93 86 91 77 79 78 81 70 73 67 75 77 75 61 68 64 58 60 62 59 58 49 51 43 84 171 190 195 194 192 181 166 185 186 187 197 193 193 196 201 201 204 204 205 207 206 210 213 211 211 213 211 206 202 
75 149 147 145 144 139 130 119 124 111 105 98 100 91 90 85 77 75 73 66 75 78 78 74 68 69 54 61 55 60 49 49 41 40 104 174 194 193 193 188 163 167 186 187 190 193 192 197 197 200 199 201 206 205 208 210 210 213 210 213 212 210 208 208 
87 174 174 166 164 160 160 151 147 130 130 117 111 100 98 95 87 92 83 74 71 68 74 72 70 65 61 65 58 60 56 52 43 48 130 179 195 192 193 182 160 170 192 187 190 195 197 193 193 197 198 208 207 209 212 211 210 210 208 212 207 211 208 207 
92 185 184 179 177 176 170 164 162 141 139 132 128 109 109 107 91 95 92 94 81 78 78 67 71 69 61 65 59 56 57 51 44 49 153 185 192 195 189 176 160 173 189 186 188 192 195 197 196 200 200 205 205 206 212 212 212 214 212 213 210 209 208 205 
98 195 196 195 192 185 182 179 169 166 156 156 148 141 134 130 110 106 102 97 85 83 78 79 69 74 68 67 68 70 70 58 52 74 160 181 190 194 188 167 159 179 184 187 190 190 199 198 196 201 204 205 208 209 210 208 212 212 210 213 210 210 206 205 
99 204 201 197 197 199 189 183 184 180 170 171 162 154 148 137 128 118 115 108 96 94 83 85 73 64 68 71 64 67 67 58 46 92 168 186 189 194 188 162 170 179 186 183 186 193 193 197 202 200 206 208 208 212 217 211 212 214 212 210 208 212 208 206 
103 208 209 206 206 199 205 196 193 182 176 177 170 169 161 150 141 125 121 123 106 109 94 84 77 73 77 67 64 58 62 57 51 119 173 181 192 188 177 153 170 184 192 185 187 189 192 193 201 204 205 212 211 211 215 214 211 213 214 213 211 212 209 210 
104 213 207 208 208 205 204 199 196 194 186 184 179 174 166 160 153 147 136 130 117 108 98 88 88 77 67 69 70 64 61 57 49 136 173 176 185 184 164 156 171 189 192 184 188 186 188 192 198 204 207 209 209 210 211 211 211 214 213 213 212 213 211 212 
108 217 213 212 210 211 208 206 200 196 195 189 180 182 176 167 161 160 148 148 143 132 115 105 90 71 73 58 58 49 53 52 58 156 162 169 183 179 160 158 171 185 186 183 186 186 188 195 197 200 205 208 208 212 214 210 211 212 213 212 210 212 209 214 
108 219 215 218 213 211 210 208 205 196 193 188 187 183 179 174 170 164 159 159 155 142 118 109 88 82 74 57 55 57 47 45 84 163 170 177 179 176 158 159 176 186 184 182 187 185 188 195 197 200 204 210 209 214 211 212 215 213 211 211 207 206 211 217 
107 219 212 212 214 212 211 205 210 202 198 192 192 186 184 182 171 166 161 159 157 145 120 105 99 85 71 68 61 54 40 39 115 161 167 180 183 179 155 162 179 186 186 185 183 184 190 195 196 205 205 211 209 211 212 211 215 213 214 212 210 211 211 214 
108 215 215 217 212 213 212 212 209 211 205 194 190 193 184 183 175 168 160 157 153 149 124 117 107 87 70 64 66 61 55 49 141 158 169 176 179 170 156 170 179 189 182 182 183 183 188 192 197 205 207 213 211 211 212 211 215 212 213 210 213 212 214 215 
107 218 218 215 214 213 212 212 212 209 204 200 196 196 193 184 179 175 174 162 161 156 142 121 120 104 86 77 70 54 49 69 147 166 174 174 172 158 161 169 182 187 182 180 177 184 189 192 195 202 208 209 212 214 215 215 215 214 213 210 212 213 214 217 
108 218 219 217 214 214 212 213 214 210 210 206 202 199 197 192 184 180 174 168 159 153 142 125 121 104 98 79 62 54 54 86 153 170 173 175 171 154 159 180 188 189 184 182 188 186 188 193 197 202 207 211 211 214 213 218 217 213 215 210 211 211 215 217 
110 218 218 218 217 217 212 213 214 212 210 209 209 198 193 193 186 181 179 171 163 154 142 134 116 109 91 74 62 60 51 110 154 166 169 172 171 153 166 179 186 190 181 186 184 187 193 189 194 202 208 211 211 214 215 215 215 214 213 209 211 214 213 217 
109 221 222 219 219 219 214 212 213 211 213 210 212 206 199 194 189 187 179 174 166 161 147 139 118 99 92 74 58 53 54 125 154 166 169 164 163 149 167 182 186 182 185 184 184 187 188 195 196 200 206 210 212 214 215 217 212 213 215 208 212 214 213 218 
111 220 223 219 218 218 218 215 214 214 215 215 215 210 204 200 190 188 183 174 169 158 144 143 120 96 85 69 60 51 65 131 158 166 170 160 156 148 166 181 186 180 184 183 180 184 188 189 200 201 202 207 211 214 215 217 214 215 212 211 213 214 213 218 
110 222 222 220 223 225 230 232 224 224 224 221 220 211 204 197 196 188 183 175 168 159 155 144 125 95 74 77 56 39 75 146 163 170 167 164 157 149 171 181 190 177 176 185 182 185 190 189 198 200 209 209 209 212 213 213 217 218 215 213 211 210 217 214 
115 227 232 231 233 238 236 240 236 237 230 230 222 211 208 197 192 190 185 174 167 154 141 122 107 103 73 64 46 32 92 146 157 163 161 162 154 151 173 182 184 172 175 181 182 189 188 193 199 205 211 209 211 213 212 214 215 215 217 215 213 211 217 218 
118 241 243 244 241 244 239 240 237 236 235 233 221 210 212 201 195 190 175 176 164 145 125 119 100 80 61 64 36 27 107 143 147 162 148 156 142 150 175 176 172 174 180 179 182 187 187 192 200 206 208 209 212 214 214 217 214 217 215 213 213 214 215 215 
120 244 244 244 245 244 244 245 244 243 236 233 223 211 210 198 193 185 173 169 160 139 113 105 86 71 58 49 31 37 115 132 144 148 147 148 145 156 168 176 170 172 174 175 181 180 184 188 198 205 207 211 212 214 215 219 217 215 214 217 214 215 219 218 
119 241 243 245 245 245 244 244 245 243 239 233 223 213 211 202 194 185 170 170 160 130 104 91 79 62 45 36 21 40 109 121 141 149 149 144 143 156 171 172 168 161 172 174 174 182 180 186 197 202 206 211 211 212 212 217 217 218 214 215 218 218 220 220 
118 236 238 240 241 244 243 244 244 241 241 233 222 214 206 198 192 183 173 163 141 104 92 80 62 57 37 27 17 26 81 104 128 136 133 134 132 146 164 168 166 159 167 172 173 181 179 186 197 205 211 207 211 212 212 217 212 215 214 217 215 215 220 221 
117 233 238 237 237 237 239 239 240 238 235 232 222 209 204 189 188 177 169 144 124 103 92 67 56 40 24 11 0 22 70 82 117 119 120 107 115 144 161 158 158 153 156 162 163 179 175 186 198 202 209 210 210 212 213 213 212 214 215 218 218 218 221 220 
115 231 234 234 232 230 228 230 228 230 227 224 215 210 200 192 188 176 159 133 110 87 75 64 35 27 14 3 0 15 53 65 98 102 107 88 94 121 145 147 142 149 154 155 161 169 175 185 192 199 207 207 208 213 213 210 208 213 213 213 214 218 221 218 
111 227 228 230 228 224 227 225 220 223 218 215 211 208 199 189 181 166 143 113 85 72 56 39 29 17 5 0 0 7 52 52 62 70 70 69 66 93 125 132 122 136 143 146 156 162 168 179 186 192 202 204 209 207 208 209 210 208 209 212 214 213 221 220 
112 224 223 224 226 223 223 220 220 215 211 212 209 205 197 185 170 155 124 94 70 52 33 29 15 9 7 6 6 20 48 70 87 95 115 88 81 74 107 108 100 107 125 120 133 150 158 166 179 188 193 197 205 201 205 205 201 206 205 210 214 217 219 218 
111 225 223 225 224 220 220 219 218 214 213 209 201 199 185 171 157 130 108 119 131 141 154 166 183 193 197 198 200 206 208 213 219 220 217 222 218 217 213 213 210 205 190 175 168 160 150 154 158 171 185 188 193 195 193 196 198 198 204 209 210 213 217 214 
111 226 224 226 222 220 220 219 217 210 208 206 196 186 168 163 171 186 205 208 210 211 212 213 213 213 211 211 212 211 213 213 217 218 217 219 217 221 218 215 217 219 217 218 218 220 220 215 209 204 196 195 189 187 183 183 188 194 194 201 205 209 212 212 
110 226 224 225 222 219 217 215 217 211 205 200 194 197 206 208 209 213 214 214 219 217 217 215 214 215 213 217 218 214 215 215 214 217 219 222 219 221 220 217 218 218 221 219 219 220 220 218 215 217 218 224 220 214 207 197 187 185 186 192 193 199 202 204 
110 223 220 222 222 215 217 213 213 205 200 207 213 212 212 215 215 215 218 217 221 222 221 215 217 218 215 215 218 217 218 217 214 217 218 220 220 225 220 220 219 222 222 220 219 219 218 219 217 220 221 221 221 220 220 219 221 218 214 211 209 204 201 200 
109 222 221 224 219 217 211 207 205 207 212 212 214 215 213 217 218 219 219 217 221 219 219 219 221 221 218 218 219 219 218 218 220 219 221 220 222 222 220 221 221 221 221 222 223 221 221 220 218 223 221 222 221 221 221 220 220 220 219 220 215 220 217 215 
108 218 215 220 215 211 208 206 210 209 214 217 220 220 218 219 220 223 223 221 221 221 220 220 221 221 221 220 220 221 220 220 221 220 219 219 220 221 219 221 219 220 219 218 222 219 219 219 220 220 221 221 221 220 219 219 222 220 222 222 219 220 221 219 
106 214 215 214 212 207 199 212 215 214 221 222 222 223 221 225 225 224 222 222 225 223 224 224 223 224 224 224 221 223 222 220 222 221 221 219 220 223 220 222 219 219 220 220 221 221 224 221 222 222 220 226 220 222 220 218 221 218 222 221 221 221 220 220 
103 209 210 206 196 192 198 210 219 222 223 223 222 225 227 226 226 227 225 224 224 225 224 223 223 224 223 222 222 223 221 221 220 220 222 222 221 221 220 222 221 222 223 221 222 222 223 223 222 224 223 223 221 220 221 221 219 219 221 219 219 220 218 220 
97 202 196 196 186 184 205 219 219 221 222 221 225 224 225 226 224 227 225 226 226 224 227 224 223 225 225 223 220 222 220 221 220 220 222 221 221 224 221 222 222 226 222 223 225 223 225 224 224 224 224 224 221 221 221 218 221 221 220 219 220 221 222 222 
99 198 194 192 176 182 214 217 219 222 224 221 225 225 226 226 226 230 226 225 228 226 225 222 226 224 222 223 220 221 222 220 220 221 223 223 224 220 221 222 222 223 221 224 225 223 225 223 224 223 222 223 221 223 221 222 223 220 223 222 221 222 223 222 
91 187 187 176 148 171 215 219 221 222 223 224 226 226 226 228 227 230 227 228 230 227 227 227 228 224 224 222 222 222 221 223 221 222 222 221 224 220 222 226 222 224 220 221 224 223 224 223 224 223 220 224 223 224 221 224 224 220 222 222 222 221 222 222 
84 163 156 138 109 162 219 221 220 224 222 227 228 228 228 228 227 227 227 231 230 228 228 225 227 225 224 223 222 222 221 225 222 222 222 221 224 221 223 224 223 224 224 226 225 224 225 225 221 224 225 223 224 225 222 223 222 221 223 221 223 223 223 221 
60 124 100 85 75 174 221 225 222 225 224 227 228 231 230 227 231 230 230 230 226 228 227 226 227 226 226 224 226 224 223 225 223 224 223 222 224 224 224 226 226 225 224 227 226 225 226 225 225 225 224 225 228 225 224 227 226 224 225 222 224 221 225 225 
41 74 65 46 59 187 219 226 224 227 227 228 231 230 231 232 233 230 230 233 231 228 228 231 228 227 227 227 226 224 224 226 224 224 225 225 230 224 226 225 224 226 227 228 226 226 225 224 225 223 225 225 225 223 224 224 223 227 224 223 224 222 225 222 
21 49 37 22 73 193 219 227 224 228 228 231 231 231 232 234 234 234 235 234 233 235 232 232 231 228 227 226 228 225 226 227 223 225 225 225 227 224 226 222 224 225 224 228 227 226 224 226 225 224 222 222 227 224 224 224 224 221 225 223 222 223 227 224 
19 41 35 39 177 188 212 225 226 227 228 233 232 231 232 232 233 233 233 233 233 234 231 233 231 228 228 227 228 227 228 227 224 225 226 225 226 226 227 224 225 225 226 225 227 228 227 227 228 228 223 222 226 225 224 226 225 226 224 224 224 224 223 224 
5 11 16 104 207 188 198 219 225 228 227 231 230 230 230 231 233 232 233 233 233 233 228 231 232 231 228 227 231 227 227 225 226 226 225 226 226 226 226 224 226 226 227 225 227 228 224 227 230 227 225 223 226 226 225 225 223 225 225 224 223 224 226 225 
6 14 42 169 210 186 184 208 222 225 224 227 230 232 228 230 227 230 231 230 232 232 230 232 230 230 230 226 227 227 225 224 225 226 225 228 227 227 224 224 226 225 226 225 226 228 224 228 230 225 224 223 227 222 222 224 222 224 226 222 220 225 225 226 
8 24 110 170 207 190 177 198 221 223 224 228 227 228 227 228 232 228 232 228 232 232 228 230 228 228 228 228 227 225 225 226 224 225 225 227 226 225 226 225 226 227 226 223 223 225 226 226 228 230 226 221 222 223 223 222 222 223 224 225 224 230 228 228 
42 139 172 192 195 122 149 181 218 221 223 226 224 227 226 228 232 227 230 230 231 227 228 226 226 227 227 227 226 225 227 223 223 224 224 223 223 223 222 225 225 223 223 223 225 226 227 228 227 232 227 222 221 222 222 223 222 223 224 233 233 232 228 226 
86 164 161 184 194 162 163 169 220 221 223 228 226 226 226 228 228 226 230 227 230 225 224 224 226 226 224 226 225 222 224 222 222 222 222 225 222 224 223 225 224 224 223 224 224 228 227 226 228 232 226 223 223 221 224 224 223 224 230 234 238 233 228 225 
82 153 134 180 182 161 154 183 219 219 223 224 225 230 226 226 225 227 227 227 230 227 227 225 226 225 226 226 221 219 223 221 222 222 219 222 224 222 222 225 217 220 226 224 225 226 225 228 227 230 228 226 221 221 225 224 222 223 228 235 238 237 232 224 
74 149 110 150 194 184 176 197 221 219 222 224 226 227 223 226 226 226 227 226 231 227 227 225 223 227 224 226 224 221 224 222 222 222 223 223 222 224 222 222 224 222 225 224 228 227 223 226 227 227 227 222 223 221 224 224 224 224 225 227 231 234 226 225 
72 154 124 131 193 201 187 200 221 222 222 222 226 227 226 231 226 224 225 227 230 227 225 226 227 228 224 226 226 224 225 222 224 224 223 224 222 221 222 224 223 225 227 224 225 223 224 223 226 228 226 224 221 222 225 224 219 219 221 218 219 221 220 215 
54 143 135 109 166 197 190 199 217 221 222 219 224 225 221 225 221 225 225 225 228 226 226 224 225 227 225 226 225 223 226 222 224 225 223 223 223 224 222 226 223 228 227 224 225 223 225 224 224 226 224 223 221 221 220 219 218 217 217 214 213 219 213 211 
