P2
64 64
255
52 53 72 95 104 107 109 108 111 111 113 115 113 115 113 115 112 115 116 113 113 112 115 115 115 116 117 119 120 120 121 115 43 37 42 75 103 113 109 117 121 119 117 112 95 47 34 31 39 36 42 37 37 37 39 37 39 51 80 85 66 42 36 35 
112 146 184 205 215 221 222 222 226 225 230 232 231 230 230 231 228 231 231 227 230 228 232 233 232 235 235 239 240 244 246 235 80 75 96 128 207 230 219 231 238 237 233 227 194 103 75 73 73 82 79 77 84 73 74 72 62 61 105 133 104 85 79 67 
147 193 210 218 219 224 223 227 230 231 233 234 232 231 230 232 230 232 233 230 231 231 232 232 234 234 235 239 241 245 248 186 53 74 85 125 209 227 220 218 211 224 233 227 195 115 95 84 85 79 74 78 75 71 74 78 56 54 65 79 77 75 81 78 
193 210 218 221 223 224 226 233 233 235 233 232 232 231 233 233 232 234 233 232 235 233 233 232 234 236 236 236 239 244 238 121 57 52 78 123 210 227 221 222 219 207 207 187 164 174 181 159 141 150 128 120 102 69 74 71 73 71 72 66 67 74 72 78 
219 225 225 225 227 231 232 236 238 237 234 232 233 233 232 234 235 237 236 235 237 235 235 233 234 235 234 236 239 243 206 94 96 75 56 131 219 231 236 233 217 218 212 185 172 201 226 218 219 222 205 214 197 111 75 59 59 68 70 62 54 62 64 68 
213 226 230 230 231 234 232 237 237 236 234 234 234 234 237 236 236 238 237 237 237 234 233 233 233 236 233 233 235 239 160 95 106 145 130 156 224 233 232 233 226 223 222 221 205 188 207 213 209 201 187 184 200 211 174 108 73 58 60 64 53 67 59 61 
78 148 220 233 236 234 235 239 237 236 235 236 237 238 240 237 239 239 238 239 240 235 237 233 233 234 233 233 234 225 120 109 110 132 202 192 239 235 230 234 233 232 227 228 225 194 201 227 225 221 206 196 188 215 213 208 171 100 55 49 49 58 59 78 
61 62 82 169 233 240 241 238 237 237 239 241 241 239 243 240 239 241 239 239 239 235 234 233 231 231 230 228 226 190 106 110 123 141 183 201 232 238 233 234 234 238 240 244 227 221 193 205 204 209 211 209 200 208 219 219 215 207 143 44 19 36 56 95 
60 60 58 57 110 211 240 243 241 243 243 244 241 240 240 239 238 238 238 238 236 233 230 226 224 223 224 223 192 122 124 141 148 151 185 198 231 239 238 233 238 243 244 243 224 214 181 192 207 221 212 207 209 206 217 219 221 219 217 162 30 10 66 139 
60 61 67 61 59 73 167 238 249 247 247 246 244 239 237 235 236 237 237 235 233 232 226 223 221 217 214 188 130 106 146 144 142 162 192 198 226 237 241 233 232 240 241 224 171 189 213 215 215 232 232 211 206 208 217 221 219 222 221 214 176 67 108 157 
59 61 57 60 58 64 60 110 218 249 250 249 247 241 239 237 237 236 234 233 233 228 224 220 213 207 195 122 88 100 145 148 136 155 196 198 219 236 241 236 230 236 239 202 160 206 227 230 228 217 220 220 219 214 223 224 222 222 221 221 219 195 157 162 
64 62 55 60 62 60 66 64 75 170 241 251 249 244 239 236 236 234 231 228 225 223 217 211 197 193 167 109 83 90 111 124 131 160 193 189 202 230 237 241 232 221 224 180 164 218 234 225 232 230 215 213 223 221 223 224 225 225 225 224 221 218 201 164 
64 64 64 66 64 67 65 67 64 62 118 226 249 244 243 238 236 232 228 223 223 219 206 194 183 184 163 124 99 88 88 94 108 160 207 184 186 217 233 228 220 207 196 167 189 219 237 235 218 217 225 208 219 226 226 227 226 227 227 228 224 222 215 193 
64 59 61 65 58 60 62 59 59 60 60 81 177 239 243 236 233 227 225 220 218 208 193 179 173 180 141 138 126 83 55 57 103 172 205 171 155 171 169 171 197 222 233 233 221 231 240 238 217 201 204 202 220 227 231 233 232 230 227 231 227 227 221 219 
60 65 64 62 66 64 61 60 64 66 59 64 59 120 225 237 232 225 221 211 205 190 171 159 161 116 99 122 145 95 36 34 98 187 227 196 147 185 172 181 205 226 237 240 235 227 235 231 226 219 224 214 201 212 232 236 236 234 234 232 232 231 225 219 
59 59 59 64 58 59 58 62 62 66 66 60 62 61 95 204 227 221 213 198 186 171 147 120 116 117 119 138 159 100 105 112 145 204 220 193 195 217 214 195 205 220 236 241 237 221 226 233 227 227 238 224 180 179 231 237 239 239 239 235 233 233 230 222 
60 58 56 58 62 58 58 60 62 60 64 57 62 59 67 73 167 210 195 176 156 128 103 60 126 169 159 156 168 146 120 96 145 195 211 189 183 205 221 213 198 201 224 233 237 232 230 237 241 243 236 210 210 225 232 237 240 243 241 240 235 232 226 224 
57 58 54 57 58 58 59 60 58 65 61 59 62 66 65 67 73 142 160 125 99 74 52 100 169 179 177 166 170 143 109 95 147 190 212 195 167 197 222 224 196 189 200 218 241 238 237 239 243 237 222 221 227 228 233 238 243 244 244 241 238 234 231 227 
56 59 59 56 58 57 55 59 58 60 58 62 60 61 64 68 68 73 105 56 31 19 19 160 190 175 168 173 154 142 113 82 130 198 218 197 156 177 212 225 206 189 189 188 223 236 238 240 230 224 224 224 222 228 233 239 243 244 244 241 237 234 231 227 
58 61 58 58 60 56 58 58 58 64 66 62 64 61 62 64 71 70 79 69 10 1 39 180 189 171 144 147 150 132 113 93 88 167 204 180 169 167 182 217 207 200 194 182 194 241 239 225 225 224 225 226 222 226 233 239 240 241 239 240 236 233 233 231 
57 59 57 56 57 55 56 58 64 64 61 65 69 64 62 61 61 64 65 73 59 14 98 185 182 168 153 141 145 133 111 87 87 143 154 172 171 181 181 201 202 200 195 192 184 227 228 223 224 227 228 234 236 237 237 239 240 239 238 235 235 233 232 232 
56 60 59 56 57 56 53 57 55 58 56 65 64 67 60 60 59 64 60 64 65 82 151 182 173 156 144 133 133 112 96 66 117 110 110 141 128 167 190 206 210 217 211 208 218 223 225 224 228 233 238 240 241 243 243 241 240 237 234 232 233 233 234 233 
57 56 56 55 56 57 58 59 58 56 57 60 61 51 59 62 60 59 65 61 64 64 100 155 158 131 112 109 116 106 93 75 156 103 107 158 177 196 206 209 211 215 223 224 226 225 224 225 232 236 240 244 246 246 244 243 240 235 232 231 228 230 233 235 
55 62 58 57 51 56 57 59 58 60 58 58 58 57 60 57 57 59 61 62 67 62 66 70 102 102 84 92 84 83 86 137 184 99 142 162 186 197 204 212 213 218 222 225 225 227 226 225 231 237 241 244 245 245 244 244 240 233 232 231 230 232 232 233 
56 52 61 56 58 53 56 58 60 59 58 54 58 58 56 59 54 55 54 58 64 64 65 64 65 72 82 95 85 80 88 133 122 115 143 167 185 196 206 209 210 213 220 222 226 226 225 228 234 237 240 243 244 241 243 238 233 231 231 231 232 232 232 234 
53 55 55 61 53 55 54 56 54 57 53 57 52 54 53 55 56 54 53 58 61 61 58 58 64 68 72 79 102 129 116 94 98 110 137 166 180 190 204 209 209 212 218 222 224 225 230 231 233 238 238 238 240 240 239 236 234 231 231 231 231 232 233 231 
54 54 56 51 55 57 58 57 55 57 57 56 56 49 52 49 56 59 54 60 55 56 54 55 56 60 61 66 74 108 162 156 103 106 125 160 175 188 199 206 209 211 219 221 224 228 226 231 233 236 235 238 237 236 235 232 230 228 227 231 230 231 232 228 
51 52 56 56 55 57 58 61 53 55 56 59 55 58 56 56 53 48 54 59 51 59 54 55 54 52 55 58 60 77 93 121 162 130 118 147 173 186 193 200 208 211 215 222 224 226 226 230 231 231 231 228 233 232 230 231 232 231 228 228 230 231 232 234 
48 51 53 55 51 64 58 60 58 64 59 55 57 53 51 59 54 54 58 59 56 57 56 58 57 55 55 59 56 58 61 65 83 116 150 150 167 181 189 197 206 208 213 221 223 227 226 226 227 228 227 227 232 232 231 232 232 231 232 231 231 232 233 235 
55 54 54 54 56 57 59 61 57 61 58 56 56 58 57 58 53 60 54 57 57 56 53 52 54 56 60 61 60 54 56 57 60 60 75 129 174 172 186 198 208 210 217 220 223 226 226 226 225 227 230 228 226 227 231 232 232 232 233 233 233 231 232 233 
56 56 57 53 54 56 57 64 59 57 60 59 65 61 58 55 61 55 56 64 55 57 57 55 57 57 55 55 56 56 56 56 57 61 57 56 98 174 186 194 201 210 213 217 223 225 226 226 225 224 226 225 225 225 228 228 232 234 231 234 232 233 232 234 
56 57 59 54 54 59 60 56 60 59 57 61 61 59 62 62 60 56 51 59 58 55 57 56 58 56 57 59 58 57 56 54 54 55 56 57 54 70 161 201 198 207 210 213 220 223 226 224 225 226 226 224 223 224 225 228 230 231 231 234 233 233 232 232 
55 56 58 57 61 53 57 61 62 59 57 62 60 61 68 66 66 61 57 54 61 61 56 55 54 57 58 58 57 57 58 55 53 55 49 57 53 52 53 136 206 202 212 213 217 220 224 225 220 224 222 227 225 224 226 225 227 228 232 232 231 233 230 233 
55 53 57 64 60 59 58 61 58 62 58 62 57 64 65 66 65 68 58 59 57 72 57 56 55 56 58 58 55 53 57 56 56 55 56 55 55 56 53 60 120 215 209 210 214 218 222 224 220 220 223 225 223 224 225 226 227 230 230 230 230 231 228 232 
54 57 56 58 60 60 60 59 57 61 59 62 59 59 66 62 64 67 64 66 58 57 59 57 56 56 59 57 58 58 54 52 56 56 52 58 60 49 56 54 55 139 215 208 211 214 218 220 222 222 223 224 224 225 225 227 227 230 232 230 232 228 227 230 
51 56 51 56 57 59 58 64 58 57 61 62 66 64 64 62 55 64 58 64 58 61 58 57 53 56 57 60 56 56 57 54 54 52 54 54 53 54 53 54 60 61 149 212 214 215 214 218 224 223 224 225 227 225 223 225 227 230 231 231 233 228 228 231 
47 49 52 56 51 58 59 60 60 61 62 61 64 62 61 61 62 65 62 54 64 60 61 55 59 58 58 57 64 59 54 58 59 57 53 54 55 56 58 53 58 57 62 170 215 214 215 219 219 224 224 223 224 224 223 227 230 228 233 232 232 228 230 231 
55 51 52 54 55 60 61 62 60 61 60 65 64 57 60 61 64 65 65 56 59 57 58 59 65 52 60 57 58 57 56 58 55 59 55 60 53 58 61 59 60 61 60 66 195 218 220 222 223 224 226 227 226 224 224 225 227 230 233 232 232 228 231 232 
56 54 54 56 56 59 58 60 56 60 60 61 59 61 59 64 60 61 64 59 55 60 58 64 57 58 61 55 55 58 61 53 57 53 64 55 54 55 57 59 62 57 57 57 106 214 215 215 223 224 224 224 225 225 223 225 228 230 228 231 233 230 231 231 
53 54 60 51 51 58 58 61 59 61 61 60 64 60 60 58 58 67 59 62 58 59 61 57 53 59 58 54 56 56 64 58 58 57 62 57 59 61 59 61 59 51 59 58 67 149 215 215 223 223 224 223 224 223 223 224 225 227 230 228 231 232 232 231 
55 53 56 56 57 56 64 61 57 60 62 60 65 69 64 59 62 61 62 62 61 62 62 60 60 59 56 57 61 59 60 61 58 58 56 59 53 60 57 60 56 54 60 61 60 75 205 213 215 219 222 219 223 220 221 225 224 226 230 233 231 234 232 234 
57 53 55 57 57 59 54 54 55 59 64 60 60 65 60 61 62 61 61 62 61 60 57 61 59 59 58 59 57 52 60 56 59 58 55 60 57 57 56 62 59 56 60 62 69 65 126 215 211 212 218 217 220 219 222 222 222 226 228 231 228 232 234 233 
57 53 55 57 58 56 55 60 56 60 58 64 61 64 66 62 62 65 62 62 61 59 60 57 59 56 59 62 58 62 62 64 57 58 56 55 58 59 60 61 55 57 62 60 66 65 73 153 196 212 215 217 217 218 219 219 222 224 225 231 232 232 236 235 
56 57 57 58 56 54 56 60 59 64 65 62 59 64 58 58 65 66 62 60 61 60 61 58 57 59 58 65 59 59 55 58 56 57 61 60 60 58 64 61 58 59 57 60 61 62 60 103 95 179 210 212 214 215 219 215 220 222 226 230 235 232 237 235 
56 58 59 60 58 56 62 58 61 62 58 59 59 64 60 62 65 65 64 65 62 65 66 62 55 58 60 57 62 59 59 59 61 59 56 56 62 59 59 72 91 78 59 57 57 61 64 77 86 73 181 207 211 208 217 215 222 220 227 231 235 235 236 239 
59 59 58 58 59 58 57 58 58 57 58 56 65 60 64 71 65 59 62 64 67 61 62 64 55 62 64 61 59 60 57 57 56 64 56 53 57 57 58 56 58 90 70 70 60 60 64 67 99 56 83 184 206 205 211 213 215 220 225 231 232 238 239 237 
57 55 53 55 58 62 61 59 58 53 56 56 57 58 60 60 64 66 60 60 59 62 64 64 59 66 66 60 64 65 60 57 59 55 58 59 55 57 57 55 60 56 53 66 59 61 66 60 97 54 55 86 190 202 208 210 212 217 221 228 231 238 217 186 
58 57 59 58 60 57 61 58 57 59 61 57 59 60 61 59 60 57 56 62 64 64 62 61 64 58 60 64 60 64 60 56 57 56 62 56 57 54 57 51 64 62 64 60 60 64 61 60 82 57 57 49 104 199 201 207 211 217 222 228 224 195 167 150 
56 55 59 56 56 60 60 61 59 59 59 59 56 53 64 68 61 58 65 65 69 61 64 65 66 60 64 57 62 60 64 60 58 53 59 57 57 59 56 64 64 61 59 58 61 64 60 64 71 59 53 55 54 116 200 198 206 212 222 209 171 148 131 124 
55 54 56 54 57 60 61 59 55 56 55 60 55 59 72 64 60 58 58 64 65 60 62 65 66 61 61 57 59 58 59 59 61 62 56 58 59 57 55 61 56 61 56 65 61 61 61 72 66 56 53 55 57 55 149 189 197 208 185 145 125 95 86 71 
53 57 53 56 54 58 58 56 57 56 56 56 58 57 57 59 61 61 54 62 61 61 61 60 62 62 62 58 57 61 60 57 58 58 59 57 56 62 58 62 62 56 56 62 61 68 68 71 65 53 59 55 58 57 62 166 184 143 103 92 74 51 53 51 
57 52 56 55 59 57 58 59 56 54 55 56 56 59 59 57 58 61 59 60 60 62 61 67 65 61 68 64 67 60 65 56 59 54 59 55 59 67 57 53 60 57 56 58 62 68 62 70 57 56 57 52 56 52 57 79 111 59 43 51 33 22 31 40 
54 52 55 54 53 55 58 58 51 58 59 51 54 56 59 59 57 56 58 57 57 60 60 62 61 68 62 67 65 58 54 56 60 54 60 58 60 78 70 62 70 64 65 56 66 65 59 64 54 55 52 51 57 56 54 49 79 32 6 8 13 7 33 51 
52 52 52 56 52 58 55 56 58 53 54 56 57 56 56 78 84 56 57 58 56 56 61 62 58 70 70 62 64 61 60 54 55 59 60 69 67 72 80 70 60 62 68 64 61 65 60 62 58 51 57 48 56 53 51 52 53 57 0 0 9 19 31 45 
55 52 53 51 54 61 58 57 57 53 57 55 53 55 54 78 91 60 56 57 60 60 60 66 59 64 61 66 66 62 58 57 65 68 72 77 82 77 81 86 82 72 68 60 59 66 64 65 51 61 56 57 57 53 49 52 55 61 18 0 0 6 23 39 
54 53 55 57 55 55 58 62 66 58 57 57 58 55 59 56 54 59 56 54 60 66 66 74 74 69 55 61 67 64 59 59 67 69 104 96 90 88 87 115 144 91 75 61 56 64 60 55 65 78 57 64 55 52 56 59 57 48 47 2 0 0 7 34 
53 52 53 61 57 55 55 57 57 57 59 57 58 55 60 57 58 61 55 57 64 61 68 105 172 146 121 74 69 67 57 61 90 103 187 105 105 128 133 150 174 141 91 73 60 57 59 59 105 115 85 59 57 49 49 49 54 56 64 21 0 0 3 16 
54 56 60 52 57 55 56 57 55 55 56 57 59 58 56 52 54 56 58 61 60 64 79 129 163 159 171 157 126 86 68 71 96 115 102 104 148 174 174 169 170 153 107 70 65 61 59 69 136 149 90 62 60 56 47 59 62 55 67 54 2 0 2 5 
54 57 56 53 62 55 55 61 58 56 59 57 57 56 57 54 60 59 60 58 58 62 74 113 174 212 209 208 211 169 77 74 91 150 168 164 174 183 195 181 167 162 103 69 62 58 57 64 167 145 110 71 58 51 49 53 56 53 64 66 24 0 0 4 
57 54 51 58 59 62 61 59 59 62 65 61 60 61 58 58 57 58 59 60 59 65 77 159 211 230 225 228 223 211 171 134 122 173 194 198 204 209 211 204 166 173 129 85 66 55 59 62 182 163 147 107 77 62 55 54 58 55 65 71 47 0 0 3 
52 53 58 56 57 59 61 56 60 58 60 62 60 57 57 61 59 61 68 62 60 66 68 136 220 235 233 231 231 225 207 184 172 181 213 223 224 224 227 224 181 147 122 74 66 59 61 65 193 169 144 126 91 70 66 53 55 54 62 62 60 6 0 0 
53 48 53 58 58 58 58 58 61 59 60 58 65 58 60 60 61 55 60 61 67 70 66 113 209 233 239 230 227 230 226 187 182 207 224 233 236 238 236 235 220 177 106 78 62 62 70 81 193 153 133 120 106 91 65 57 54 58 61 64 65 31 0 0 
51 51 55 56 56 54 60 56 60 64 61 61 62 65 60 59 61 61 57 66 71 61 66 111 206 232 238 240 236 238 233 218 193 218 230 238 241 241 241 240 234 200 132 73 61 67 78 115 200 158 142 139 125 94 75 64 60 58 59 64 67 53 1 0 
51 56 49 54 53 53 56 60 59 64 60 60 56 66 60 58 58 60 62 75 61 64 74 132 205 227 235 239 241 240 240 235 211 214 228 235 240 241 243 238 231 206 125 74 61 70 88 125 189 132 137 125 106 82 77 65 58 55 57 68 69 73 11 0 
