P2
64 64
255
192 190 194 196 197 192 201 197 200 202 200 200 196 179 51 3 0 0 0 2 9 6 23 13 0 0 0 0 0 13 31 35 34 37 39 51 44 42 39 40 42 39 40 40 39 37 37 39 40 37 39 36 31 28 30 32 21 22 19 26 22 18 21 23 
198 192 192 193 196 195 201 196 200 199 199 198 198 181 48 1 0 0 0 4 11 7 28 26 6 4 4 0 0 0 5 19 33 36 42 43 42 42 43 42 33 36 42 41 37 39 33 37 37 29 32 31 27 22 20 24 22 24 22 28 24 20 20 20 
196 190 193 192 193 193 197 194 198 194 197 199 195 174 37 1 0 1 1 0 13 16 34 34 23 14 1 0 0 0 0 2 17 26 34 44 42 42 42 43 42 37 45 39 33 33 33 37 34 30 31 23 23 20 23 24 23 23 30 30 24 18 23 26 
190 192 192 190 192 196 198 195 198 201 200 198 194 176 28 3 0 0 1 5 16 40 44 42 37 21 18 8 0 0 3 0 0 2 14 33 33 47 42 43 37 39 36 34 35 37 30 32 29 29 24 27 23 24 23 24 24 26 34 31 24 22 23 27 
189 195 193 194 195 197 198 215 198 197 201 198 195 174 22 0 0 0 4 8 22 41 68 59 40 29 29 10 1 0 0 0 2 1 0 2 15 22 32 32 39 32 29 37 31 23 27 20 20 18 20 17 17 22 19 19 21 23 31 31 27 21 18 23 
192 195 198 196 197 196 196 194 198 200 205 200 192 171 13 0 0 0 0 16 23 43 73 67 58 56 37 21 3 0 0 0 1 2 1 1 4 0 0 0 3 5 7 11 16 15 19 22 24 22 29 22 18 22 22 22 22 30 26 27 24 26 17 23 
188 193 195 198 204 197 197 190 198 197 199 199 193 162 9 0 0 0 0 7 19 42 62 90 75 65 62 46 9 0 0 0 0 0 0 1 0 0 0 0 0 8 15 16 19 20 19 26 31 24 27 26 24 21 21 24 23 21 21 22 24 30 23 20 
197 196 196 204 199 196 193 194 200 199 198 198 195 151 4 0 0 0 0 1 7 35 47 83 85 59 83 66 16 0 0 0 0 0 0 0 0 0 0 2 5 14 18 21 20 21 22 23 54 21 17 19 26 24 23 26 21 23 21 19 20 26 33 33 
196 196 199 205 204 196 199 198 205 199 198 195 195 124 3 0 0 1 0 0 1 21 46 68 85 74 94 129 53 2 0 0 0 0 0 0 0 0 1 8 13 21 23 36 23 20 27 23 28 19 29 36 23 27 19 22 27 20 18 22 24 31 27 26 
196 201 200 206 200 199 194 195 205 200 199 198 192 96 1 0 0 0 0 0 2 10 27 55 65 65 96 192 150 19 1 0 0 0 0 0 0 1 7 8 11 18 28 23 20 21 27 31 28 17 19 42 26 24 21 27 23 20 20 22 28 40 28 22 
197 197 200 199 196 195 195 195 201 204 201 195 189 74 0 0 0 0 0 0 0 4 18 36 43 54 72 146 205 34 0 0 0 0 0 0 3 11 10 8 15 21 26 22 22 30 26 28 24 28 23 26 26 23 22 24 26 22 16 17 24 23 23 19 
198 201 202 201 197 198 195 195 200 195 198 194 184 45 0 0 0 0 0 0 0 5 4 9 26 36 47 72 194 80 1 0 0 0 0 1 6 10 14 10 20 23 26 30 32 28 27 26 37 31 28 28 21 27 29 23 28 26 19 23 23 26 21 27 
200 202 201 197 201 199 198 192 198 193 194 193 177 22 0 0 0 0 0 0 0 0 0 1 7 11 14 17 104 130 3 0 0 0 0 3 1 5 19 16 13 19 21 26 29 29 37 31 28 32 33 28 28 27 24 26 26 24 24 24 20 22 23 22 
194 193 199 194 197 198 195 195 193 187 196 196 166 10 0 0 0 0 0 0 0 0 0 0 1 6 0 2 9 57 0 0 0 0 0 1 8 13 17 19 24 31 19 31 33 40 31 35 31 31 28 33 23 28 30 21 18 24 24 19 21 24 29 27 
196 195 198 197 194 193 195 190 194 187 194 192 119 3 0 0 0 0 0 0 0 0 0 0 0 0 0 0 0 5 2 0 0 0 2 7 8 16 17 26 24 29 34 33 32 34 34 36 39 36 34 28 30 27 26 23 24 15 19 16 20 20 28 21 
193 196 196 195 194 194 192 196 192 199 196 188 67 0 0 0 0 0 0 0 0 0 0 0 0 0 0 0 0 0 0 0 0 0 3 8 15 22 17 22 28 27 32 35 35 40 37 33 37 31 26 28 28 28 28 26 22 18 21 23 24 26 26 21 
190 201 190 192 195 197 190 192 192 194 190 171 19 0 0 0 0 0 0 0 0 0 0 0 0 0 0 0 0 0 0 0 0 0 1 11 22 18 17 23 24 31 34 40 39 39 32 36 32 29 29 26 32 26 27 29 24 21 20 20 24 26 30 32 
190 200 190 193 197 188 186 190 185 188 182 144 5 0 0 0 0 0 0 0 0 0 0 0 0 0 0 0 0 0 0 0 0 0 4 11 21 19 21 26 32 37 39 43 40 40 32 28 31 39 29 27 29 30 26 22 19 20 22 23 27 29 33 27 
190 194 195 190 192 189 192 188 185 185 164 108 1 0 0 0 0 0 0 0 0 0 0 0 0 0 0 0 0 0 0 0 0 0 3 5 13 17 20 22 30 34 49 45 36 40 35 31 31 37 28 30 23 27 26 21 18 17 22 15 22 23 26 30 
194 204 198 190 192 188 182 187 181 170 189 45 0 0 0 0 0 0 0 0 0 0 0 0 0 0 0 0 0 0 0 0 0 0 2 8 18 16 20 28 29 35 51 44 36 37 39 39 33 30 30 28 21 29 21 21 21 17 24 27 28 32 33 33 
197 197 193 190 190 193 186 185 174 150 148 5 0 0 0 0 0 0 0 0 0 0 0 0 0 0 0 0 0 0 0 0 0 0 3 7 17 20 26 26 33 33 31 37 32 39 43 45 35 30 24 34 23 27 24 24 21 26 26 24 28 34 35 32 
199 196 192 186 190 180 187 179 164 102 28 0 0 0 0 0 0 0 0 0 0 0 0 0 0 0 0 0 0 0 0 0 0 0 0 8 16 18 23 26 31 30 37 30 35 34 34 29 34 30 26 27 26 21 26 23 21 26 24 28 31 34 31 33 
193 195 190 187 187 179 185 173 148 92 8 0 0 0 0 0 0 0 0 0 0 0 0 0 0 0 0 0 0 0 0 0 0 0 1 4 16 18 21 20 30 26 32 32 36 32 29 29 30 29 26 31 27 22 20 24 28 26 27 32 31 33 35 29 
194 198 189 190 188 182 186 169 120 133 3 0 0 4 14 16 21 21 18 13 3 0 0 0 0 0 0 0 0 0 0 0 0 0 0 0 7 16 14 18 26 32 31 31 29 27 30 35 29 27 22 28 31 34 29 32 29 26 27 33 33 36 34 33 
194 194 193 193 189 182 173 154 59 11 0 10 48 53 57 53 53 54 59 61 53 44 29 19 1 0 0 0 0 0 0 0 0 0 0 0 7 7 10 20 24 22 30 27 26 29 30 30 26 28 26 27 26 27 27 26 26 29 31 32 29 32 36 37 
188 186 189 194 186 175 160 95 11 2 47 49 53 62 69 65 56 53 58 69 58 54 53 52 45 29 11 0 0 0 0 0 0 0 0 0 0 8 15 18 21 24 32 27 24 27 27 21 28 31 29 31 34 31 32 29 32 34 41 35 29 39 37 39 
196 189 193 190 183 170 116 20 4 26 44 44 61 61 60 57 55 61 59 65 62 55 53 54 54 60 48 33 11 0 0 0 0 0 0 0 0 1 5 16 19 27 20 29 23 24 26 26 30 27 32 26 29 34 32 30 31 36 34 34 31 43 43 41 
192 189 188 183 162 123 29 11 17 44 43 46 49 57 68 73 75 84 79 84 81 80 79 59 64 56 55 47 52 42 21 4 0 0 0 0 0 0 1 3 14 20 24 26 24 24 28 26 24 30 30 31 31 32 35 31 35 31 40 35 37 40 33 36 
194 189 183 176 129 41 1 1 28 35 43 41 56 64 84 96 97 104 107 105 99 112 97 88 82 72 62 56 56 48 53 45 30 11 0 0 0 0 0 0 6 15 11 23 26 26 29 30 29 31 32 35 31 31 33 36 39 36 37 35 40 37 37 37 
193 189 180 160 73 2 0 0 26 31 43 54 57 78 99 102 111 118 122 122 132 133 118 109 102 81 74 68 61 53 53 56 49 55 40 14 1 0 0 0 0 1 5 15 20 21 24 27 21 27 29 31 29 28 32 32 37 37 36 34 37 36 35 37 
193 179 158 91 8 0 0 0 0 11 45 56 62 81 92 104 132 142 159 154 168 176 154 132 119 105 95 82 83 66 66 65 61 58 61 56 55 36 13 0 0 0 2 4 16 22 15 20 28 26 34 27 33 32 37 40 36 40 37 41 34 40 39 42 
185 169 99 18 0 0 2 24 21 37 45 56 66 71 87 109 130 149 164 161 171 172 172 158 150 123 117 102 88 77 77 72 69 69 65 65 62 57 58 44 26 9 0 0 3 7 19 18 30 28 28 33 31 35 39 36 33 41 39 42 41 34 39 42 
161 134 39 0 0 1 32 75 60 45 43 48 57 70 92 120 139 151 176 185 189 193 187 162 158 158 141 130 112 90 82 81 84 79 69 67 66 64 60 64 65 55 39 15 3 0 6 14 21 29 28 31 35 33 36 35 36 42 39 39 39 36 42 34 
121 34 0 0 0 20 111 126 68 41 42 45 51 71 99 136 170 179 185 198 196 207 217 208 199 189 171 141 126 99 106 92 99 91 83 80 79 78 69 62 68 65 61 65 47 30 7 11 16 22 29 35 28 36 35 40 35 35 30 42 40 40 41 34 
36 0 0 0 17 95 144 105 57 43 37 45 52 85 113 162 176 185 186 183 197 206 219 213 225 224 218 210 162 126 124 107 111 116 109 103 88 98 77 82 80 70 75 65 65 49 54 46 21 19 26 22 29 30 33 39 40 35 33 37 40 37 40 35 
0 0 0 30 91 136 138 103 61 41 40 45 55 92 123 160 173 172 179 184 190 226 218 232 234 240 244 246 234 202 186 176 146 124 118 107 113 128 126 132 109 99 93 83 72 66 56 56 55 36 22 21 29 30 30 35 35 35 37 35 33 34 35 35 
7 42 108 160 159 158 113 102 85 61 42 52 69 93 116 143 144 153 168 176 179 238 217 232 238 246 246 240 246 238 219 218 213 186 166 151 137 162 169 186 164 155 164 159 126 84 83 82 62 57 46 39 24 21 26 31 33 31 31 32 33 36 39 31 
202 228 225 209 184 124 106 135 136 82 52 55 68 85 102 111 130 137 158 180 187 215 232 227 234 245 246 245 247 247 245 231 240 237 236 237 231 221 217 210 200 214 226 233 179 161 169 144 94 68 59 45 46 33 23 20 30 29 31 32 31 34 39 36 
230 230 221 204 189 105 98 123 110 84 59 57 67 92 106 121 134 143 150 170 175 197 223 234 231 245 248 245 241 248 247 247 235 237 244 245 248 246 240 230 234 245 245 244 215 232 231 208 150 94 78 60 52 55 41 24 21 21 26 31 31 31 31 30 
239 237 213 197 193 139 84 107 106 87 60 53 65 86 98 112 123 141 164 186 194 205 214 231 237 244 249 247 247 248 246 245 237 237 233 238 243 239 243 246 245 245 244 243 240 245 243 220 135 147 138 117 67 54 46 40 36 28 21 21 21 27 24 32 
241 234 201 186 187 143 99 85 106 119 87 48 59 75 70 78 97 118 145 168 192 208 219 219 235 235 245 246 245 248 247 246 243 245 237 243 238 238 234 234 246 246 244 220 241 246 243 188 155 160 189 163 123 110 60 47 44 44 32 22 21 26 22 29 
226 227 219 211 188 119 122 97 78 83 92 51 64 85 82 80 97 118 130 141 164 196 207 207 224 233 236 236 241 244 247 246 239 238 239 240 239 246 248 245 247 248 247 246 247 247 238 180 97 99 179 125 105 154 112 80 55 43 41 41 29 22 16 22 
149 130 91 119 148 150 118 112 96 90 78 44 61 75 74 93 102 112 111 126 154 161 192 198 209 220 224 227 227 227 233 237 239 243 245 245 240 244 248 249 247 249 249 251 249 248 236 189 100 92 118 96 92 115 157 106 70 56 47 45 45 44 21 6 
200 97 23 13 23 83 82 90 100 106 74 35 66 85 79 88 91 116 117 123 145 118 162 193 189 211 211 215 217 219 218 222 227 225 217 218 223 230 233 243 240 240 243 249 250 249 235 217 158 108 118 72 80 91 91 83 71 66 62 52 46 45 42 32 
107 67 42 1 2 44 42 31 46 82 67 30 53 70 104 107 108 110 109 128 149 135 142 160 175 181 184 185 197 197 201 202 207 213 206 199 188 195 207 217 226 232 232 239 244 247 231 234 201 123 120 78 83 71 68 56 65 70 58 59 52 54 48 47 
0 0 9 6 0 0 6 23 10 2 16 27 54 54 72 87 103 121 103 113 118 118 129 168 154 177 193 190 185 193 201 198 200 206 213 210 202 195 180 204 212 220 226 227 226 230 221 236 212 147 106 75 92 67 52 59 53 58 65 66 55 51 55 52 
0 0 0 0 0 0 6 11 31 5 9 39 61 61 65 65 64 73 72 77 75 73 74 94 113 133 157 174 185 189 198 202 199 199 201 206 206 199 205 214 217 221 225 215 213 215 215 222 205 137 112 103 85 55 48 46 46 48 47 49 55 57 58 57 
0 0 0 0 0 10 33 45 43 55 55 56 53 54 54 55 48 49 54 56 56 51 47 47 46 45 49 48 51 55 56 91 109 116 117 121 132 148 162 168 187 201 206 206 200 210 212 208 188 139 128 113 86 60 49 51 46 46 43 47 46 56 58 54 
0 8 39 55 64 71 60 59 56 58 55 57 53 52 57 56 58 55 56 57 64 59 52 51 45 40 49 47 43 47 44 41 41 41 35 40 40 37 36 43 47 58 68 81 95 110 107 110 122 118 107 106 86 58 46 45 43 45 44 49 48 43 46 57 
72 93 73 59 57 57 57 57 49 55 52 56 51 55 58 52 55 54 56 56 60 59 57 58 47 54 47 52 51 45 46 41 41 39 39 42 41 44 36 41 45 49 48 49 46 45 48 46 48 47 49 54 57 53 42 43 42 46 45 41 42 39 47 46 
69 56 51 57 52 53 51 49 44 52 46 52 48 48 46 45 52 47 52 57 54 51 49 52 57 61 49 48 55 55 48 44 44 47 40 42 44 47 40 43 48 42 51 45 43 49 45 48 49 52 51 47 48 56 58 53 65 71 60 48 42 42 42 43 
52 47 52 51 51 49 44 46 47 49 44 43 42 47 49 43 46 44 44 46 49 45 47 51 54 58 56 52 52 54 54 60 59 51 51 47 46 52 51 53 57 48 51 49 46 48 49 51 55 54 58 57 59 68 74 99 149 166 146 117 93 64 44 48 
48 44 52 48 49 49 42 51 46 51 43 40 36 46 48 45 45 48 46 44 46 45 42 48 47 52 49 48 46 51 48 52 52 48 54 58 58 58 62 57 51 48 47 55 44 46 47 52 46 53 55 57 64 80 102 112 134 170 163 160 142 136 116 85 
52 48 51 49 43 41 45 42 45 46 46 44 37 42 45 39 44 44 44 40 44 40 44 43 43 41 42 40 46 44 47 48 47 46 45 52 49 55 58 53 52 51 54 45 54 55 55 54 51 60 57 62 66 83 97 186 192 170 175 157 133 155 169 164 
49 54 53 46 45 47 48 42 40 45 45 40 37 46 41 36 42 44 52 42 11 30 35 41 41 36 36 39 37 37 45 43 47 36 42 47 46 47 46 47 45 44 46 42 52 52 52 57 55 62 69 66 80 104 153 214 220 212 227 196 174 170 182 160 
51 48 53 47 53 46 48 47 39 43 43 40 41 43 35 39 44 46 46 44 14 28 32 36 35 34 39 36 43 43 40 41 44 40 46 51 42 45 45 46 45 48 46 47 56 53 58 60 67 73 77 80 91 106 143 171 194 189 207 232 225 189 194 176 
56 53 49 59 57 51 51 47 52 46 40 43 37 39 39 42 45 45 41 40 37 42 41 33 36 37 37 41 40 42 45 44 43 41 42 48 52 48 49 52 46 44 49 46 45 52 60 58 67 79 80 92 115 139 168 175 190 174 146 223 233 176 162 183 
52 54 57 59 47 49 49 51 48 48 42 45 46 39 43 45 44 49 45 47 45 134 108 43 42 40 45 42 40 43 46 44 42 47 46 51 49 56 55 57 45 47 47 52 57 53 58 64 72 74 92 121 143 173 215 233 228 122 74 210 220 209 206 188 
39 46 57 51 47 48 45 48 46 48 53 51 51 45 51 51 48 59 55 53 36 146 208 92 51 43 47 44 42 47 46 49 53 53 57 52 57 58 54 56 54 60 57 57 57 59 59 64 67 77 124 208 141 166 227 241 233 146 181 175 228 215 227 217 
34 36 34 44 46 49 42 45 45 54 45 51 52 49 49 51 56 54 51 41 82 97 174 198 75 56 51 51 52 47 46 52 59 53 58 53 64 56 54 58 53 56 56 62 55 58 65 68 83 92 105 167 175 130 225 244 231 188 217 202 202 224 226 228 
39 37 39 36 33 39 40 51 43 46 43 37 46 46 45 48 51 57 41 96 88 123 163 194 113 48 49 47 46 48 47 53 55 51 56 54 55 54 60 53 59 57 61 62 58 61 69 86 90 97 104 150 193 193 168 231 204 185 224 224 205 221 231 230 
77 36 34 39 39 40 39 49 43 41 42 43 43 46 44 43 58 46 80 98 136 177 175 177 59 48 51 52 60 52 53 49 51 46 48 54 56 57 58 61 59 53 60 56 57 70 80 82 96 111 132 149 200 237 214 195 131 210 233 234 223 230 225 226 
105 35 33 43 42 40 37 44 42 41 43 44 45 41 44 51 57 24 71 99 183 171 182 83 49 52 51 49 52 49 45 43 47 41 48 48 48 53 54 57 60 57 59 56 60 85 81 82 93 120 148 172 195 241 246 225 188 212 234 234 228 236 231 223 
116 62 35 39 34 39 36 45 44 44 42 43 48 40 65 35 44 28 74 179 192 168 96 45 48 46 51 47 40 43 45 39 39 43 49 49 48 52 52 57 59 58 58 59 71 80 78 83 88 115 137 166 176 222 246 198 212 221 227 228 231 232 222 210 
