P2
64 64
255
4 10 17 14 29 52 66 78 147 147 166 173 177 182 192 189 196 194 197 204 205 202 209 212 215 218 227 233 236 237 237 236 234 225 217 212 212 211 212 220 213 195 198 230 231 197 190 192 196 199 210 212 218 219 225 211 156 115 105 130 144 161 182 188 
3 5 3 17 37 48 65 72 100 132 156 175 180 188 188 188 193 195 201 202 199 208 210 210 211 217 232 234 238 238 238 238 237 233 215 214 215 213 213 219 223 209 202 204 232 222 196 198 195 202 206 211 213 204 158 81 69 107 143 164 175 184 199 200 
3 1 3 16 22 53 66 77 98 128 154 172 180 185 184 189 198 195 201 204 201 208 211 213 211 222 232 236 237 239 239 238 236 232 219 213 215 211 209 215 225 212 218 200 207 232 221 220 207 204 202 204 177 120 74 88 124 145 164 179 186 195 202 205 
3 4 14 29 23 47 62 75 88 132 159 166 175 185 185 189 196 195 204 206 202 207 209 212 213 223 233 238 240 240 240 238 235 230 218 212 211 210 210 212 222 211 215 208 188 212 236 238 232 214 197 155 109 95 107 125 153 168 176 188 193 194 198 201 
0 0 6 21 34 49 57 61 86 131 156 168 175 186 186 187 197 195 204 209 206 208 210 212 213 225 236 240 241 243 243 239 237 232 217 211 211 210 207 209 217 223 205 208 193 183 220 244 241 214 150 110 110 129 137 153 168 184 186 194 196 201 196 200 
0 0 4 21 35 61 67 71 93 134 157 170 176 186 188 190 193 196 204 209 209 205 207 211 214 227 236 240 243 243 240 243 240 234 217 213 211 210 212 208 208 225 202 188 192 163 163 202 202 132 109 121 123 133 147 158 179 192 192 197 200 206 205 207 
3 2 10 15 33 42 58 68 91 124 161 162 177 181 186 194 197 199 204 204 202 208 201 207 218 231 237 241 244 244 243 243 241 233 213 213 205 212 210 213 206 213 208 158 151 157 136 141 115 109 125 117 124 141 160 176 194 196 192 197 201 207 207 207 
1 2 11 18 33 36 43 70 104 135 151 161 174 182 181 189 195 204 200 200 209 205 206 208 220 235 241 243 244 245 244 244 241 235 214 210 209 212 213 212 209 199 217 197 192 172 137 118 117 113 111 119 132 141 157 168 190 194 196 199 198 210 212 209 
1 0 4 14 31 37 51 70 100 119 137 158 171 180 184 184 192 198 202 202 206 206 208 217 225 231 239 243 244 245 244 244 239 232 219 212 209 215 214 208 220 206 187 154 131 119 108 115 116 107 115 118 133 139 154 171 183 195 196 195 200 206 210 209 
3 0 3 15 33 42 64 94 86 119 136 157 171 180 184 187 196 201 196 202 201 206 208 217 228 237 241 244 244 245 245 243 237 233 221 211 213 211 206 206 210 207 188 136 107 120 120 113 111 99 106 132 151 169 207 208 185 193 195 205 201 207 207 212 
3 0 4 18 30 56 87 93 96 109 144 154 168 181 182 183 193 197 204 196 199 208 209 214 232 237 241 244 244 243 244 243 237 227 222 209 211 210 210 208 210 206 179 144 124 108 107 104 84 126 144 193 227 228 205 169 180 189 195 196 200 207 205 214 
6 2 4 27 36 42 68 88 90 113 142 158 171 180 179 192 194 194 199 202 202 207 211 222 232 237 240 244 245 245 243 240 235 225 219 206 207 213 214 210 208 202 174 143 115 104 93 95 134 167 194 226 239 244 221 162 176 188 193 196 202 201 204 208 
8 5 0 16 30 44 62 82 90 111 137 158 171 181 184 195 199 201 201 199 204 209 214 219 231 238 240 244 246 244 243 240 236 225 212 205 204 210 209 209 208 200 167 135 104 88 94 118 183 221 238 243 244 248 245 179 174 180 192 200 199 204 207 209 
4 0 0 11 31 55 78 91 95 117 144 167 173 179 186 190 197 200 202 201 202 201 211 217 224 235 241 241 245 244 243 240 236 227 213 205 206 209 211 212 214 198 155 116 118 118 123 195 223 237 245 248 250 251 246 181 172 179 192 201 198 199 206 207 
9 0 0 9 30 49 73 96 104 109 142 160 181 180 182 182 190 194 200 201 201 200 212 218 225 228 237 241 245 245 244 241 235 227 214 209 204 208 209 207 209 180 136 95 122 141 213 235 244 246 249 250 248 218 181 160 177 184 193 198 197 200 202 211 
3 1 1 5 21 41 62 82 102 98 136 160 173 179 183 184 183 194 197 204 206 209 213 213 220 221 231 239 245 245 245 243 236 225 218 209 199 206 205 206 207 167 100 107 168 208 235 244 248 249 251 239 164 123 149 164 182 187 198 204 204 204 208 211 
3 0 0 13 24 41 55 74 97 109 129 147 170 177 179 183 189 190 198 200 207 205 211 213 212 212 221 236 241 245 246 244 238 226 221 213 205 201 206 209 201 104 106 193 212 228 240 246 249 250 223 142 124 139 158 161 179 195 198 200 200 204 206 213 
2 0 7 14 22 37 46 68 86 99 128 144 157 173 175 174 187 185 195 200 200 207 206 211 212 211 214 227 239 245 246 245 240 230 225 222 206 202 206 214 155 124 186 218 226 235 245 248 250 222 136 141 144 150 164 179 184 192 197 200 199 207 208 210 
3 0 3 11 22 44 43 61 81 100 136 143 157 168 171 173 181 183 190 197 199 206 200 206 205 210 215 221 236 241 244 245 241 235 231 225 212 207 210 157 143 156 211 228 234 241 247 250 222 130 126 141 157 167 172 188 190 192 197 198 206 211 208 213 
0 1 7 9 27 35 49 66 71 94 130 146 156 167 158 163 171 179 188 189 197 202 201 205 201 209 208 219 235 241 243 244 243 235 234 230 218 210 176 146 160 208 227 236 241 244 249 239 123 116 128 149 158 167 175 189 193 188 194 200 204 208 206 209 
0 2 4 18 22 39 46 55 59 83 111 136 145 156 161 164 163 173 177 181 193 194 196 205 208 210 210 225 237 241 243 244 240 236 232 226 220 202 137 166 201 224 237 240 241 247 244 144 104 121 129 147 158 169 175 183 185 189 196 202 204 207 207 210 
0 1 7 17 26 42 51 59 64 77 96 131 142 146 150 161 167 169 169 170 188 193 199 204 205 200 208 225 235 241 238 240 240 234 230 224 221 155 153 187 212 230 239 241 243 247 172 87 102 130 141 155 161 174 177 183 183 188 198 205 206 205 209 210 
0 1 8 13 30 40 49 57 62 82 98 130 135 143 149 150 154 160 176 173 181 190 196 201 201 198 208 224 234 239 237 238 240 235 227 225 181 154 164 201 224 234 239 241 244 215 77 102 105 125 141 155 163 171 179 176 182 188 199 202 206 206 207 214 
0 3 4 17 30 32 46 53 55 73 92 120 125 131 144 146 155 158 169 170 176 184 198 197 197 198 202 220 230 236 236 235 234 227 226 223 134 173 190 221 228 237 240 241 240 131 77 97 111 129 137 154 158 163 173 182 183 189 201 200 201 207 211 213 
0 1 9 4 33 36 43 58 48 64 75 98 100 129 134 137 151 156 168 166 167 173 190 194 189 187 200 208 222 233 232 230 230 225 225 188 155 168 207 232 235 240 241 243 226 78 73 86 103 119 125 144 147 150 168 175 182 187 192 200 200 205 207 217 
0 1 0 9 30 42 45 48 53 66 79 88 96 109 120 128 137 147 159 156 160 170 184 183 179 184 190 202 208 215 226 227 223 212 163 144 172 192 223 236 239 239 240 243 188 69 59 82 91 96 106 116 135 151 160 168 179 186 192 194 197 202 205 213 
0 0 1 5 21 22 40 39 53 56 68 77 78 82 91 102 121 135 139 139 142 150 159 164 162 168 176 190 193 204 204 171 113 94 96 172 175 211 231 239 241 241 241 243 218 211 211 204 177 139 97 102 120 141 153 161 170 181 193 189 197 202 209 212 
0 0 0 2 16 15 33 41 44 56 60 60 60 55 66 75 95 92 98 96 107 120 132 141 146 151 150 75 109 135 90 71 74 118 175 182 177 218 236 240 243 241 243 244 237 231 237 241 243 243 228 171 117 120 143 156 173 176 181 189 196 201 207 213 
1 0 6 3 15 18 32 32 44 45 42 49 46 45 56 60 66 45 61 65 55 66 81 100 106 125 94 22 49 46 85 107 149 196 218 188 188 224 235 239 241 241 241 243 240 238 233 228 235 243 243 241 224 157 131 150 159 173 180 185 190 201 204 209 
0 0 2 4 9 10 19 19 33 34 36 27 35 33 49 51 36 30 26 24 22 51 110 156 187 192 177 93 74 73 104 161 211 230 224 195 210 233 239 241 243 241 241 243 241 240 240 232 224 212 214 233 243 243 211 155 157 169 176 180 186 197 200 209 
0 1 1 4 7 3 11 19 23 18 28 42 32 28 37 22 18 10 5 2 58 171 208 212 212 206 183 143 111 112 188 206 218 232 222 211 227 239 239 240 243 241 238 239 239 241 241 240 237 223 225 235 240 244 243 223 158 162 173 173 180 192 198 207 
9 1 0 0 2 5 1 6 13 16 22 19 32 23 22 20 8 0 0 61 182 210 217 219 220 212 180 172 161 188 215 206 205 231 222 222 235 241 239 239 241 244 241 241 238 238 240 239 238 234 233 241 241 243 243 243 213 151 158 171 180 192 197 208 
14 4 0 1 0 3 2 0 4 2 8 14 19 4 7 1 0 0 36 172 204 215 220 224 220 196 175 226 234 220 208 186 196 225 215 221 234 240 239 238 241 244 241 240 241 239 237 239 238 236 241 244 244 243 243 243 243 180 150 167 176 189 195 200 
10 3 0 1 0 0 1 0 2 8 4 6 10 2 4 0 0 4 133 195 207 215 220 222 212 202 212 218 217 215 192 202 224 221 195 208 226 240 241 237 240 241 241 239 233 237 232 236 237 234 243 243 243 243 243 243 243 224 144 156 171 182 194 198 
3 0 0 2 0 0 0 0 3 0 3 1 1 0 0 0 0 48 177 196 207 217 219 218 214 214 219 218 220 212 202 199 210 228 196 209 239 243 238 233 239 240 238 231 232 232 225 227 231 241 244 244 244 244 243 243 244 243 166 147 158 180 192 192 
0 0 0 0 1 0 0 1 0 3 0 0 0 1 4 0 1 110 181 200 209 213 213 214 217 219 223 225 226 226 224 221 214 207 186 210 233 240 234 231 234 236 234 226 226 233 226 223 239 243 243 244 243 244 243 243 243 244 188 134 150 173 179 189 
1 0 0 0 0 0 0 1 3 0 0 0 7 0 0 1 18 155 186 204 208 214 212 212 218 222 228 225 231 236 234 230 226 222 212 217 228 233 234 235 238 240 241 240 240 240 240 238 241 241 243 244 243 243 243 241 243 244 208 134 149 174 184 187 
2 0 0 0 0 3 1 0 1 2 0 0 2 0 1 0 55 168 190 204 207 212 212 214 219 222 230 228 233 237 233 233 234 233 231 231 232 234 237 237 239 241 240 241 243 241 243 240 241 241 241 243 243 241 243 241 243 243 209 121 144 162 180 186 
7 0 0 0 0 0 0 0 0 0 0 0 0 4 2 5 74 173 193 206 205 210 209 215 220 225 231 230 233 235 234 235 236 235 232 235 232 234 236 238 240 239 241 243 241 241 243 243 240 241 244 244 241 241 244 243 243 244 205 121 139 160 161 175 
5 0 0 0 0 0 0 0 0 0 0 0 0 0 0 3 102 175 190 200 205 208 210 213 214 223 231 230 232 233 233 232 232 232 231 233 233 235 239 239 240 240 241 243 243 243 243 241 241 243 241 244 241 243 243 244 243 246 199 110 133 157 159 170 
73 2 0 0 0 0 0 2 0 0 1 2 0 0 0 1 108 177 190 195 201 204 208 212 217 222 228 230 233 235 232 233 234 232 230 233 233 236 239 241 241 240 240 244 243 244 244 244 244 244 243 244 243 243 243 241 244 245 184 103 130 147 163 172 
143 78 3 0 0 0 0 0 0 0 2 2 2 0 0 4 105 176 189 195 196 200 207 211 214 222 226 227 228 232 232 233 232 233 231 233 235 237 238 239 241 241 243 243 241 244 243 245 246 246 245 243 243 243 243 244 244 246 163 91 134 143 155 166 
123 99 64 1 0 0 0 0 0 0 0 0 0 0 0 2 107 177 186 192 200 200 202 210 211 220 226 227 231 233 232 230 233 232 231 234 234 237 238 238 241 243 244 244 244 245 245 245 244 243 244 244 243 243 244 245 245 247 153 92 121 130 146 158 
72 115 61 14 3 0 0 0 0 0 0 0 0 0 0 1 115 181 185 187 192 197 201 206 211 222 223 226 226 230 227 227 231 231 228 232 233 236 236 238 241 243 243 244 244 244 245 245 244 245 245 245 243 241 244 244 245 247 132 73 109 116 142 158 
156 139 134 75 47 24 11 0 0 1 0 1 0 0 2 4 122 176 188 193 190 196 200 205 208 213 220 225 225 224 223 224 226 227 231 230 231 236 236 239 241 240 240 243 243 243 243 244 245 244 244 245 244 243 244 245 245 245 107 73 86 121 130 154 
189 195 186 176 148 133 108 70 31 2 0 0 0 0 0 11 107 171 182 189 190 195 196 198 201 212 220 221 221 224 223 223 227 226 228 228 230 232 234 236 240 240 240 243 244 243 244 244 245 245 244 245 244 244 243 243 245 236 75 59 102 123 134 149 
201 196 201 194 186 175 163 145 108 66 10 2 0 0 0 0 92 161 173 180 189 192 196 196 201 210 217 220 222 223 221 222 227 226 227 227 227 232 234 238 239 239 240 243 245 245 244 244 244 244 244 245 245 244 244 245 247 223 57 53 98 122 132 144 
206 206 208 205 196 194 177 162 151 137 77 20 3 0 0 1 74 160 173 180 186 190 194 190 198 205 213 217 219 219 221 220 224 224 225 226 228 232 232 236 237 236 240 244 244 244 244 244 244 245 244 244 246 245 245 245 246 194 45 46 75 106 128 135 
206 205 209 210 207 198 195 183 174 159 123 65 13 0 0 0 66 171 173 181 187 187 192 193 194 198 206 212 215 219 219 220 222 221 225 222 225 227 230 231 233 236 238 241 244 244 245 245 246 246 245 245 246 244 245 245 246 150 33 20 52 84 99 120 
209 209 213 209 205 204 199 196 184 174 145 106 59 6 0 0 49 163 171 179 182 184 188 185 192 196 202 208 211 214 217 220 217 218 224 223 223 226 228 230 230 233 237 239 244 245 245 245 245 245 245 244 245 245 245 245 246 96 22 13 19 40 66 69 
207 210 213 208 207 207 201 198 193 177 162 142 102 43 3 0 43 154 167 171 176 179 180 187 188 197 201 201 209 213 212 214 214 217 220 218 221 222 224 225 230 230 231 238 239 241 243 244 243 244 246 245 245 244 245 244 232 48 11 14 24 33 37 47 
210 209 206 208 207 205 205 204 200 187 179 161 133 71 16 0 27 133 155 170 175 174 174 186 186 189 195 195 201 205 206 211 212 214 217 219 222 221 225 224 226 230 232 237 238 241 244 244 246 245 245 243 245 245 244 243 195 26 3 3 5 18 43 68 
214 212 210 210 207 208 204 207 206 198 189 173 153 97 39 2 9 110 159 164 171 177 175 181 186 193 190 196 201 200 202 211 210 213 215 215 220 219 222 223 224 225 227 233 236 239 241 244 243 241 241 240 243 243 240 241 139 14 2 5 48 115 151 116 
214 214 214 211 211 208 206 205 202 202 195 180 169 130 61 11 1 85 145 167 170 180 182 184 186 187 188 195 197 197 199 204 202 208 212 211 214 217 220 219 220 222 224 231 232 236 236 237 237 237 239 236 237 237 233 228 84 13 30 129 201 212 189 83 
213 217 214 211 219 217 214 219 208 206 200 189 175 143 84 14 0 40 115 156 170 175 174 184 185 183 187 189 193 197 197 199 197 206 208 207 209 213 215 213 218 221 224 228 232 231 234 236 234 232 235 232 228 228 226 186 34 102 207 228 224 189 107 53 
211 214 219 217 215 214 214 224 219 205 201 199 184 162 117 35 0 17 87 117 141 159 170 179 177 175 175 182 185 189 193 194 192 198 200 204 205 208 210 209 215 217 221 222 228 230 227 230 228 225 226 224 220 215 208 116 169 227 228 218 174 84 47 42 
212 212 215 220 221 221 228 234 231 213 201 202 190 172 129 56 7 1 57 110 122 139 162 168 173 175 170 177 183 181 182 185 184 190 193 193 199 200 202 200 208 212 215 220 219 223 222 224 222 219 215 211 199 194 189 208 223 223 202 142 62 41 40 45 
209 211 218 222 230 234 239 237 236 233 214 201 195 186 150 83 16 2 22 73 104 121 122 134 170 171 167 176 177 172 182 180 180 186 185 187 187 190 189 189 196 197 205 200 208 208 207 207 202 200 197 192 180 190 211 218 208 169 90 44 37 41 39 37 
212 214 219 226 232 239 239 238 238 235 230 214 196 190 167 106 29 0 9 52 93 108 109 135 151 158 167 167 170 169 174 171 174 180 176 177 174 180 176 177 180 182 187 172 183 188 185 184 180 175 171 173 195 207 209 188 125 58 41 39 43 40 40 44 
211 217 219 230 234 239 240 241 240 238 232 231 209 193 177 143 58 2 8 39 74 97 109 120 139 149 160 156 159 162 164 167 168 167 172 169 163 160 159 157 149 158 162 167 168 155 151 149 145 141 167 190 190 190 161 104 58 41 46 40 43 43 43 45 
209 215 221 231 228 238 241 241 243 240 239 237 219 196 186 158 66 1 0 20 55 84 106 113 130 141 151 157 159 156 153 156 158 160 161 156 149 145 134 134 134 131 136 132 109 94 99 88 102 157 177 173 170 167 128 69 46 43 43 36 37 40 41 45 
169 182 200 232 230 238 245 244 245 244 241 241 235 205 192 168 97 8 2 6 33 79 92 119 134 148 149 146 149 145 147 146 145 151 139 141 131 113 118 117 109 118 102 93 82 64 66 88 136 148 149 131 131 113 66 54 44 45 43 41 42 40 42 42 
189 189 175 177 208 239 244 244 244 244 243 243 234 211 196 180 122 10 0 1 27 57 80 99 109 133 135 132 133 132 117 123 126 132 121 109 107 95 97 95 94 98 81 68 53 55 75 108 111 112 112 96 71 80 42 40 37 40 43 34 41 40 39 47 
192 196 195 195 189 190 230 241 245 245 241 240 231 210 197 186 145 19 0 1 7 33 67 88 93 105 110 111 115 110 108 110 106 98 98 94 91 80 90 80 78 74 60 53 52 72 84 92 86 75 49 32 35 81 40 39 35 40 42 36 42 41 42 43 
