P2
64 64
255
26 47 49 43 44 44 46 41 43 42 43 43 42 42 41 39 44 39 42 45 46 42 39 39 36 39 37 37 35 41 37 35 33 34 33 37 36 33 35 33 37 60 88 104 109 111 108 98 51 24 22 14 16 17 17 16 22 56 83 83 79 88 102 108 
48 97 94 87 88 88 95 82 88 83 85 93 85 85 87 81 85 84 81 88 85 83 83 79 83 79 87 80 87 79 78 75 78 70 70 72 74 75 71 71 66 97 151 198 223 227 227 221 183 96 47 33 35 31 30 33 48 118 166 166 162 173 195 214 
47 102 95 91 88 86 94 82 94 95 77 81 82 84 84 80 81 82 86 84 84 83 75 92 81 96 80 84 87 83 84 83 78 84 82 80 75 74 68 66 70 66 108 166 205 220 230 230 223 198 128 61 44 37 33 31 59 126 162 164 153 164 186 211 
45 88 88 88 86 94 95 92 84 92 86 86 87 82 82 81 84 80 84 78 81 90 85 82 81 87 88 82 90 86 85 74 78 86 79 79 77 82 69 67 67 67 78 108 157 195 221 230 233 225 210 162 116 74 52 44 90 146 164 172 160 159 185 211 
37 93 91 91 84 88 95 94 91 83 81 85 83 85 83 82 77 78 84 84 85 84 81 85 81 91 83 81 86 80 79 85 82 75 84 86 74 81 74 72 72 73 79 74 103 145 195 221 231 234 230 224 210 188 155 135 141 162 168 166 149 149 186 213 
42 95 88 87 85 88 86 84 87 86 84 84 88 87 81 90 80 80 85 88 88 88 82 83 83 94 80 85 88 85 80 85 84 83 84 81 78 82 73 74 78 73 78 72 75 91 137 184 221 230 232 232 228 226 218 213 201 184 170 161 150 155 183 206 
39 92 84 78 79 90 84 86 85 79 84 85 77 84 87 88 88 73 84 82 79 83 78 78 82 83 80 91 84 81 93 86 90 77 78 80 84 85 83 83 84 83 84 77 78 79 77 121 181 213 228 231 234 236 231 230 226 205 182 158 158 162 184 207 
44 90 81 78 86 90 93 88 93 95 104 107 107 119 113 121 118 112 102 85 78 72 68 73 74 83 82 84 80 83 86 82 90 75 82 85 88 87 82 88 87 83 79 87 84 75 82 74 100 150 194 215 228 231 233 235 228 211 179 158 156 169 185 206 
43 93 105 109 108 117 119 128 130 130 143 153 167 182 184 185 183 181 169 136 104 83 69 71 67 81 73 83 77 73 77 75 74 75 82 83 81 80 80 84 82 83 83 77 80 84 79 84 71 75 110 161 197 219 226 231 228 207 171 145 137 162 187 211 
67 146 159 156 162 161 170 176 177 176 185 192 197 201 207 207 208 207 201 195 173 119 82 67 68 68 71 73 72 67 64 69 71 70 72 78 79 77 79 75 69 77 77 73 80 71 72 75 74 69 58 74 108 154 183 202 198 175 150 139 129 156 192 213 
91 189 193 192 188 189 195 192 189 193 199 204 206 208 212 212 211 210 209 212 206 181 133 79 64 65 60 65 65 59 66 57 57 54 61 65 70 68 66 62 67 68 60 64 59 57 66 60 58 57 56 55 66 71 74 102 108 109 120 137 132 151 187 210 
98 199 197 197 200 198 201 199 199 197 201 205 208 206 212 212 214 214 211 214 214 208 188 125 68 48 56 54 49 52 52 55 43 53 53 54 61 60 49 57 52 58 52 59 53 53 58 49 48 52 54 60 54 56 48 46 46 55 86 104 120 151 179 201 
98 197 196 201 201 202 204 201 204 206 207 205 206 209 213 211 214 214 213 215 215 214 209 175 99 48 46 46 44 49 53 44 55 69 68 56 55 45 45 48 44 46 41 43 43 44 46 45 48 36 43 43 42 48 46 55 64 77 71 72 81 122 171 194 
100 200 202 206 206 206 208 208 207 211 211 211 210 210 211 212 213 212 215 214 215 213 212 198 145 61 37 39 34 44 40 64 99 124 117 81 61 45 51 58 54 59 48 43 37 34 28 28 36 28 33 36 40 44 36 52 79 82 77 62 72 123 170 180 
98 205 206 209 210 213 212 212 214 217 214 214 211 213 213 212 214 215 213 213 220 215 212 210 176 83 44 44 41 43 45 93 149 177 171 134 95 81 93 116 117 106 97 80 65 44 32 29 32 29 31 35 33 36 36 54 82 111 77 56 77 135 170 156 
100 206 209 214 214 215 219 220 218 219 218 217 217 218 218 218 222 223 222 221 220 219 220 214 188 102 46 39 33 31 44 110 170 185 184 166 160 158 156 163 170 170 171 163 132 94 60 39 34 30 29 40 35 36 33 51 91 108 78 60 81 144 151 104 
100 208 211 215 215 219 218 218 222 219 220 225 228 228 224 233 236 235 230 227 225 220 219 215 197 98 40 34 32 34 60 111 160 175 176 176 174 176 183 192 189 190 192 189 182 169 145 104 69 34 35 33 33 33 35 54 91 95 66 52 99 149 122 52 
103 208 215 218 218 219 221 221 222 224 226 233 236 234 235 240 244 240 231 223 220 213 213 206 180 96 36 34 36 42 72 136 167 176 175 171 179 187 189 195 197 199 202 199 199 197 192 179 149 84 46 31 35 35 28 41 57 75 53 75 136 125 72 36 
105 214 213 219 220 223 224 222 224 227 227 230 235 234 231 238 239 234 225 220 217 212 209 198 148 77 35 34 42 67 121 162 169 173 174 179 188 195 195 199 198 202 204 201 202 204 207 198 190 161 96 37 24 18 15 13 16 26 51 132 151 121 51 31 
107 215 217 220 219 223 223 224 223 224 225 225 222 221 219 222 223 223 217 212 212 210 202 170 103 52 31 30 55 113 159 168 175 174 177 184 193 196 199 201 200 205 206 207 206 207 210 209 206 198 171 95 21 1 0 0 0 2 77 164 125 104 44 33 
107 218 220 221 220 221 221 224 222 220 222 220 219 217 219 219 222 225 225 218 211 202 199 147 71 35 24 42 92 147 172 171 174 177 185 190 194 197 202 202 204 209 208 207 210 210 209 211 210 208 198 168 51 0 0 0 0 20 128 166 115 78 36 32 
109 219 221 222 221 222 219 220 221 219 218 217 223 223 223 227 235 240 237 230 217 208 193 128 56 7 19 74 135 160 170 174 188 189 197 198 200 200 201 205 207 206 207 208 207 206 207 210 210 207 205 186 90 1 0 0 0 51 157 144 104 69 36 34 
109 219 218 219 220 218 217 218 213 213 215 214 224 232 234 233 236 244 238 233 215 206 181 115 42 3 48 128 166 172 177 181 181 189 195 198 201 201 207 206 208 209 207 206 207 208 208 209 211 209 202 184 99 11 0 2 15 103 167 123 105 71 37 42 
108 214 215 217 218 220 217 217 213 220 218 215 226 236 243 239 239 238 236 228 218 202 144 79 27 23 78 151 174 179 179 185 190 195 199 205 207 206 207 206 207 209 207 208 207 206 207 208 209 202 192 168 105 28 11 22 66 146 183 113 95 51 35 33 
105 214 217 217 217 214 219 218 218 218 218 217 218 227 237 237 233 231 230 225 209 176 106 48 29 57 122 156 173 180 184 192 198 199 200 201 206 204 208 204 202 205 208 211 215 213 205 199 204 196 179 147 68 30 17 36 109 170 179 106 84 56 35 30 
109 219 219 218 219 219 217 217 214 218 217 217 218 218 220 222 218 213 210 210 189 128 72 35 48 100 149 166 175 180 184 193 199 201 200 205 205 205 204 204 204 205 217 230 233 225 209 199 192 177 158 99 27 6 27 80 156 188 171 100 88 51 35 37 
107 217 217 217 217 217 218 213 210 214 214 213 213 214 215 214 211 209 205 186 131 81 42 42 82 147 163 164 173 180 187 196 200 206 207 205 206 206 204 200 204 217 237 246 248 240 217 195 183 168 122 46 3 0 43 126 169 177 148 93 68 43 36 35 
104 208 213 213 212 212 211 208 209 210 206 212 212 210 212 212 210 201 183 139 82 44 22 46 102 154 163 171 175 181 189 194 201 206 206 206 206 202 204 198 213 236 248 252 252 244 214 185 161 130 62 11 0 10 95 160 170 171 136 81 61 44 36 33 
93 198 196 192 190 197 201 202 202 208 205 205 207 209 206 201 202 182 126 98 47 27 28 72 137 161 167 173 177 186 193 204 206 202 204 205 201 199 198 205 231 247 252 255 250 236 190 166 145 78 16 0 0 44 144 168 169 170 130 83 58 41 36 34 
81 151 148 143 148 164 177 186 195 202 204 205 202 204 206 204 190 157 94 60 29 21 45 106 154 163 169 180 184 193 198 204 207 206 204 204 198 194 200 221 243 251 255 252 239 200 159 132 86 24 1 0 13 110 161 173 177 176 126 70 55 39 40 32 
77 139 143 142 147 150 159 158 174 197 202 208 205 204 199 184 146 105 61 30 19 21 74 148 164 166 173 184 186 193 200 201 204 200 199 201 198 204 218 236 250 252 251 235 202 148 120 86 29 0 0 1 62 153 172 168 163 144 83 58 46 41 37 33 
75 149 155 160 163 164 173 176 164 167 182 195 201 201 188 149 102 59 31 16 10 47 125 159 166 169 176 184 192 198 202 202 204 200 196 205 211 225 237 246 252 248 233 185 135 113 75 24 3 0 0 31 131 161 135 100 40 24 49 51 47 37 33 37 
77 163 170 177 182 177 183 184 184 180 174 174 185 189 183 129 70 27 14 7 21 82 147 162 168 171 179 185 196 202 206 202 202 196 198 211 233 244 250 251 249 226 181 139 96 67 17 2 0 0 4 84 141 100 61 41 21 43 48 49 54 34 34 35 
79 169 179 181 186 186 192 189 192 194 196 193 192 194 189 166 92 21 5 5 54 132 158 162 171 180 185 189 200 206 201 198 199 194 200 213 237 249 250 245 223 172 115 93 60 13 0 0 0 0 37 111 80 41 32 22 23 64 40 42 44 37 41 39 
84 172 179 189 190 192 196 194 195 197 199 200 206 201 198 194 148 53 3 24 105 155 161 163 173 181 188 196 199 202 199 195 196 193 198 205 222 236 234 204 158 118 66 42 13 1 0 0 0 37 109 67 40 27 27 24 43 72 41 42 45 40 42 34 
87 176 183 189 193 196 197 197 197 198 202 204 207 207 208 208 196 139 32 39 121 159 163 169 176 194 189 197 197 196 190 194 195 198 197 197 192 192 182 153 106 72 33 6 0 0 0 0 23 109 57 39 28 23 24 31 57 67 47 46 42 39 39 37 
92 183 187 190 197 201 199 199 201 206 209 204 206 210 215 210 206 183 100 80 135 158 166 173 182 189 197 195 189 192 187 186 193 201 205 195 176 157 144 104 56 18 3 1 0 0 0 5 100 55 36 31 27 27 28 44 68 62 44 46 40 39 36 34 
93 186 195 193 196 206 198 196 202 205 207 208 211 210 212 212 208 199 164 119 149 170 169 180 182 194 193 195 190 188 187 199 208 213 208 194 167 131 86 53 20 2 0 0 0 0 0 70 67 34 32 33 28 27 35 60 78 68 56 44 43 40 41 36 
93 188 195 195 197 202 198 200 204 202 206 209 210 211 212 210 208 207 183 143 153 164 169 177 188 192 188 187 182 198 218 223 219 217 208 181 137 97 52 10 1 0 0 0 0 0 33 81 47 29 30 31 28 24 51 74 84 71 55 48 39 42 39 34 
94 188 187 192 194 199 199 200 204 204 205 208 211 209 209 211 209 209 192 153 143 159 172 180 184 182 182 187 207 232 245 236 208 192 179 139 80 44 11 4 1 0 0 0 0 23 99 67 46 37 34 31 33 42 65 71 82 75 40 41 39 39 40 36 
93 184 188 186 192 201 200 201 204 204 206 210 212 213 213 212 210 209 200 161 134 158 173 179 182 183 198 225 243 249 248 230 177 151 129 69 27 10 1 0 0 0 0 0 8 109 85 61 47 40 34 32 37 46 67 66 75 62 44 37 37 36 41 32 
87 174 181 184 193 196 201 204 200 205 209 210 212 217 217 213 210 210 205 167 137 160 172 179 184 204 235 247 250 245 225 172 132 111 57 21 15 2 0 0 0 0 0 0 66 111 84 60 49 37 34 37 46 53 67 51 58 46 41 39 39 37 39 35 
85 179 182 182 190 195 202 197 197 200 201 206 211 213 212 208 209 206 202 174 147 170 179 184 211 239 249 251 244 211 163 121 93 62 21 6 0 0 0 0 0 0 0 9 131 107 75 58 47 42 39 35 39 53 56 49 35 45 39 34 46 40 37 39 
85 168 175 181 190 194 199 200 199 200 204 207 208 212 214 210 206 205 204 182 155 173 185 199 235 248 250 238 206 156 130 85 48 21 7 0 0 0 0 0 0 0 3 42 132 106 74 56 51 51 37 40 39 41 45 40 36 40 43 39 37 41 31 35 
82 172 177 183 192 196 196 199 200 201 204 206 207 211 210 207 201 200 202 184 156 175 187 207 230 236 225 192 166 125 84 52 14 0 1 0 0 0 0 0 0 0 3 75 111 92 75 56 45 39 35 34 34 34 37 34 35 33 36 36 32 37 34 32 
86 176 175 182 187 193 196 198 200 199 204 209 209 210 208 206 201 198 198 174 148 171 189 204 210 202 179 155 122 78 43 13 1 0 0 0 0 0 0 0 0 4 44 81 100 93 73 57 45 37 33 35 29 34 35 32 33 24 32 39 32 36 34 35 
88 179 180 177 184 195 195 197 198 198 206 210 209 207 207 202 198 194 180 136 123 156 177 190 185 171 147 124 73 36 18 2 0 0 0 0 0 0 0 0 6 83 103 79 82 81 62 53 44 36 36 34 29 33 32 31 29 31 27 33 34 36 33 32 
91 182 184 183 184 193 196 196 200 199 205 209 207 209 204 200 193 184 155 71 43 103 145 163 157 148 120 78 37 15 0 0 0 0 0 0 0 0 0 8 95 169 92 68 81 80 53 46 39 34 36 32 32 30 30 30 24 27 32 28 35 34 35 34 
91 187 188 180 181 193 195 196 196 199 202 206 206 207 202 200 192 179 108 20 0 26 71 102 112 83 57 26 5 0 0 0 0 0 0 0 0 0 1 74 180 188 70 59 66 67 53 39 37 35 34 33 31 32 29 31 28 27 30 29 34 35 33 32 
90 186 182 182 184 194 197 196 198 200 204 204 202 201 200 194 187 159 61 5 0 0 4 15 28 18 11 1 0 0 0 0 0 0 0 0 0 1 71 181 210 163 56 53 56 61 39 36 34 35 30 33 33 29 34 35 34 28 26 27 30 37 36 32 
91 182 176 180 186 189 197 194 198 199 200 198 197 194 192 193 173 117 33 0 0 0 0 0 0 0 0 0 0 0 0 0 0 0 0 0 0 58 172 211 210 133 55 44 51 53 37 42 34 36 27 34 31 29 37 32 34 36 30 30 34 32 37 34 
83 174 175 183 185 190 195 195 199 199 201 199 194 190 183 180 155 77 8 0 0 0 0 0 0 0 0 0 0 0 0 0 0 0 0 0 47 172 208 213 206 117 47 45 43 45 33 34 32 33 31 34 31 30 30 32 32 33 35 33 32 24 30 33 
82 171 180 188 186 189 192 194 198 198 198 193 188 181 172 162 123 31 7 1 0 0 0 0 0 0 0 0 0 0 0 0 0 0 0 17 136 205 212 211 205 110 47 42 35 35 31 34 33 30 35 31 32 29 33 31 32 36 32 30 32 30 33 32 
79 173 180 187 184 189 189 194 199 197 192 186 177 172 156 132 75 9 8 0 0 0 0 0 0 0 0 0 0 0 0 0 0 0 2 94 186 211 211 206 195 111 44 49 36 33 37 33 33 34 42 37 31 39 31 30 30 33 34 31 37 33 29 33 
79 162 179 186 186 187 186 200 218 214 195 177 164 149 125 91 24 2 2 0 0 0 0 0 0 0 0 0 0 1 0 0 0 0 40 159 200 208 204 200 185 111 43 35 30 33 33 35 36 34 31 29 36 31 32 31 29 31 29 30 30 32 30 32 
75 163 172 184 182 181 186 220 238 231 190 160 148 119 81 33 1 0 2 0 0 0 0 0 0 0 0 1 0 0 0 0 0 11 122 192 205 208 199 189 177 109 36 32 28 34 30 33 37 36 36 33 33 33 33 31 35 31 33 27 29 35 29 30 
69 158 167 173 177 174 195 235 240 223 167 135 122 87 43 10 0 3 0 0 0 0 0 0 0 0 4 2 1 0 4 2 1 72 175 201 210 205 199 188 179 131 42 36 32 29 32 31 29 31 40 34 30 30 30 32 33 27 29 30 30 33 34 39 
84 169 180 182 182 179 208 236 233 206 176 175 169 169 158 141 109 97 85 54 28 15 1 0 0 0 0 0 2 0 2 0 22 151 204 210 207 200 195 184 176 157 47 34 32 35 33 32 32 33 35 36 31 33 30 29 27 28 34 30 34 31 30 35 
106 214 217 211 212 209 215 222 217 218 212 212 212 210 211 205 201 197 188 184 171 130 74 16 3 0 0 0 2 0 1 6 80 186 208 210 202 197 189 185 176 171 67 35 34 39 39 32 34 33 28 33 32 32 29 32 32 26 35 33 31 33 31 33 
111 221 225 223 222 220 219 218 215 221 219 219 219 217 217 213 210 209 207 199 195 189 170 105 41 7 0 1 0 5 3 28 151 206 208 207 202 195 186 179 177 181 92 33 29 36 35 35 36 32 30 35 35 30 33 31 29 27 29 29 29 29 33 33 
111 224 224 221 224 223 221 219 220 221 218 219 218 218 218 215 215 214 208 202 197 187 180 159 104 42 10 2 1 1 2 82 183 202 205 205 201 193 186 182 179 184 125 34 33 32 39 34 35 35 30 35 29 27 32 32 29 28 26 31 32 31 35 33 
111 223 226 224 226 222 222 221 221 224 220 221 219 221 221 217 217 214 214 206 197 186 180 162 129 84 47 19 6 3 18 130 198 204 205 202 201 195 186 181 182 186 162 39 30 33 35 36 33 36 29 31 28 31 31 30 30 29 30 29 31 29 34 40 
111 227 226 226 226 226 225 225 224 224 221 221 222 222 224 222 222 218 215 208 199 186 171 158 133 98 70 41 24 2 47 175 204 207 199 199 199 194 185 184 179 184 185 68 29 26 29 31 40 33 31 33 32 31 26 31 23 23 30 34 34 41 36 40 
110 228 225 226 224 226 225 224 222 224 222 223 221 222 222 223 221 221 218 207 195 179 163 147 126 88 57 47 23 13 92 192 205 204 196 198 195 192 183 184 175 177 189 117 29 26 29 33 34 33 32 35 33 28 27 32 22 42 66 84 73 54 54 62 
