P2
64 64
255
40 39 41 43 47 58 61 73 82 93 99 104 106 108 109 111 111 111 112 111 113 113 113 113 113 113 115 111 104 90 60 45 46 41 48 51 56 52 44 43 55 69 82 88 88 92 92 92 91 94 96 99 105 106 109 111 111 111 109 109 109 107 107 103 
74 72 75 99 111 135 141 160 184 200 205 211 215 221 223 224 226 226 226 228 228 228 230 230 231 228 232 230 224 207 159 96 92 93 96 104 109 97 92 88 116 151 171 174 179 183 185 187 188 189 194 200 209 211 222 222 225 225 222 220 222 220 215 215 
73 79 90 113 132 143 159 182 195 205 208 214 217 221 227 226 227 226 227 230 228 230 230 230 230 230 232 230 230 221 204 145 93 93 102 107 106 103 84 104 131 153 170 173 183 186 185 190 189 192 193 197 202 208 214 220 224 225 225 221 220 219 218 214 
75 92 123 144 144 160 176 190 202 207 210 219 219 221 225 224 227 224 227 225 226 230 228 231 231 230 235 232 230 227 220 196 142 98 103 106 106 93 88 115 134 147 164 171 183 183 180 184 181 183 195 198 201 208 214 221 219 221 225 222 221 221 214 213 
87 122 141 154 160 179 187 196 206 211 215 217 219 224 224 223 225 225 228 226 227 230 232 232 230 232 234 232 233 232 228 217 189 132 97 94 102 87 86 119 130 147 157 167 173 174 174 182 177 187 194 201 202 209 217 220 220 220 220 220 219 219 217 215 
91 136 153 160 179 187 195 199 207 211 213 217 217 222 223 223 223 224 226 227 230 230 231 231 230 235 233 233 232 232 232 225 213 173 112 96 96 83 88 111 131 134 151 159 158 164 166 170 180 190 197 202 208 211 217 220 219 219 223 214 212 217 213 213 
113 153 164 175 188 195 198 207 209 213 215 220 218 223 222 222 222 225 225 224 228 228 228 230 232 232 234 233 235 233 232 230 224 204 148 99 93 70 80 107 120 141 149 149 159 160 169 175 190 198 200 207 209 210 215 223 221 220 219 218 210 210 208 209 
146 166 175 192 196 199 200 206 211 214 213 219 218 220 219 224 224 226 224 224 223 226 226 230 231 232 233 234 233 234 231 232 232 214 181 113 82 68 74 94 121 145 154 154 158 167 177 187 196 204 209 210 217 221 223 221 220 219 217 217 215 211 210 208 
163 171 184 193 194 198 206 206 213 215 217 220 225 223 223 225 224 225 223 222 226 226 227 230 231 231 235 232 232 233 232 231 231 222 192 124 75 55 66 82 117 141 157 161 170 174 187 198 201 206 212 217 218 221 220 220 219 217 220 220 218 213 209 209 
168 179 185 194 195 194 201 211 210 217 220 221 224 225 224 225 223 225 225 223 226 225 227 230 231 231 232 231 230 234 231 230 231 222 194 132 68 47 56 81 125 157 167 167 177 184 192 198 201 205 210 215 217 217 217 213 217 217 214 215 218 213 211 207 
171 177 184 194 198 200 205 212 213 213 221 221 223 222 222 225 226 226 223 224 227 227 227 228 231 232 232 233 231 233 233 232 230 217 190 122 61 45 65 88 126 162 176 177 179 174 185 195 199 206 207 213 209 212 212 210 209 211 209 209 212 211 213 208 
168 177 184 193 193 205 206 210 211 214 219 217 220 220 223 224 222 225 225 225 226 227 227 227 228 231 233 232 231 233 224 227 222 210 184 111 34 33 57 103 148 169 182 181 176 177 186 193 197 197 202 205 201 202 204 204 198 197 198 200 202 200 205 205 
168 167 181 189 197 200 207 210 212 213 217 214 218 218 217 219 218 222 224 225 225 226 228 228 228 230 233 232 230 231 230 228 220 202 173 91 24 18 56 116 156 186 193 186 180 176 177 188 195 196 199 198 198 201 195 192 192 194 192 186 194 192 198 202 
183 167 182 189 197 204 207 211 207 211 207 209 212 212 215 217 217 221 223 225 226 227 228 228 230 230 231 228 228 228 228 225 213 193 159 74 18 14 70 144 174 193 195 193 180 176 181 188 190 194 198 196 196 195 189 185 190 190 190 187 187 189 196 199 
217 171 174 186 196 200 201 205 204 205 206 204 209 210 213 212 214 217 220 221 223 225 226 228 231 228 231 228 227 226 225 218 204 184 135 54 15 23 104 162 185 197 198 197 187 180 174 174 187 188 192 190 187 190 189 188 187 193 189 189 190 189 198 204 
222 205 172 185 192 197 200 199 199 202 202 205 207 212 214 214 219 220 221 222 224 222 225 227 226 223 226 223 223 222 219 211 199 173 129 40 16 23 134 182 196 198 200 198 187 180 169 176 181 184 187 183 180 184 183 187 185 186 187 193 190 195 198 202 
223 220 186 179 189 188 189 194 194 201 205 209 211 213 217 215 220 223 222 222 222 224 226 226 225 226 230 227 224 217 215 206 189 164 98 26 5 48 155 185 194 196 198 199 190 179 172 170 171 176 180 180 182 179 180 181 185 187 190 196 199 201 206 205 
223 223 204 168 186 185 190 195 198 206 209 213 213 217 220 222 225 224 223 226 225 224 224 225 225 226 231 226 219 219 211 205 182 154 79 24 2 70 168 189 195 194 201 201 198 190 181 170 170 171 182 184 179 180 184 184 193 194 199 202 207 207 210 208 
224 224 220 179 183 188 196 199 202 209 209 211 213 220 220 224 225 226 225 225 226 227 227 227 225 223 228 226 218 215 210 200 175 134 57 1 8 95 176 192 198 195 198 198 199 196 185 179 169 169 180 182 185 185 186 185 197 200 201 208 211 211 212 215 
225 225 224 197 188 194 199 204 208 205 210 214 220 221 224 225 226 226 227 226 226 225 226 226 225 224 224 223 219 210 199 188 163 124 49 8 20 118 181 194 193 193 199 197 196 195 192 188 180 174 174 181 181 184 187 190 195 200 202 209 210 210 217 214 
226 225 225 212 193 198 205 208 210 215 215 219 221 222 223 223 227 227 226 226 227 226 226 226 224 224 222 221 213 207 199 179 156 86 30 15 44 142 184 193 196 195 198 199 198 195 195 197 190 186 181 179 181 182 189 190 194 198 201 207 210 213 215 211 
228 226 224 219 200 201 207 207 211 214 218 221 223 224 224 225 227 228 227 226 226 228 225 224 220 219 219 217 213 204 189 163 128 64 16 8 57 166 189 194 197 195 195 197 201 197 195 195 193 189 183 185 181 183 187 187 190 193 198 204 206 212 214 213 
232 227 225 222 208 198 207 206 211 213 218 220 221 224 226 227 226 230 227 223 228 227 225 223 221 215 214 211 206 196 169 146 92 35 5 10 79 164 185 196 194 190 193 196 200 195 195 197 194 193 190 188 181 181 186 185 188 197 201 205 207 213 214 215 
231 231 225 226 217 204 208 211 212 211 217 221 224 224 225 228 227 227 227 230 230 227 225 223 212 210 211 206 196 183 157 113 52 10 1 13 96 175 188 193 194 194 196 194 198 197 197 194 194 194 189 184 177 179 182 190 193 197 204 206 209 218 217 218 
232 232 225 226 218 208 210 210 212 213 215 219 223 225 225 227 228 227 228 228 228 226 223 217 210 210 202 194 183 164 134 70 23 0 0 11 112 176 188 195 193 195 192 194 199 197 198 195 193 193 192 184 177 175 180 187 194 196 202 207 210 215 221 220 
234 232 227 225 221 212 214 217 213 211 215 219 221 224 226 228 227 228 226 226 227 227 222 211 207 204 194 184 171 143 87 32 5 0 0 27 134 180 189 196 195 193 193 192 195 197 199 197 198 198 194 187 179 175 179 187 194 204 206 208 211 217 218 220 
233 234 226 228 221 215 213 215 215 217 219 218 221 223 225 224 226 228 228 227 227 225 218 209 201 192 183 168 153 95 45 9 1 0 0 34 142 182 193 193 196 192 193 188 189 193 198 199 195 194 193 183 176 174 183 188 195 202 207 210 215 215 219 217 
233 235 231 227 223 222 212 220 219 219 222 218 223 223 225 225 225 227 226 228 228 222 209 197 192 179 163 148 99 42 8 0 0 0 0 31 151 184 192 194 195 189 188 192 189 192 196 195 195 199 199 188 177 173 184 192 196 197 206 208 214 219 220 222 
235 236 232 228 225 222 209 217 221 221 221 221 223 223 224 225 227 228 224 227 224 215 201 181 176 161 132 96 55 5 0 0 0 0 0 39 154 183 189 195 196 192 192 192 184 186 196 195 195 198 201 195 187 183 180 189 195 197 204 205 211 214 220 219 
235 235 234 231 227 223 209 215 223 224 223 224 223 225 227 226 230 227 226 227 222 211 186 162 145 125 80 39 13 0 0 0 0 0 0 33 151 185 192 194 196 193 189 197 192 186 194 200 198 200 204 200 195 187 182 192 197 200 202 204 209 209 215 217 
233 233 233 231 226 225 218 213 224 225 223 223 224 225 228 227 228 228 226 225 215 202 168 133 109 60 30 6 0 0 0 0 0 0 0 26 145 184 188 190 195 194 190 195 188 187 195 197 197 199 204 199 197 194 187 194 198 200 208 206 210 208 214 214 
233 234 235 233 226 224 219 218 221 223 225 225 226 226 226 228 228 226 225 224 212 187 124 81 53 26 7 0 0 0 0 0 0 0 0 18 133 183 188 193 194 193 194 195 190 186 192 195 198 199 201 201 197 193 189 194 194 202 206 209 212 214 217 219 
234 234 235 232 228 225 224 219 220 225 226 227 228 227 230 230 228 226 228 224 209 170 79 40 17 1 0 0 0 0 0 0 0 0 0 9 112 176 192 194 199 195 192 194 192 183 183 186 190 196 201 198 200 196 192 194 197 204 209 208 217 220 221 221 
232 233 232 231 230 226 225 223 224 223 226 228 228 228 227 226 227 224 224 222 204 135 39 9 0 0 0 0 0 0 0 0 0 0 0 4 97 167 187 193 194 196 193 194 187 188 180 179 185 195 198 196 202 198 196 193 195 206 211 214 220 222 223 222 
231 233 234 231 230 226 227 225 222 225 227 231 227 231 230 226 228 225 226 217 193 85 6 0 0 0 0 0 0 0 0 0 0 0 0 0 79 166 188 192 195 196 192 190 190 192 175 173 176 186 197 198 197 197 197 194 196 205 208 215 217 220 222 225 
232 232 232 234 232 228 227 226 225 223 224 228 228 232 232 232 228 225 225 218 180 45 1 0 0 0 0 0 0 0 0 0 0 0 0 0 57 159 182 192 194 193 195 192 192 193 185 175 171 187 196 199 199 196 195 189 194 204 209 215 214 225 224 226 
232 235 231 231 231 228 228 227 224 222 225 228 233 233 233 231 233 228 225 212 147 18 0 0 0 0 1 0 0 0 0 0 0 0 0 0 34 142 175 186 188 192 197 187 192 193 187 176 171 179 188 198 197 197 199 194 197 206 210 212 218 226 226 228 
235 236 233 233 230 233 233 228 226 226 226 234 233 234 231 232 230 228 223 206 116 5 0 0 0 0 0 0 0 0 0 0 0 0 0 0 11 115 170 180 186 190 194 190 187 189 189 185 176 176 183 192 198 200 200 198 199 204 211 214 217 223 226 228 
233 234 234 233 234 234 231 230 230 224 224 234 235 235 231 232 232 228 223 196 83 1 0 0 0 0 0 0 0 0 0 0 0 0 0 0 4 86 160 175 184 186 190 194 187 184 187 181 171 169 170 183 194 195 195 195 196 200 210 215 221 225 226 226 
233 235 234 234 235 234 231 230 233 225 220 232 234 236 234 235 232 228 220 185 45 0 0 0 0 0 0 0 0 0 0 0 0 4 8 33 83 116 158 171 177 180 187 187 185 184 183 185 173 159 158 173 189 199 194 193 196 202 211 219 222 224 226 227 
234 237 235 236 235 235 234 234 234 225 225 228 236 235 232 232 227 225 218 170 43 4 0 0 0 0 0 0 0 0 2 30 65 108 142 155 168 174 175 182 177 180 183 185 190 185 188 180 169 159 154 161 181 196 194 190 195 202 210 215 223 227 227 228 
235 235 237 237 236 238 236 235 236 230 207 171 147 142 133 137 142 156 166 168 163 137 88 31 8 3 2 8 14 42 90 130 149 160 171 182 186 188 192 195 196 196 197 193 193 186 189 185 182 160 153 160 182 193 192 188 194 205 209 213 220 224 227 227 
237 237 241 237 238 239 231 219 202 181 137 70 83 116 145 145 154 167 166 173 186 194 202 198 125 57 41 71 67 67 104 143 164 162 175 187 190 192 196 197 199 201 198 204 202 205 199 193 189 183 171 162 176 190 194 189 194 200 207 212 221 224 225 228 
239 240 243 235 221 205 188 179 175 160 115 84 94 116 154 151 156 167 166 176 182 196 201 200 204 205 162 88 67 111 130 155 163 176 186 190 196 199 198 199 200 202 204 202 206 206 209 207 201 190 186 177 179 186 190 193 193 201 210 213 219 223 228 226 
241 233 210 186 179 172 163 161 157 141 117 117 116 129 136 143 159 174 173 181 184 194 194 194 200 202 209 211 173 141 143 157 169 186 189 199 204 201 201 200 201 208 206 206 204 207 207 209 209 205 198 189 180 184 190 194 190 199 205 209 217 221 225 226 
209 186 177 172 162 151 142 136 136 126 120 130 134 134 148 158 168 181 180 190 197 199 195 201 204 205 209 208 209 208 164 168 177 192 195 204 208 206 202 202 205 207 209 209 210 212 209 210 212 208 207 204 195 189 180 186 188 196 206 207 211 215 224 226 
166 159 160 159 134 137 130 128 131 134 145 146 149 154 162 167 180 190 196 198 200 205 204 205 208 207 209 209 209 209 209 187 180 190 197 200 202 202 207 205 207 207 213 213 215 215 213 213 214 210 209 205 205 198 197 185 185 195 206 208 211 212 218 223 
134 133 131 124 120 130 142 143 147 150 157 154 155 160 173 175 188 195 197 199 199 205 207 208 209 207 212 212 211 213 209 210 194 186 188 198 200 200 204 208 208 215 212 214 213 214 213 212 213 209 208 206 207 208 202 198 188 188 195 198 208 208 210 215 
103 92 96 113 121 143 160 168 154 142 150 143 153 166 176 186 195 201 199 205 206 208 208 208 209 211 217 214 209 211 209 213 212 198 192 201 204 204 208 208 212 211 213 217 214 214 221 219 214 211 209 210 209 210 207 205 199 196 185 193 197 202 208 209 
65 61 67 87 124 151 160 153 149 145 134 147 156 170 192 194 200 197 204 207 206 208 206 210 211 209 218 221 215 214 214 212 211 214 199 198 201 202 208 211 215 212 218 219 219 220 223 221 215 212 212 210 211 215 209 206 209 206 198 193 195 199 204 209 
55 56 75 103 129 143 142 148 131 128 136 149 159 180 184 193 197 198 201 207 208 211 209 211 210 212 217 218 218 217 218 215 214 210 210 200 201 209 210 215 215 217 224 226 225 225 223 223 220 215 218 215 212 214 211 209 206 209 202 197 195 196 201 211 
54 65 83 94 115 125 108 115 124 145 149 160 170 180 185 190 197 199 199 201 205 207 213 214 214 215 220 217 219 218 218 217 217 220 212 212 208 213 214 218 227 227 233 233 231 233 227 225 224 215 215 212 210 210 213 210 206 209 210 205 196 200 197 202 
60 66 79 81 97 103 86 104 116 137 157 161 173 179 184 195 196 207 202 204 209 208 212 212 214 214 219 220 218 219 222 221 219 217 213 211 214 217 220 224 227 231 234 236 237 237 234 226 226 224 219 214 212 213 211 208 208 213 213 211 202 204 195 197 
55 69 69 86 106 97 82 99 118 137 155 166 176 184 188 195 200 204 205 204 208 210 212 215 217 220 221 220 220 218 221 219 221 218 215 217 212 219 220 222 223 225 230 232 237 239 237 234 235 227 222 217 217 220 218 213 209 212 213 213 207 204 199 201 
53 69 84 96 105 88 82 98 130 133 149 160 174 185 190 192 194 200 201 205 207 207 211 214 213 217 220 217 222 220 222 222 223 222 220 221 212 221 219 223 224 225 226 228 232 231 237 239 237 234 225 221 222 225 223 225 220 215 212 209 205 207 206 201 
44 64 91 95 97 75 83 106 128 135 153 166 180 185 186 190 195 202 202 205 207 209 209 212 214 215 219 220 221 218 221 224 225 223 223 219 215 215 223 223 225 223 224 224 223 218 228 235 235 233 225 224 226 230 233 232 227 217 210 212 211 210 204 204 
32 58 77 80 69 72 94 117 125 135 148 160 174 184 188 192 197 201 201 207 208 210 213 214 217 217 215 215 218 222 222 224 227 225 222 219 218 214 228 225 224 223 224 222 223 213 218 225 224 224 226 230 235 236 236 238 235 230 222 217 212 208 202 205 
17 43 61 56 67 71 84 80 116 143 147 157 169 180 185 189 199 201 201 202 206 210 215 212 218 211 217 221 222 221 220 225 225 225 224 222 217 215 225 228 225 223 221 220 215 212 212 218 213 212 221 231 237 239 241 245 244 240 231 219 213 211 207 207 
7 18 34 43 53 72 93 95 116 142 146 160 172 179 182 190 196 198 200 202 208 210 213 211 212 214 219 223 219 224 224 223 223 222 221 220 217 214 221 230 228 225 221 217 214 209 210 210 207 208 212 225 239 243 245 247 247 244 234 224 214 210 210 209 
9 17 20 29 43 59 92 117 134 151 154 166 171 183 188 190 194 197 197 208 210 208 215 212 217 213 221 225 224 230 227 225 224 220 220 218 213 212 217 234 230 225 220 217 209 200 208 201 199 201 210 219 236 244 248 249 248 247 237 219 215 213 212 210 
5 10 14 21 24 49 79 113 142 151 155 162 171 182 188 192 196 199 199 202 206 207 209 210 213 213 222 223 228 233 232 228 223 219 221 219 214 210 212 233 238 231 221 214 206 206 197 193 195 200 211 225 232 244 248 249 250 247 239 222 219 214 215 213 
2 11 5 18 31 48 73 113 134 145 154 160 173 183 185 185 196 201 198 201 209 211 207 208 212 217 220 219 228 234 233 232 224 219 221 218 215 211 211 230 238 240 230 217 202 210 195 193 197 200 210 223 232 245 247 247 249 244 234 223 221 219 217 217 
1 5 5 21 32 46 69 100 131 151 158 162 175 182 181 192 197 200 198 200 202 212 209 209 214 218 225 228 234 234 234 233 224 223 220 215 212 211 212 227 215 236 241 226 201 195 193 194 200 204 210 222 234 244 247 249 247 241 235 224 211 189 174 158 
1 10 9 17 32 54 61 87 130 143 169 172 174 179 190 189 196 197 204 208 208 211 207 213 214 218 230 233 235 236 237 235 230 225 221 212 218 215 213 225 199 193 227 239 213 193 186 193 200 204 213 219 228 236 241 241 244 230 189 147 133 130 149 174 
